<?xml version="1.0" encoding="UTF-8"?>
<svg version="1.1" xmlns="http://www.w3.org/2000/svg" width="1400" height="840">
<path d="M0 0 C0.84175781 0.83917969 1.68351562 1.67835937 2.55078125 2.54296875 C3.83662109 3.82107422 3.83662109 3.82107422 5.1484375 5.125 C6.33759766 6.32189453 6.33759766 6.32189453 7.55078125 7.54296875 C8.185 8.17976563 8.81921875 8.8165625 9.47265625 9.47265625 C31.81812143 33.25052304 37.43431224 65.27948651 36.8359375 96.76171875 C36.53236536 105.8561813 35.42377866 114.64488422 33.55078125 123.54296875 C33.36854004 124.4148584 33.18629883 125.28674805 32.99853516 126.18505859 C32.41927058 128.8742593 31.80709635 131.55303631 31.17578125 134.23046875 C30.89891479 135.43316406 30.89891479 135.43316406 30.61645508 136.66015625 C29.51497381 141.02043351 28.11764073 144.38126102 25.69921875 148.1875 C24.34032152 150.35300969 24.34032152 150.35300969 23.55078125 152.54296875 C24.61655858 156.17582226 24.61655858 156.17582226 26.55078125 159.54296875 C26.86159159 162.29546028 27.0289198 164.74008683 26.98828125 167.48046875 C26.97998291 168.21555664 26.97168457 168.95064453 26.96313477 169.70800781 C26.57108419 182.7614783 22.81300766 194.64962914 15.55078125 205.54296875 C14.79796875 206.0946875 14.04515625 206.64640625 13.26953125 207.21484375 C10.75497064 210.6209304 11.4457891 213.14737806 11.98632812 217.23876953 C12.96839323 222.98758838 14.08835739 228.69085371 15.34228516 234.38549805 C15.79875136 236.47119373 16.23576642 238.5603562 16.671875 240.65039062 C22.25902033 266.70974081 37.82841478 285.37776995 56.6796875 303.51171875 C58.55078125 305.54296875 58.55078125 305.54296875 58.55078125 307.54296875 C41.58164653 312.5682496 19.70171111 308.18157334 2.55078125 305.54296875 C6.51078125 307.52296875 10.47078125 309.50296875 14.55078125 311.54296875 C14.22078125 312.20296875 13.89078125 312.86296875 13.55078125 313.54296875 C10.71283559 314.33294312 7.92901422 315.00278143 5.05078125 315.60546875 C4.2721875 315.77884766 3.49359375 315.95222656 2.69140625 316.13085938 C-6.9325953 318.21021733 -16.17543254 318.68254634 -26.01171875 318.60546875 C-27.11580078 318.60095703 -28.21988281 318.59644531 -29.35742188 318.59179688 C-32.05474575 318.58012015 -34.75195222 318.563744 -37.44921875 318.54296875 C-37.02044434 319.01420166 -36.59166992 319.48543457 -36.14990234 319.97094727 C-35.59641113 320.59412842 -35.04291992 321.21730957 -34.47265625 321.859375 C-33.92013184 322.47498291 -33.36760742 323.09059082 -32.79833984 323.72485352 C-31.44921875 325.54296875 -31.44921875 325.54296875 -31.07421875 328.48046875 C-31.19796875 329.16109375 -31.32171875 329.84171875 -31.44921875 330.54296875 C-46.37542612 333.17028586 -63.11771361 328.64066142 -75.57421875 320.23046875 C-80.65777212 316.49586812 -83.67782494 313.18473473 -86.44921875 307.54296875 C-86.77921875 306.88296875 -87.10921875 306.22296875 -87.44921875 305.54296875 C-89.80826084 324.55741641 -86.52267485 343.4861391 -76.91015625 360.22265625 C-73.02067106 363.88988515 -68.37642794 365.67736467 -63.51171875 367.79296875 C-62.44356934 368.26968018 -61.37541992 368.7463916 -60.27490234 369.23754883 C-57.00682257 370.68967931 -53.73031191 372.12051219 -50.44921875 373.54296875 C-49.49547363 373.95659668 -48.54172852 374.37022461 -47.55908203 374.79638672 C-40.70838624 377.75689659 -33.84220543 380.6814017 -26.97070312 383.59326172 C-5.17335877 392.86715183 13.10729569 404.76148821 22.55078125 427.54296875 C27.06714907 440.37382503 28.99302471 453.95702781 31.36586547 467.30144906 C31.96378077 470.65595507 32.56948896 474.00905486 33.17414856 477.36235046 C34.18661258 482.9836271 35.19365778 488.60585202 36.19702148 494.22875977 C37.35320262 500.70787252 38.51645865 507.18568242 39.68382472 513.66278869 C40.93400976 520.59961327 42.17958944 527.53725859 43.42353654 534.47520423 C43.77944847 536.45871 44.13614685 538.44207303 44.49300194 540.42540932 C45.15880683 544.13112783 45.82059382 547.83754133 46.48120117 551.54418945 C46.77495636 553.17384644 46.77495636 553.17384644 47.074646 554.83642578 C48.12014087 560.73005465 48.96199243 566.58587826 49.55078125 572.54296875 C46.58078125 573.20296875 43.61078125 573.86296875 40.55078125 574.54296875 C40.67421906 575.46158691 40.79765686 576.38020508 40.92483521 577.32666016 C42.37931264 588.50230595 43.41733852 599.68851326 44.35546875 610.91796875 C44.52109223 612.87422339 44.6869196 614.83046078 44.85293579 616.78668213 C45.29180735 621.97156547 45.7260116 627.15682838 46.15859985 632.34223938 C46.42665032 635.55337991 46.69575375 638.76443077 46.96508789 641.97546387 C49.1102456 667.57255511 51.21421746 693.17167055 53.05078125 718.79296875 C53.13245544 719.91848145 53.21412964 721.04399414 53.29827881 722.20361328 C53.5229402 725.32160945 53.74150026 728.43995454 53.95703125 731.55859375 C54.01911774 732.42510559 54.08120422 733.29161743 54.14517212 734.18438721 C54.69825289 742.46763672 54.83641521 750.76586618 54.11328125 759.04296875 C54.03207031 760.02265625 53.95085937 761.00234375 53.8671875 762.01171875 C53.55078125 764.54296875 53.55078125 764.54296875 52.55078125 767.54296875 C46.55323097 768.58276596 40.69355787 768.73448976 34.61328125 768.73046875 C33.60579834 768.73111328 32.59831543 768.73175781 31.56030273 768.73242188 C23.09308899 768.67320588 14.9064002 767.9012116 6.55078125 766.54296875 C2.55878592 755.65570877 -0.60631986 744.59221776 -3.44921875 733.35546875 C-3.75666016 732.16115234 -4.06410156 730.96683594 -4.38085938 729.73632812 C-11.06678393 702.81267749 -15.19359563 675.35148194 -19.36566162 647.95324707 C-20.42389289 641.01220231 -21.49297765 634.07282001 -22.56178856 627.13339806 C-22.93001887 624.73620249 -23.29537909 622.33858374 -23.66023254 619.94087219 C-23.88321553 618.48506852 -24.10625031 617.02927278 -24.3293457 615.57348633 C-24.52220657 614.3079744 -24.71506744 613.04246246 -24.91377258 611.73860168 C-25.32419466 609.28913359 -25.79036769 606.93408306 -26.44921875 604.54296875 C-40.99802227 655.92810458 -44.37357901 704.70454627 -17.703125 752.71484375 C-15.0251366 757.36835911 -12.03033353 761.77491733 -8.8828125 766.125 C-7.44921875 768.54296875 -7.44921875 768.54296875 -7.44921875 772.54296875 C-89.66314343 784.08736655 -175.18827381 784.50738745 -256.44921875 765.54296875 C-255.18120282 758.4435123 -252.8657112 752.83393357 -249.51171875 746.48046875 C-248.51645899 744.53802942 -247.52437955 742.59395794 -246.53515625 740.6484375 C-246.0256543 739.64731934 -245.51615234 738.64620117 -244.99121094 737.61474609 C-237.66788344 723.02606552 -230.8791931 708.28226914 -226.44921875 692.54296875 C-226.11148438 691.40214844 -225.77375 690.26132812 -225.42578125 689.0859375 C-217.17475442 655.96828396 -227.91982898 623.04693515 -240.98486328 592.88769531 C-247.44921875 577.87519849 -247.44921875 577.87519849 -247.44921875 571.54296875 C-248.43921875 571.54296875 -249.42921875 571.54296875 -250.44921875 571.54296875 C-251.43921875 568.57296875 -252.42921875 565.60296875 -253.44921875 562.54296875 C-253.96484375 563.01734375 -254.48046875 563.49171875 -255.01171875 563.98046875 C-258.5902516 566.27440006 -262.20407851 566.94974702 -266.43676758 566.18286133 C-268.51260985 565.60162549 -270.53888535 564.94033456 -272.57421875 564.23046875 C-273.26386719 564.00423828 -273.95351563 563.77800781 -274.6640625 563.54492188 C-278.31149042 562.33492428 -281.89939489 561.01400471 -285.44921875 559.54296875 C-285.87332031 560.02765625 -286.29742188 560.51234375 -286.734375 561.01171875 C-287.97863964 562.43373548 -289.22632594 563.85276218 -290.4765625 565.26953125 C-291.68214582 566.65893619 -292.86752637 568.06663565 -294.015625 569.50390625 C-299.27055419 575.95732807 -305.79953051 580.64147865 -312.44921875 585.54296875 C-314.05416251 586.75026973 -315.6584784 587.95840663 -317.26171875 589.16796875 C-318.31359375 589.95171875 -319.36546875 590.73546875 -320.44921875 591.54296875 C-324.74687423 587.79153807 -327.43895956 583.10827716 -330.38671875 578.29296875 C-331.23617065 576.90609863 -331.23617065 576.90609863 -332.1027832 575.49121094 C-350.86757967 544.53693947 -365.69471636 514.1385118 -365.63671875 477.41796875 C-365.63581238 476.35734726 -365.63581238 476.35734726 -365.6348877 475.27529907 C-365.59759532 459.11655714 -364.40924574 443.36742148 -361.87646484 427.40527344 C-358.92471744 408.76568019 -359.06689081 391.45566333 -360.73681641 372.68530273 C-361.17036595 367.7664791 -361.47480367 362.97712605 -361.33203125 358.0390625 C-361.27156792 351.82477553 -362.71111036 346.1989698 -364.32421875 340.23046875 C-364.72833984 338.66329102 -364.72833984 338.66329102 -365.140625 337.06445312 C-365.88313266 334.21575912 -366.66051974 331.37914769 -367.44921875 328.54296875 C-367.76117188 327.35316406 -368.073125 326.16335938 -368.39453125 324.9375 C-369.70265295 321.96757924 -370.54510112 321.82583115 -373.44921875 320.54296875 C-375.48782665 318.61933049 -377.44794893 316.68661299 -379.38671875 314.66796875 C-382.26874627 311.68806105 -385.05965362 308.8484893 -388.328125 306.28515625 C-389.02808594 305.71023438 -389.72804688 305.1353125 -390.44921875 304.54296875 C-390.44921875 303.88296875 -390.44921875 303.22296875 -390.44921875 302.54296875 C-391.53203125 302.20265625 -391.53203125 302.20265625 -392.63671875 301.85546875 C-396.81291096 299.90657905 -399.32210561 296.85594833 -402.296875 293.390625 C-406.3695365 288.67449868 -410.20801321 284.92791399 -415.44921875 281.54296875 C-415.38671875 278.73046875 -415.38671875 278.73046875 -414.44921875 275.54296875 C-408.98199732 271.97738955 -402.83872111 271.42894889 -396.44921875 272.54296875 C-390.36714692 275.39589935 -385.83950891 280.84111711 -382.44921875 286.54296875 C-382.44921875 287.20296875 -382.44921875 287.86296875 -382.44921875 288.54296875 C-381.43859375 288.64609375 -380.42796875 288.74921875 -379.38671875 288.85546875 C-375.22980292 289.58127945 -372.274363 290.83014906 -368.44921875 292.54296875 C-368.94980385 273.65722484 -368.94980385 273.65722484 -372.05859375 255.06640625 C-373.55949431 248.83969716 -373.35852711 243.32571071 -372.80078125 236.95703125 C-372.51239534 233.6398222 -372.34429703 230.33140673 -372.22265625 227.00390625 C-372.18696533 226.03936523 -372.15127441 225.07482422 -372.11450195 224.08105469 C-372.04764029 222.1860585 -371.98599892 220.29086847 -371.93041992 218.39550781 C-371.36017027 203.40842142 -371.36017027 203.40842142 -366.82421875 198.98046875 C-366.04046875 198.50609375 -365.25671875 198.03171875 -364.44921875 197.54296875 C-359.87621329 199.51767565 -357.0996588 201.28333295 -354.44921875 205.54296875 C-352.24424682 212.59557559 -351.8481006 219.6344673 -351.38671875 226.98046875 C-351.23071377 229.33343642 -351.07319261 231.68630412 -350.9140625 234.0390625 C-350.83913574 235.15579346 -350.76420898 236.27252441 -350.68701172 237.4230957 C-350.48119501 240.12343622 -350.21263561 242.79986053 -349.890625 245.48828125 C-349.47324075 249.00669687 -349.37541942 252.43348826 -349.44921875 255.98046875 C-349.64103608 259.91619734 -349.64103608 259.91619734 -348.44921875 263.54296875 C-347.65513122 259.77264115 -346.86440607 256.00161552 -346.07421875 252.23046875 C-345.8525 251.17794922 -345.63078125 250.12542969 -345.40234375 249.04101562 C-344.33309782 243.93064903 -343.3074807 238.82254666 -342.40625 233.6796875 C-341.67570522 229.58605401 -340.7024314 225.65613882 -339.51171875 221.66796875 C-336.87372807 212.11389765 -335.68065816 202.36185369 -334.44921875 192.54296875 C-328.32249673 193.49419604 -325.94777021 196.57344397 -322.26171875 201.41796875 C-315.57892669 212.94002402 -318.11336533 225.24918935 -321.32421875 237.48046875 C-321.60023926 238.51719727 -321.87625977 239.55392578 -322.16064453 240.62207031 C-324.68864456 250.158909 -326.63328252 259.62193164 -326.44921875 269.54296875 C-325.64484375 268.86234375 -324.84046875 268.18171875 -324.01171875 267.48046875 C-320.46285811 265.11736486 -317.68858106 265.23911339 -313.5703125 265.93359375 C-310.42873347 266.83614684 -308.61248719 268.10929175 -306.44921875 270.54296875 C-305.63671875 273.29296875 -305.63671875 273.29296875 -305.44921875 275.54296875 C-304.89234375 275.28 -304.33546875 275.01703125 -303.76171875 274.74609375 C-297.7691345 272.27617727 -297.7691345 272.27617727 -294.24609375 272.98828125 C-289.16445328 275.29635459 -286.06891845 278.63467515 -283.44921875 283.54296875 C-282.49644855 286.65676697 -282.03904034 289.75420836 -281.63671875 292.98046875 C-281.51619141 293.78806641 -281.39566406 294.59566406 -281.27148438 295.42773438 C-278.58214676 314.49897997 -285.25634908 334.26667675 -295.28125 350.51171875 C-295.66667969 351.18203125 -296.05210937 351.85234375 -296.44921875 352.54296875 C-295.81396299 354.22185896 -295.14235783 355.8871365 -294.44921875 357.54296875 C-294.56148119 364.61550219 -294.56148119 364.61550219 -297.98046875 368.1875 C-301.47243573 372.20693547 -301.08129193 376.18221054 -300.88671875 381.29296875 C-300.86931641 382.2372876 -300.85191406 383.18160645 -300.83398438 384.15454102 C-300.58142142 394.10730241 -299.7534723 404.03032869 -298.88671875 413.9453125 C-298.52723623 418.16852998 -298.35280095 422.30661151 -298.44921875 426.54296875 C-297.78921875 426.54296875 -297.12921875 426.54296875 -296.44921875 426.54296875 C-296.17464844 425.95918457 -295.90007812 425.37540039 -295.6171875 424.77392578 C-294.48405935 422.60951838 -293.23872709 420.78951755 -291.76171875 418.84765625 C-279.00591903 401.92793184 -279.00591903 401.92793184 -270.23828125 382.7734375 C-266.82321528 376.60693192 -259.99037885 375.64573032 -253.5625 373.75390625 C-251.29743773 373.13506068 -249.03037379 372.52351083 -246.76171875 371.91796875 C-245.52728027 371.57878418 -244.2928418 371.23959961 -243.02099609 370.89013672 C-236.4169012 369.08303531 -229.79664085 367.36749871 -223.14073181 365.76119995 C-219.77509872 364.94665105 -216.41486483 364.11083873 -213.05453491 363.27471924 C-211.42816022 362.87686527 -209.7991227 362.48971052 -208.16738892 362.11444092 C-194.95814115 359.0739526 -181.52607325 354.17242466 -173.44921875 342.54296875 C-172.44873803 340.6040985 -172.44873803 340.6040985 -171.81640625 338.65234375 C-171.56842285 337.94698486 -171.32043945 337.24162598 -171.06494141 336.51489258 C-170.82050293 335.78165771 -170.57606445 335.04842285 -170.32421875 334.29296875 C-170.06560059 333.53588623 -169.80698242 332.77880371 -169.54052734 331.9987793 C-167.15873685 324.90750478 -165.06038664 318.12519487 -165.44921875 310.54296875 C-165.98546875 310.8575 -166.52171875 311.17203125 -167.07421875 311.49609375 C-177.90781558 317.41180781 -190.15511292 320.0876315 -202.44921875 320.54296875 C-203.15691406 320.58292969 -203.86460937 320.62289063 -204.59375 320.6640625 C-211.93610413 320.89563953 -219.20585213 319.61181863 -226.44921875 318.54296875 C-225.19707803 314.78654659 -223.84379423 314.23306207 -220.57421875 312.10546875 C-217.15758133 309.87917585 -214.71407711 307.95525535 -212.44921875 304.54296875 C-213.35800781 304.74792969 -214.26679687 304.95289063 -215.203125 305.1640625 C-233.6698626 309.12257343 -250.67924391 309.24434459 -268.88671875 304.16796875 C-269.61487793 303.97122559 -270.34303711 303.77448242 -271.09326172 303.57177734 C-276.15906776 302.0448801 -276.15906776 302.0448801 -277.65649414 299.45458984 C-277.91809326 298.82375488 -278.17969238 298.19291992 -278.44921875 297.54296875 C-277.87888916 297.21498291 -277.30855957 296.88699707 -276.72094727 296.54907227 C-274.15026033 295.06950436 -271.58097476 293.58751993 -269.01171875 292.10546875 C-268.11388672 291.58919922 -267.21605469 291.07292969 -266.29101562 290.54101562 C-265.43701172 290.04794922 -264.58300781 289.55488281 -263.703125 289.046875 C-262.91236572 288.59127197 -262.12160645 288.13566895 -261.30688477 287.66625977 C-259.50336352 286.67684805 -259.50336352 286.67684805 -258.44921875 285.54296875 C-259.04460449 285.42703369 -259.63999023 285.31109863 -260.25341797 285.19165039 C-262.94428271 284.66593077 -265.63425055 284.1357558 -268.32421875 283.60546875 C-269.26136719 283.42306641 -270.19851563 283.24066406 -271.1640625 283.05273438 C-272.50791016 282.78686523 -272.50791016 282.78686523 -273.87890625 282.515625 C-274.70632324 282.35328369 -275.53374023 282.19094238 -276.38623047 282.02368164 C-278.44921875 281.54296875 -278.44921875 281.54296875 -280.44921875 280.54296875 C-280.2790625 280.00671875 -280.10890625 279.47046875 -279.93359375 278.91796875 C-279.40117965 277.1961189 -278.88652678 275.46874466 -278.3828125 273.73828125 C-277.73943103 271.53624759 -277.06285946 269.34373167 -276.359375 267.16015625 C-273.54516329 257.56579746 -273.13827447 248.96219725 -273.94848633 238.96826172 C-274.29458405 231.72949933 -274.29458405 231.72949933 -271.80859375 228.24023438 C-269.76975289 226.22231446 -267.64672692 224.38482894 -265.44921875 222.54296875 C-263.91233111 220.74044621 -262.40350801 218.91276923 -260.94921875 217.04296875 C-260.27890625 216.18703125 -259.60859375 215.33109375 -258.91796875 214.44921875 C-258.1909375 213.505625 -258.1909375 213.505625 -257.44921875 212.54296875 C-258.31546875 211.59421875 -259.18171875 210.64546875 -260.07421875 209.66796875 C-270.49131674 197.43279233 -274.59359231 184.06797958 -274.76171875 168.23046875 C-274.79072266 167.33134766 -274.81972656 166.43222656 -274.84960938 165.50585938 C-274.8954033 160.63409024 -274.49369478 157.14181661 -272.3046875 152.75 C-270.56884709 149.29718794 -270.56884709 149.29718794 -271.015625 145.41015625 C-271.48871094 144.46398437 -271.96179688 143.5178125 -272.44921875 142.54296875 C-272.91199219 141.45242187 -273.37476563 140.361875 -273.8515625 139.23828125 C-274.35816406 138.06007812 -274.86476563 136.881875 -275.38671875 135.66796875 C-288.87465914 102.3334875 -281.29696735 58.70721342 -268.04296875 26.19140625 C-261.76178432 11.81242032 -254.18005932 -0.69417243 -240.07421875 -8.26953125 C-230.00765465 -11.5671988 -220.139065 -10.83781602 -210.57421875 -6.26953125 C-209.89617187 -5.90472656 -209.218125 -5.53992187 -208.51953125 -5.1640625 C-205.75142696 -4.21872877 -204.2204293 -4.57351933 -201.44921875 -5.45703125 C-199.27240296 -6.76088497 -199.27240296 -6.76088497 -197.13671875 -8.45703125 C-139.52726242 -50.10653449 -52.7993183 -50.55889461 0 0 Z " fill="#050402" transform="translate(846.44921875,41.45703125)"/>
<path d="M0 0 C1.02574209 2.68992541 1.88162141 5.30673335 2.6875 8.0625 C12.85799094 40.37405971 35.00001982 64.66953842 64.73046875 80.44921875 C66.47283021 81.32810905 68.2334488 82.1708025 70 83 C70 83.99 70 84.98 70 86 C79.16677784 81.6213282 87.94039187 77.26355313 96 71 C96.58523438 70.57847656 97.17046875 70.15695312 97.7734375 69.72265625 C110.65080215 59.77746148 122.44487461 41.12372226 125 25 C125.56598271 19.0113639 125.81012349 13.0105737 126 7 C139.01473975 11.76937668 151.52507726 17.48406116 164 23.5 C164.75044586 23.85826874 165.50089172 24.21653748 166.27407837 24.58566284 C187.22527577 34.61064745 203.75658266 46.12246075 212.78393555 68.40332031 C214.93920349 74.77782489 216.11630617 81.33276223 217.33840942 87.93930054 C218.16203104 92.3879176 219.02848223 96.82824766 219.890625 101.26953125 C220.06501602 102.17310867 220.23940704 103.0766861 220.41908264 104.00764465 C221.98004757 112.03866604 223.74173328 120.01667713 225.5617981 127.99234009 C228.57922952 141.2212582 231.34746305 154.48107443 233.875 167.8125 C234.02043243 168.57323822 234.16586487 169.33397644 234.31570435 170.11776733 C236.20679162 180.0462798 237.77201746 189.96659571 239 200 C222.28892015 205.38438609 206.27654863 210.21232605 188.5625 210.0625 C187.54478516 210.05798828 186.52707031 210.05347656 185.47851562 210.04882812 C182.98561491 210.03712437 180.49283926 210.02072848 178 210 C178.06662842 209.21802246 178.13325684 208.43604492 178.2019043 207.63037109 C181.05080504 173.55574687 179.09651707 141.73407778 163.3203125 110.6953125 C162 108 162 108 162 106 C161.34 106 160.68 106 160 106 C157.25071238 117.15887328 161.39928057 126.2237937 165.16357422 136.62548828 C177.89169352 172.7590809 172.02450009 212.65806065 162.109375 248.57421875 C161.71593399 250.00188316 161.71593399 250.00188316 161.31454468 251.45838928 C159.98769892 256.26171538 158.64571474 261.06000342 157.27783203 265.85180664 C152.79698075 281.71669199 149.39298612 297.42890557 149.625 314 C149.63587646 315.10174561 149.64675293 316.20349121 149.65795898 317.33862305 C150.22918417 347.0099992 161.2088813 371.82362775 176 397 C173.18194623 399.81805377 170.96192629 399.56230891 167.01953125 400 C166.30833633 400.08066711 165.59714142 400.16133423 164.86439514 400.2444458 C162.51478862 400.50692774 160.16396222 400.75472973 157.8125 401 C157.00113586 401.08648804 156.18977173 401.17297607 155.3538208 401.26208496 C113.86343587 405.66913431 72.59318695 406.22427806 31 403 C29.50533203 402.88785156 29.50533203 402.88785156 27.98046875 402.7734375 C1.37596057 400.71815361 -24.84874168 396.14417183 -51 391 C-49.56967433 387.23727561 -47.87235508 383.72391892 -45.98828125 380.16796875 C-45.10366211 378.48779663 -45.10366211 378.48779663 -44.20117188 376.77368164 C-43.89236084 376.18813507 -43.5835498 375.6025885 -43.26538086 374.9992981 C-23.76608992 337.92354214 -11.31623507 298.91060391 -23.48144531 257.03759766 C-26.03534851 249.08639833 -29.85796802 241.71239339 -33.54638672 234.2409668 C-43.96034054 213.04009429 -49.15532929 192.01901046 -49.25 168.375 C-49.270625 167.11042969 -49.29125 165.84585938 -49.3125 164.54296875 C-49.37275732 149.76486062 -45.6765634 136.15687802 -41.5 122.125 C-41.10492058 120.77620211 -40.71038807 119.4272439 -40.31640625 118.078125 C-39.92993371 116.76294846 -39.54321924 115.44784298 -39.15625 114.1328125 C-38.79015625 112.88790039 -38.4240625 111.64298828 -38.046875 110.36035156 C-37.18947481 107.60819293 -36.21572505 104.98106595 -35.15625 102.3046875 C-33.8750775 98.61582498 -34.04166396 95.5972612 -34.42773438 91.73095703 C-34.53098022 90.65605011 -34.63422607 89.58114319 -34.74060059 88.47366333 C-34.82620239 87.65735443 -34.9118042 86.84104553 -35 86 C-37.04995595 93.03786102 -39.09390172 100.07744893 -41.1340332 107.11816406 C-41.82606942 109.50396493 -42.51938913 111.88939394 -43.21411133 114.27441406 C-47.4394007 128.7837832 -51.47698783 143.30310632 -55 158 C-55.33 158 -55.66 158 -56 158 C-56.06469482 157.36199463 -56.12938965 156.72398926 -56.19604492 156.06665039 C-59.23987709 126.96865995 -65.85519212 102.90111615 -88.5625 82.92578125 C-91.38032561 80.69951839 -94.28096965 78.93908325 -97.50390625 77.36328125 C-99 76 -99 76 -99.97265625 73.20703125 C-100.00935734 68.90251768 -98.6612101 67.61538855 -95.875 64.375 C-91.36480848 58.87683076 -87.28022629 53.19355006 -83.375 47.25 C-82.80523438 46.39929932 -82.23546875 45.54859863 -81.6484375 44.67211914 C-79.01864559 40.62919632 -76.7964151 36.8678565 -75.34375 32.25390625 C-73.55566312 26.6393256 -71.92237103 21.7550059 -66.65673828 18.59277344 C-60.7601583 15.99118867 -54.60258089 14.31801813 -48.37390137 12.70646667 C-42.74041508 11.24338329 -37.20367398 9.53328095 -31.66015625 7.76171875 C-29.87903661 7.19556527 -28.09786799 6.62956591 -26.31665039 6.0637207 C-25.43719757 5.78420563 -24.55774475 5.50469055 -23.65164185 5.21670532 C-19.39728119 3.8662522 -15.14092632 2.52444542 -10.875 1.2109375 C-10.12303848 0.97191208 -9.37107697 0.73288666 -8.59632874 0.48661804 C-3.34365092 -1.11455031 -3.34365092 -1.11455031 0 0 Z " fill="#C9DD7C" transform="translate(650,408)"/>
<path d="M0 0 C0.96292969 0.82628906 1.92585937 1.65257813 2.91796875 2.50390625 C10.68563611 8.85832961 19.24441673 13.42396846 28.10546875 18.06640625 C28.75322266 18.41413086 29.40097656 18.76185547 30.06835938 19.12011719 C38.69885801 23.7516675 47.5825905 27.59939176 56.66796875 31.25390625 C57.672229 31.65802734 58.67648926 32.06214844 59.71118164 32.47851562 C73.19922792 37.80271575 86.47058252 41.88026951 100.66796875 44.69140625 C101.40437592 44.84015198 102.14078308 44.98889771 102.89950562 45.14215088 C119.5079302 48.49403008 136.16921044 51.13970532 153.10546875 52.06640625 C154.75090116 55.79361217 155.58120835 59.24177506 156.18359375 63.265625 C156.37171631 64.46662842 156.55983887 65.66763184 156.75366211 66.9050293 C156.9522583 68.17515869 157.15085449 69.44528809 157.35546875 70.75390625 C160.81536582 95.22426529 160.81536582 95.22426529 173.78125 115.3984375 C176.90213037 119.32945791 174.95716445 126.34501895 174.45361328 131.12744141 C169.81524123 170.28362847 163.28522731 217.32168979 137.10546875 248.06640625 C136.46867188 248.8965625 135.831875 249.72671875 135.17578125 250.58203125 C131.41827371 255.0910403 126.72554034 258.48127644 122.10546875 262.06640625 C121.08453125 262.86433594 120.06359375 263.66226562 119.01171875 264.484375 C105.90312485 274.43657055 91.07727827 281.74013665 75.85546875 287.87890625 C74.58884399 288.41281982 74.58884399 288.41281982 73.29663086 288.95751953 C67.25917218 291.26978881 63.18544395 291.17523885 57.10546875 289.06640625 C56.43209473 288.83381104 55.7587207 288.60121582 55.06494141 288.36157227 C53.03194362 287.60684983 51.03840447 286.79028404 49.04296875 285.94140625 C48.314729 285.63428711 47.58648926 285.32716797 46.83618164 285.01074219 C32.85713387 279.02985224 20.42080025 271.9935995 8.10546875 263.06640625 C7.18765625 262.41800781 6.26984375 261.76960938 5.32421875 261.1015625 C3.53976705 259.81663161 1.81209301 258.45303847 0.10546875 257.06640625 C0.10546875 256.40640625 0.10546875 255.74640625 0.10546875 255.06640625 C-0.466875 254.82535156 -1.03921875 254.58429688 -1.62890625 254.3359375 C-18.76241087 244.7352668 -26.50833981 218.72864565 -31.69921875 201.2109375 C-38.54487934 176.75903519 -44.22826419 151.03343045 -46.01953125 125.69140625 C-46.10589844 124.55574219 -46.19226563 123.42007813 -46.28125 122.25 C-46.50734202 119.18878583 -46.73276173 116.13170462 -46.89453125 113.06640625 C-46.98516846 111.53185791 -46.98516846 111.53185791 -47.07763672 109.96630859 C-46.8721001 106.71115671 -46.23468018 105.41950818 -44.33203125 102.81640625 C-43.78675781 102.0495752 -43.24148438 101.28274414 -42.6796875 100.49267578 C-42.09058594 99.69200684 -41.50148438 98.89133789 -40.89453125 98.06640625 C-37.13650605 92.84456962 -33.6059314 87.77292129 -30.77880859 81.98706055 C-27.86865087 76.07756025 -25.4546129 73.21816564 -19.26953125 70.75390625 C-6.70384629 66.90509475 3.84911463 67.26345752 16.10546875 72.06640625 C17.79625889 73.02505451 19.47218128 74.01276978 21.10546875 75.06640625 C19.90752655 71.65687844 18.93380675 69.343612 16.10546875 67.06640625 C4.03886608 62.20398819 -7.65375976 61.03971428 -19.74169922 66.13476562 C-20.45213379 66.44220703 -21.16256836 66.74964844 -21.89453125 67.06640625 C-21.71422363 66.4122876 -21.53391602 65.75816895 -21.34814453 65.08422852 C-11.94613797 31.87996791 -11.94613797 31.87996791 -14.89453125 -1.93359375 C-9.38815773 -3.43533198 -4.81131578 -3.21403686 0 0 Z " fill="#FBCAA3" transform="translate(657.89453125,62.93359375)"/>
<path d="M0 0 C2.50306996 2.21776564 4.9499258 4.48301341 7.3828125 6.77734375 C8.05957031 7.38964844 8.73632812 8.00195312 9.43359375 8.6328125 C30.25771875 28.2049861 41.73027163 56.32570571 42.66796875 84.55078125 C42.91400661 97.60401568 42.49118026 110.0804517 39.3828125 122.77734375 C39.22232422 123.44572266 39.06183594 124.11410156 38.89648438 124.80273438 C37.16084131 131.95630637 35.16733198 138.95527101 32.3828125 145.77734375 C23.66869797 146.28332459 15.20115616 146.10845794 7.3828125 141.77734375 C5.7265625 139.35546875 5.7265625 139.35546875 4.3828125 136.77734375 C3.43901587 135.57825787 2.48082403 134.39034687 1.5078125 133.21484375 C-5.8396241 123.4303861 -8.19192086 111.51511271 -10.6171875 99.77734375 C-10.84583496 98.69138916 -10.84583496 98.69138916 -11.07910156 97.58349609 C-12.60847478 90.24547749 -13.78325277 83.29179731 -13.6171875 75.77734375 C-10.6471875 76.10734375 -7.6771875 76.43734375 -4.6171875 76.77734375 C-4.9471875 74.79734375 -5.2771875 72.81734375 -5.6171875 70.77734375 C-12.29734227 69.59256158 -18.91111126 68.72407516 -25.67236328 68.22729492 C-74.21624553 64.53990487 -131.93569435 51.05762283 -170.71411133 20.10351562 C-172.59290037 18.48942706 -172.59290037 18.48942706 -175.2421875 19.02734375 C-177.60128895 19.70392987 -177.60128895 19.70392987 -179.6171875 20.77734375 C-181.23987741 20.87346127 -182.86666056 20.90716727 -184.4921875 20.90234375 C-185.35585938 20.90492187 -186.21953125 20.9075 -187.109375 20.91015625 C-189.42384721 20.78758296 -191.40007866 20.4270082 -193.6171875 19.77734375 C-193.1221875 20.84984375 -192.6271875 21.92234375 -192.1171875 23.02734375 C-184.89270705 43.04157427 -195.94850608 73.17393453 -204.6171875 91.74609375 C-213.01002021 109.00364534 -227.18215687 135.19499557 -244.6171875 144.77734375 C-247.16796875 144.8046875 -247.16796875 144.8046875 -249.6171875 143.77734375 C-254.32732985 137.32349182 -256.6867016 129.63209482 -257.6171875 121.77734375 C-257.72675781 120.87757813 -257.83632813 119.9778125 -257.94921875 119.05078125 C-261.74674853 81.48055325 -255.84571823 37.87269705 -232.63671875 7.15625 C-230.86073982 5.06423614 -229.29746612 3.57270352 -227.0546875 2.02734375 C-226.47589844 1.62 -225.89710938 1.21265625 -225.30078125 0.79296875 C-221.7630156 -1.34118222 -218.64965066 -1.38637993 -214.6171875 -1.41015625 C-213.36035156 -1.41789062 -212.10351562 -1.425625 -210.80859375 -1.43359375 C-207.84934583 -1.35917375 -205.10551694 -0.98098751 -202.20703125 -0.38671875 C-187.67478447 2.40800344 -178.81253654 -2.54788177 -166.6171875 -10.22265625 C-160.35250763 -14.13709329 -154.18153238 -17.56870767 -147.3046875 -20.28515625 C-146.45366455 -20.62240723 -145.6026416 -20.9596582 -144.72583008 -21.30712891 C-97.54872346 -39.33972738 -39.15850037 -33.25550255 0 0 Z " fill="#69311E" transform="translate(832.6171875,40.22265625)"/>
<path d="M0 0 C3.76145644 2.67261378 5.87642938 4.47485018 7 9 C7.32626052 12.27550382 7.38032076 15.52219828 7.375 18.8125 C7.37483887 19.7408667 7.37467773 20.6692334 7.37451172 21.62573242 C7.2337221 30.25465411 5.4875541 37.76565121 3 46 C1.51333582 51.34122788 0.50370223 56.61805799 -0.125 62.125 C-0.21136719 62.85565674 -0.29773438 63.58631348 -0.38671875 64.33911133 C-1.03289239 70.24890774 -1.10282118 76.0045099 -0.875 81.94921875 C-1.01184956 85.28920326 -1.80712778 87.89200872 -3 91 C-1.02 91.495 -1.02 91.495 1 92 C1 90.35 1 88.7 1 87 C1.639375 86.7525 2.27875 86.505 2.9375 86.25 C3.618125 85.8375 4.29875 85.425 5 85 C5.11988281 84.37222656 5.23976563 83.74445313 5.36328125 83.09765625 C6.24886187 80.18012992 7.61726474 79.6302738 10.25 78.1875 C11.01828125 77.74792969 11.7865625 77.30835938 12.578125 76.85546875 C15.50501258 75.82161652 17.07451962 76.04647312 20 77 C21.78465237 79.27137574 22 80.62038165 22 83.5 C21 86 21 86 17.9375 87.875 C16.968125 88.57625 15.99875 89.2775 15 90 C14.49874717 93.66857722 14.49874717 93.66857722 15 97 C15.66 97.33 16.32 97.66 17 98 C17.05800781 97.07832031 17.11601563 96.15664063 17.17578125 95.20703125 C18 92 18 92 20.29296875 90.13671875 C21.24816406 89.65847656 22.20335937 89.18023437 23.1875 88.6875 C24.60095703 87.95080078 24.60095703 87.95080078 26.04296875 87.19921875 C29.05341314 85.9783384 31.78575797 85.4047564 35 85 C40.03142458 92.39350559 40.03142458 92.39350559 41.125 96.9375 C41.41375 97.948125 41.7025 98.95875 42 100 C43.485 100.495 43.485 100.495 45 101 C45.40342247 121.850572 40.90765163 140.80664392 30.671875 158.953125 C28.92963268 161.91254253 28.92963268 161.91254253 28 165 C28.99 164.34 29.98 163.68 31 163 C30.46515599 168.34844008 28.53309233 172.35796103 26 177 C26.99 177 27.98 177 29 177 C28.86722656 178.11117187 28.73445312 179.22234375 28.59765625 180.3671875 C28.41922268 181.86978595 28.24084002 183.37239044 28.0625 184.875 C27.97548828 185.60203125 27.88847656 186.3290625 27.79882812 187.078125 C27.52568474 189.38466914 27.26250724 191.69222306 27 194 C26.90734863 194.76505859 26.81469727 195.53011719 26.71923828 196.31835938 C23.61377454 223.83512671 24.71822948 251.91502236 38.70581055 276.15185547 C47.69661435 291.78331748 51.30815597 309.54958494 46.71606445 327.31860352 C43.74385376 337.03077153 38.39467918 345.47371567 33 354 C31.44522621 356.47127203 29.90179338 358.94883679 28.375 361.4375 C28.01043701 362.03071045 27.64587402 362.6239209 27.27026367 363.23510742 C23.82232903 369.00422581 21.14521532 375.07810534 18.56201172 381.27514648 C16.1931992 386.9034004 16.1931992 386.9034004 14 388 C13.78472656 386.82566406 13.56945312 385.65132812 13.34765625 384.44140625 C12.13046635 379.59500973 9.69175798 376.62864891 6.4375 372.9375 C0.39229646 365.73325367 -4.47600149 358.22990147 -9 350 C-9.55300781 349.00613281 -10.10601562 348.01226563 -10.67578125 346.98828125 C-29.82043891 310.72721131 -28.40390125 270.95666251 -21.01672363 231.83848572 C-14.75660236 197.85845101 -18.76722205 150.78760105 -38.5 121.625 C-39.1703125 120.75101562 -39.840625 119.87703125 -40.53125 118.9765625 C-42 117 -42 117 -42 115 C-42.55816406 114.73832031 -43.11632812 114.47664063 -43.69140625 114.20703125 C-51.14273332 110.31115973 -57.5578894 105.10564999 -62.9453125 98.6796875 C-68.0595394 92.71011952 -72.99899983 88.59550322 -80 85 C-75.52840917 82.01893945 -72.31717928 81.63329798 -67 82 C-62.74263422 83.80938046 -59.92339338 86.98793559 -56.734375 90.23828125 C-51.4867937 95.56859469 -46.25925983 98.54539629 -39.51171875 101.765625 C-37 103 -37 103 -36 104 C-35.76807135 105.51469448 -35.58784762 107.03754562 -35.4375 108.5625 C-35.35371094 109.38878906 -35.26992188 110.21507812 -35.18359375 111.06640625 C-35.12300781 111.70449219 -35.06242187 112.34257812 -35 113 C-34.01 113 -33.02 113 -32 113 C-32.01160156 112.16597656 -32.02320313 111.33195312 -32.03515625 110.47265625 C-32.0825096 104.56701687 -32.04510667 98.84067427 -31.12109375 93 C-30.97099301 90.52091686 -31.50905986 88.43741406 -32 86 C-32.1748622 83.31045284 -32.31970777 80.62929275 -32.4375 77.9375 C-32.75015315 71.77054905 -33.35912327 65.78967133 -34.5 59.7109375 C-35.59775758 53.75903312 -36.16678629 47.9556979 -36.203125 41.90625 C-36.20882507 41.15589478 -36.21452515 40.40553955 -36.22039795 39.63244629 C-36.22978544 38.05592229 -36.23635683 36.47937921 -36.24023438 34.90283203 C-36.24997363 32.50648719 -36.2810687 30.11098925 -36.3125 27.71484375 C-36.31902864 26.1744842 -36.32427966 24.63411859 -36.328125 23.09375 C-36.3404718 22.3862561 -36.3528186 21.67876221 -36.36553955 20.9498291 C-36.34293528 15.84611943 -35.32990753 12.4458296 -33 8 C-30.8125 6.5625 -30.8125 6.5625 -29 6 C-19.83035474 23.08888435 -21.91664843 50.09492823 -21.42944336 69.05883789 C-21.28036235 73.50281119 -20.9386831 76.9185619 -19 81 C-19.0625 83.1875 -19.0625 83.1875 -20 85 C-21.2375 85.4640625 -21.2375 85.4640625 -22.5 85.9375 C-23.325 86.288125 -24.15 86.63875 -25 87 C-25.89386164 89.54775306 -25.89386164 89.54775306 -26 92 C-23.66924071 91.04134491 -23.66924071 91.04134491 -22 88 C-21.67 88.99 -21.34 89.98 -21 91 C-20.67386719 90.33613281 -20.34773438 89.67226563 -20.01171875 88.98828125 C-19.57472656 88.10527344 -19.13773437 87.22226562 -18.6875 86.3125 C-18.25824219 85.44238281 -17.82898438 84.57226562 -17.38671875 83.67578125 C-16 81 -16 81 -14.46484375 78.62890625 C-12.67458908 75.41599588 -11.74066026 72.17088591 -10.875 68.625 C-10.70105713 67.93108154 -10.52711426 67.23716309 -10.34790039 66.5222168 C-8.90779064 60.40261537 -8.486964 54.4981043 -8.37109375 48.20703125 C-7.95441429 44.6060435 -6.85929007 43.07225549 -5 40 C-3.89185635 36.65285344 -3.09422401 33.24877299 -2.3125 29.8125 C-1.98052612 28.36593018 -1.98052612 28.36593018 -1.6418457 26.89013672 C0.28618738 17.85206406 0.51077243 9.19390377 0 0 Z " fill="#FACAA3" transform="translate(514,237)"/>
<path d="M0 0 C1.05316406 0.39832031 2.10632813 0.79664063 3.19140625 1.20703125 C23.78752827 8.84457942 40.78101125 10.32615814 62 4 C63.33197257 3.66127006 64.66503523 3.32673836 66 3 C66.03440186 3.58152832 66.06880371 4.16305664 66.10424805 4.76220703 C66.81085131 15.96049938 67.89051129 26.91752526 70.375 37.875 C70.57182373 38.75816895 70.76864746 39.64133789 70.97143555 40.55126953 C72.75806971 48.01154964 75.39534971 54.74691472 79.6875 61.125 C82.03338518 64.7877471 82.77568653 67.58850169 83 72 C83.05027344 72.80050781 83.10054687 73.60101563 83.15234375 74.42578125 C83.7935389 92.14841523 76.2635973 105.38404569 64.63793945 118.11962891 C61.80845291 121.13113806 58.91943738 124.07596574 56 127 C55.12287354 127.90455933 55.12287354 127.90455933 54.22802734 128.82739258 C50.70148391 132.43767085 47.1489005 135.65495936 43 138.5625 C41.5459375 139.61630859 41.5459375 139.61630859 40.0625 140.69140625 C37 142 37 142 33.55078125 141.47265625 C29.83366376 139.93101346 26.51863146 138.10547932 23.1875 135.875 C22.577854 135.47249023 21.96820801 135.06998047 21.34008789 134.65527344 C-4.13792103 117.61406868 -20.00005337 95.60936424 -28 66 C-28.36566671 64.00565826 -28.71151884 62.00696032 -29 60 C-28.21496094 59.50371094 -27.42992187 59.00742187 -26.62109375 58.49609375 C-12.96768966 49.66745086 -4.95115186 40.24566627 -1 24 C0.04896389 16.04370789 0.1445412 8.01400645 0 0 Z " fill="#FBCAA3" transform="translate(686,346)"/>
<path d="M0 0 C0.03734756 1.16258331 0.07469513 2.32516663 0.11317444 3.52297974 C1.11338253 33.7106766 3.22223333 63.67314401 6.13452148 93.73278809 C6.64309639 99.0072549 7.13842317 104.28296424 7.63476562 109.55859375 C8.39858276 117.66290664 9.1675138 125.76671386 9.94091797 133.87011719 C10.83475647 143.24411686 11.72398462 152.61850747 12.58772469 161.99533463 C12.71725799 163.39771715 12.84775299 164.80001126 12.97930717 166.20220566 C13.15689916 168.09696014 13.33062492 169.99207581 13.50415039 171.88720703 C13.60079483 172.93200226 13.69743927 173.97679749 13.79701233 175.05325317 C14.0031266 178.04538843 14.03549214 181.00177902 14 184 C15.32 184 16.64 184 18 184 C17.505 187.96 17.505 187.96 17 192 C10.98250227 193.04470447 5.10060363 193.19151851 -1 193.1875 C-2.01006104 193.18814453 -3.02012207 193.18878906 -4.06079102 193.18945312 C-12.18648668 193.13255321 -19.99953659 192.41556383 -28 191 C-28 190.01 -28 189.02 -28 188 C-27.34 188 -26.68 188 -26 188 C-27.09804963 173.36438862 -28.9530042 159.05225357 -31.625 144.625 C-31.98222901 142.66297694 -32.33915608 140.70089889 -32.69580078 138.73876953 C-33.77714096 132.82203323 -34.88379481 126.91024805 -36 121 C-36.16669189 120.11562256 -36.33338379 119.23124512 -36.50512695 118.32006836 C-40.31009354 98.18584925 -44.538567 78.15811226 -49.125 58.1875 C-49.32510681 57.3069696 -49.52521362 56.42643921 -49.73138428 55.51922607 C-50.31479105 52.96251577 -50.90850914 50.4084967 -51.5078125 47.85546875 C-51.6978183 47.03578613 -51.8878241 46.21610352 -52.08358765 45.37158203 C-53.10613255 41.12420922 -54.29814807 37.03853765 -55.81542969 32.93994141 C-60.90472338 19.07096856 -60.90472338 19.07096856 -57.875 11.8125 C-56.3046875 8.95703125 -56.3046875 8.95703125 -55 7 C-54.17612793 6.96559814 -53.35225586 6.93119629 -52.50341797 6.89575195 C-35.80383202 6.14681349 -19.95509699 4.89192494 -3.75463867 0.42724609 C-2 0 -2 0 0 0 Z " fill="#FBCAA3" transform="translate(882,617)"/>
<path d="M0 0 C0.09796875 1.17433594 0.1959375 2.34867187 0.296875 3.55859375 C3.01190693 33.7238613 12.39889618 59.11476976 32.5625 82.125 C35 85 35 85 35 87 C28.75446538 87.95580028 22.80729616 88.09112891 16.5 87.8125 C15.53892334 87.77060547 14.57784668 87.72871094 13.58764648 87.68554688 C6.2157082 87.26860285 -0.51397391 85.99593486 -7.58984375 83.9375 C-14.67805083 81.74575027 -14.67805083 81.74575027 -21.4375 83.9375 C-22.283125 84.618125 -23.12875 85.29875 -24 86 C-22.87980469 86.62648438 -21.75960937 87.25296875 -20.60546875 87.8984375 C-19.13277713 88.72389523 -17.66012282 89.54941954 -16.1875 90.375 C-15.44951172 90.7875 -14.71152344 91.2 -13.95117188 91.625 C-13.23896484 92.02460938 -12.52675781 92.42421875 -11.79296875 92.8359375 C-10.81106567 93.38580322 -10.81106567 93.38580322 -9.80932617 93.94677734 C-8.16823694 94.90206799 -6.5799656 95.9466896 -5 97 C-7.62607392 97.87535797 -9.39548626 98.17849751 -12.10546875 98.31640625 C-12.91653076 98.35846191 -13.72759277 98.40051758 -14.56323242 98.44384766 C-15.42924072 98.48300293 -16.29524902 98.5221582 -17.1875 98.5625 C-18.52421753 98.6251001 -18.52421753 98.6251001 -19.88793945 98.68896484 C-30.94995853 99.17245332 -42.00712512 99.5704107 -53 98 C-52.48553951 102.42436025 -51.38617933 105.26511061 -49 109 C-49 109.66 -49 110.32 -49 111 C-63.63631084 110.53461651 -73.99211987 107.16857337 -84.3359375 96.6171875 C-90 90.43640351 -90 90.43640351 -90 88 C-87.96307679 86.61049466 -85.92429513 85.32897072 -83.8125 84.0625 C-76.2549729 79.35612553 -69.55967146 74.00593296 -63 68 C-62.47631836 67.52159668 -61.95263672 67.04319336 -61.41308594 66.55029297 C-53.70132788 59.40915726 -47.60451512 51.93154001 -42 43 C-41.31164062 41.93394531 -40.62328125 40.86789062 -39.9140625 39.76953125 C-33.37369045 29.08191178 -28.9229178 17.1825429 -26 5 C-25.03320312 4.97421875 -24.06640625 4.9484375 -23.0703125 4.921875 C-15.29346345 4.58308158 -6.9578027 0 0 0 Z " fill="#68311E" transform="translate(853,255)"/>
<path d="M0 0 C1.175625 0.309375 2.35125 0.61875 3.5625 0.9375 C10.28196405 2.45584043 17.14044366 2.6565703 24 3 C24.268125 4.02996094 24.53625 5.05992187 24.8125 6.12109375 C30.05467506 25.49325077 39.4086669 47.96963221 55.4375 61 C57.55014829 62.72541113 59.47781361 64.48014062 61.40625 66.41796875 C69.09533977 74.07231866 77.89669945 80.16943926 87 86 C86 89 86 89 83.47265625 90.46484375 C68.16436462 97.07564094 52.52595844 99.51539853 36 101 C36.845625 100.01 37.69125 99.02 38.5625 98 C39.10390625 97.36578125 39.6453125 96.7315625 40.203125 96.078125 C41.42923 94.66010792 42.66952564 93.25426818 43.921875 91.859375 C44.54578125 91.16328125 45.1696875 90.4671875 45.8125 89.75 C46.39644531 89.10546875 46.98039063 88.4609375 47.58203125 87.796875 C49.20585428 85.94817973 49.20585428 85.94817973 50 83 C39.29871931 83.39329828 39.29871931 83.39329828 28.75 85.0625 C16.75238369 87.68449562 2.61171293 85.87057098 -9 82 C-9 81.34 -9 80.68 -9 80 C-7.36352539 78.79492188 -7.36352539 78.79492188 -5.09765625 77.46875 C-4.29005859 76.98792969 -3.48246094 76.50710938 -2.65039062 76.01171875 C-1.36938477 75.26341797 -1.36938477 75.26341797 -0.0625 74.5 C1.61600318 73.51504059 3.29192738 72.52566882 4.96484375 71.53125 C5.7137085 71.09361328 6.46257324 70.65597656 7.23413086 70.20507812 C9.14848163 69.10862419 9.14848163 69.10862419 10 67 C4.33443509 63.55139527 -1.57600973 62.8501188 -8.0625 61.875 C-10.19929769 61.53956501 -12.3360193 61.2036449 -14.47265625 60.8671875 C-15.41375244 60.72394043 -16.35484863 60.58069336 -17.32446289 60.43310547 C-19.89821634 60.01647634 -22.44705403 59.52823562 -25 59 C-24.48479875 54.56926925 -23.60256522 50.386707 -22.5 46.0625 C-21.38069077 41.51694842 -20.88871553 37.37939008 -20.84204102 32.73339844 C-20.72002793 24.02509239 -20.72002793 24.02509239 -18.515625 20.88671875 C-16.5625 19.3125 -16.5625 19.3125 -14.40234375 17.84765625 C-11.20846721 15.39122763 -9.02301189 12.46327457 -6.625 9.25 C-6.19646729 8.68192627 -5.76793457 8.11385254 -5.32641602 7.52856445 C-3.48032921 5.0598787 -1.71021985 2.56532978 0 0 Z " fill="#68311E" transform="translate(594,257)"/>
<path d="M0 0 C6.12672202 0.95122729 8.50144854 4.03047522 12.1875 8.875 C18.87029206 20.39705527 16.33585342 32.7062206 13.125 44.9375 C12.84897949 45.97422852 12.57295898 47.01095703 12.28857422 48.07910156 C9.76057419 57.61594025 7.81593623 67.07896289 8 77 C8.804375 76.319375 9.60875 75.63875 10.4375 74.9375 C13.98636064 72.57439611 16.76063769 72.69614464 20.87890625 73.390625 C24.02048528 74.29317809 25.83673156 75.566323 28 78 C28.8125 80.75 28.8125 80.75 29 83 C29.8353125 82.60554688 29.8353125 82.60554688 30.6875 82.203125 C36.68008425 79.73320852 36.68008425 79.73320852 40.203125 80.4453125 C45.28476547 82.75338584 48.3803003 86.0917064 51 91 C51.9527702 94.11379822 52.41017841 97.21123961 52.8125 100.4375 C52.99329102 101.64889648 52.99329102 101.64889648 53.17773438 102.88476562 C55.86707199 121.95601122 49.19286967 141.723708 39.16796875 157.96875 C38.78253906 158.6390625 38.39710938 159.309375 38 160 C38.63525576 161.67889021 39.30686092 163.34416775 40 165 C40 171.25523191 38.70381162 173.86967493 34.43359375 178.32421875 C32.44830334 180.64489882 31.71570853 183.06559504 31 186 C29.75453595 183.50907189 30.2232422 182.58919267 31 180 C30.01 180 29.02 180 28 180 C29.02080734 177.44798165 30.04219733 174.90153956 31.125 172.375 C32.17285268 169.95267129 32.17285268 169.95267129 32 167 C30.02 167.99 30.02 167.99 28 169 C28.54527344 168.03513672 28.54527344 168.03513672 29.1015625 167.05078125 C40.66619749 146.26409118 44.68677465 127.45471922 47 104 C46.36465332 103.88446777 45.72930664 103.76893555 45.07470703 103.64990234 C44.39005371 103.43543457 43.70540039 103.2209668 43 103 C41.8046875 100.6015625 41.8046875 100.6015625 40.875 97.625 C39.81094361 94.29212917 38.95685683 91.93528525 37 89 C31.95113829 89.37866463 28.88108699 91.12224121 24.83203125 93.94140625 C23 95 23 95 20 95 C19.67 96.98 19.34 98.96 19 101 C18.01 100.67 17.02 100.34 16 100 C15.5625 96.8125 15.5625 96.8125 16 93 C18.08545034 90.88841619 20.41206193 89.43260857 23 88 C22.505 84.535 22.505 84.535 22 81 C19.42846873 80.06489772 17.72243037 79.67289097 15.1796875 80.82421875 C13.44016645 81.86138089 11.71922872 82.92953683 10 84 C9.34 84 8.68 84 8 84 C7.67 85.65 7.34 87.3 7 89 C5.02 89.495 5.02 89.495 3 90 C3 91.65 3 93.3 3 95 C1.68 94.67 0.36 94.34 -1 94 C-1.08226668 90.95613276 -0.97608217 88.92824652 0 86 C-0.00582625 84.37447634 -0.05439131 82.74899985 -0.125 81.125 C-0.22349171 67.58238956 2.36560929 53.99743781 6.1328125 41.03125 C7.91877776 34.78841647 8.21428994 29.02155679 8.25 22.5625 C8.270625 21.63373047 8.29125 20.70496094 8.3125 19.74804688 C8.34300478 14.39064451 8.01974273 10.62489724 5 6 C4.34 5.34 3.68 4.68 3 4 C3.05800781 4.97195312 3.11601563 5.94390625 3.17578125 6.9453125 C3.53034278 15.86313868 2.68092922 24.04044869 0.6875 32.75 C0.36809448 34.15983154 0.36809448 34.15983154 0.04223633 35.59814453 C-0.86193187 39.32055616 -1.65631964 42.43019266 -3.64453125 45.7265625 C-5.46398295 48.77820772 -5.33581272 51.09030695 -5.375 54.625 C-5.68085615 61.08621127 -6.73741388 66.9946838 -8.375 73.25 C-8.58431152 74.07193848 -8.79362305 74.89387695 -9.00927734 75.74072266 C-10.11588476 79.78757499 -10.90287483 82.09314191 -14 85 C-14.95030432 86.69984012 -15.84403983 88.432191 -16.6875 90.1875 C-17.12449219 91.08855469 -17.56148438 91.98960937 -18.01171875 92.91796875 C-18.50091797 93.94857422 -18.50091797 93.94857422 -19 95 C-20.66666667 95 -22.33333333 95 -24 95 C-24.125 92.625 -24.125 92.625 -24 90 C-21.8614515 87.8614515 -20.86724686 87.57344937 -18 87 C-18.52268466 84.23723823 -19.10869587 81.6739124 -20 79 C-20.16378978 76.0184193 -20.28115716 73.04643036 -20.375 70.0625 C-20.75737375 60.20253729 -21.44125007 50.37634541 -22.24127197 40.54293823 C-22.3712756 38.94102258 -22.49887017 37.33890945 -22.6239624 35.73660278 C-22.803357 33.4513582 -22.99211728 31.16707305 -23.18359375 28.8828125 C-23.261791 27.86816673 -23.261791 27.86816673 -23.34156799 26.83302307 C-23.64384453 23.36938969 -24.17390969 20.08397751 -25.04321289 16.72607422 C-25.92593308 13.28844332 -26.17614788 10.52295765 -26 7 C-21.59337453 10.24698719 -19.49705881 12.35207922 -18.484375 17.74682617 C-18.01540664 20.89652546 -17.71994088 23.99964839 -17.5 27.17578125 C-17.37625 28.91311523 -17.37625 28.91311523 -17.25 30.68554688 C-17.12625 32.48088867 -17.12625 32.48088867 -17 34.3125 C-16.37273552 43.64669135 -16.37273552 43.64669135 -15.4375 52.953125 C-15.02263996 56.46849668 -14.92627181 59.89393871 -15 63.4375 C-15.19181733 67.37322859 -15.19181733 67.37322859 -14 71 C-13.20591247 67.2296724 -12.41518732 63.45864677 -11.625 59.6875 C-11.40328125 58.63498047 -11.1815625 57.58246094 -10.953125 56.49804688 C-9.88387907 51.38768028 -8.85826195 46.27957791 -7.95703125 41.13671875 C-7.22648647 37.04308526 -6.25321265 33.11317007 -5.0625 29.125 C-2.42450932 19.5709289 -1.23143941 9.81888494 0 0 Z " fill="#070402" transform="translate(512,234)"/>
<path d="M0 0 C1.0528418 0.07831055 1.0528418 0.07831055 2.12695312 0.15820312 C3.85588054 0.28757865 5.58425355 0.42432531 7.3125 0.5625 C9.22921412 5.70163743 10.15787814 10.79460139 11 16.1875 C11.14244141 17.033125 11.28488281 17.87875 11.43164062 18.75 C11.56119141 19.56726563 11.69074219 20.38453125 11.82421875 21.2265625 C11.94240967 21.96342285 12.06060059 22.7002832 12.18237305 23.45947266 C12.32181331 25.71301563 11.9715683 27.41453788 11.3125 29.5625 C10.74982422 28.00789063 10.74982422 28.00789063 10.17578125 26.421875 C9.6596507 25.051783 9.14267897 23.68200769 8.625 22.3125 C8.25858398 21.28962891 8.25858398 21.28962891 7.88476562 20.24609375 C6.18020718 15.80129579 4.56303353 13.07154028 0.3125 10.5625 C-2.86006104 10.07901039 -5.63729177 10.60102132 -8.6875 11.5625 C-11.63240403 13.83253019 -13.26641165 15.36401778 -14.5 18.875 C-14.561875 19.431875 -14.62375 19.98875 -14.6875 20.5625 C-13.6975 20.5625 -12.7075 20.5625 -11.6875 20.5625 C-11.44 19.964375 -11.1925 19.36625 -10.9375 18.75 C-9.44611278 16.14007237 -8.35230553 14.96892514 -5.6875 13.5625 C-2.57732223 13.42727488 -0.65577392 13.76373823 1.78515625 15.77734375 C10.35271556 25.1216951 14.38460708 35.49999602 16.1875 47.875 C16.48527344 49.70901367 16.48527344 49.70901367 16.7890625 51.58007812 C17.32352691 54.90423009 17.82705588 58.23088292 18.3125 61.5625 C18.42883789 62.35833496 18.54517578 63.15416992 18.66503906 63.97412109 C18.8854692 65.50292315 19.10007188 67.03256553 19.3125 68.5625 C8.41004616 67.24928097 0.63616935 65.25580541 -7.6875 57.5625 C-8.30238281 57.00433594 -8.91726563 56.44617188 -9.55078125 55.87109375 C-18.25064226 46.91217981 -20.65699499 31.10582989 -21.0625 19.125 C-20.8349863 13.63736955 -19.83317065 8.89078092 -16.03515625 4.76953125 C-10.74217946 0.0584462 -7.01381865 -0.56974997 0 0 Z " fill="#F6C7A3" transform="translate(596.6875,188.4375)"/>
<path d="M0 0 C2.43638232 2.10032958 2.94893544 2.84680631 4 6 C4.92886653 20.16140776 4.70690587 37.62565017 -5 49 C-13.75228769 58.93502927 -22.99398855 62.96777687 -36 64 C-35.81824219 63.35417969 -35.63648438 62.70835937 -35.44921875 62.04296875 C-33.48238134 54.66985005 -32.18105437 47.31997124 -31.1784668 39.7644043 C-30.46235045 34.74427725 -29.22377887 30.61268984 -27 26 C-26.55140625 25.04996094 -26.1028125 24.09992188 -25.640625 23.12109375 C-22.69245423 17.43178668 -19.79960057 12.15225349 -14 9 C-11.375 8.8125 -11.375 8.8125 -9 10 C-6.3125 12.5 -6.3125 12.5 -4 15 C-3.34 15.33 -2.68 15.66 -2 16 C-2.32502798 13.07474819 -2.85779109 11.21331336 -4.5 8.75 C-8.0506661 6.26453373 -11.68634354 5.59991382 -16 6 C-19.68390239 7.45123427 -21.24830927 9.04015445 -22.80078125 12.57421875 C-23.32162736 13.93896741 -23.82518651 15.31042152 -24.3125 16.6875 C-24.57611328 17.38939453 -24.83972656 18.09128906 -25.11132812 18.81445312 C-25.7559683 20.53740051 -26.3800629 22.26801078 -27 24 C-27.33 24 -27.66 24 -28 24 C-27.23945318 14.56921949 -25.61328437 5.31443428 -24 -4 C-7.48895142 -6.06248448 -7.48895142 -6.06248448 0 0 Z " fill="#F6C8A3" transform="translate(864,193)"/>
<path d="M0 0 C0.99 1.485 0.99 1.485 2 3 C-12.24600333 16.77271418 -27.62291464 31.425133 -48.48828125 31.21484375 C-65.87832381 30.15093681 -79.38787988 20.61535233 -90.78710938 8.02636719 C-92.21212425 6.36663415 -93.61845323 4.69599855 -95 3 C-94.34 2.67 -93.68 2.34 -93 2 C-91.07421875 2.671875 -91.07421875 2.671875 -88.6875 3.75 C-79.18631666 7.70654465 -69.25079788 9.51831787 -59 10 C-57.72962891 10.061875 -57.72962891 10.061875 -56.43359375 10.125 C-37.80684628 10.56915493 -17.383743 6.64256847 0 0 Z " fill="#F9FAF9" transform="translate(768,269)"/>
<path d="M0 0 C3 1 3 1 4 3 C6.3727086 3.92466753 6.3727086 3.92466753 9 4 C10.7087646 2.62485459 10.7087646 2.62485459 12 1 C12.66 1 13.32 1 14 1 C13.67 2.98 13.34 4.96 13 7 C16.34373475 6.44271087 19.03312999 5.64826111 22 4 C21.7215625 5.3921875 21.7215625 5.3921875 21.4375 6.8125 C20.75876119 10.01343771 20.75876119 10.01343771 22 13 C14.5928819 12.37727768 7.31805865 11.29512034 0 10 C0.33128906 10.56847656 0.66257812 11.13695312 1.00390625 11.72265625 C2.67369747 15.54025736 2.07910428 19.05033726 1 23 C-2.30628769 27.57045651 -5.52751105 28.96211416 -11 30 C-16.23916132 30.45957555 -19.57854186 29.91414287 -24 27 C-27.02690956 23.26681155 -27.11644424 20.69011512 -27 16 C-36.87896835 20.79574275 -36.87896835 20.79574275 -45 28 C-46.04073136 31.21302578 -46.04073136 31.21302578 -46 34 C-33.61013685 41.63415811 -20.52853048 45.57034519 -6.0390625 42.33984375 C3.48991118 38.9533931 9.24695606 32.20339973 14.65234375 23.94140625 C15.09707031 23.30074219 15.54179688 22.66007812 16 22 C16.33 22 16.66 22 17 22 C17.6667455 28.40075682 15.99097329 32.01128339 12 37 C5.19773356 44.70682315 -5.30741976 48.52858269 -15.3828125 49.23828125 C-26.60182037 49.46078767 -34.78060324 48.01821641 -43.625 40.6875 C-46.35337174 37.99847978 -47.9527698 36.09809349 -49.625 32.625 C-48.08986334 23.72120739 -40.62115878 16.90819497 -33.61328125 11.71875 C-23.52768389 5.08547221 -12.96465048 3 -1 3 C-0.67 2.01 -0.34 1.02 0 0 Z " fill="#060404" transform="translate(794,167)"/>
<path d="M0 0 C0.99 0.66 1.98 1.32 3 2 C3 2.66 3 3.32 3 4 C3.58265625 3.96519531 4.1653125 3.93039063 4.765625 3.89453125 C17.70025819 3.4674443 29.7430819 7.35569024 39.6875 15.6875 C44.08194997 19.83128616 48.50894936 24.44304088 51 30 C50.79190593 35.80433807 48.5235981 38.27679152 44.45703125 42.1015625 C36.38782464 48.3362754 27.05362548 50.81435847 17 50 C5.22043696 48.12765394 -5.38397127 44.59219945 -13 35 C-15.28906145 31.01902357 -15.17805065 27.54029167 -15 23 C-14.42636719 23.721875 -13.85273437 24.44375 -13.26171875 25.1875 C-2.94914469 38.08257464 -2.94914469 38.08257464 12 44 C23.92514662 45.08410424 35.17435884 42.28968584 45.328125 35.953125 C47 35 47 35 49 35 C48.11307301 30.12190154 46.8642245 27.42872027 42.82421875 24.53515625 C38.0607514 21.39162037 33.1564739 18.45546376 28 16 C28.06960938 16.59167969 28.13921875 17.18335938 28.2109375 17.79296875 C28.51484769 22.22861039 28.4632657 24.35142802 25.8125 28.0625 C20.91953426 31.42568409 14.62388631 30.77990281 9 30 C6.27178216 28.98592658 5.17513558 28.06065476 3 26 C2.38125 25.443125 1.7625 24.88625 1.125 24.3125 C-0.6325971 20.69966152 -0.4168177 16.95175245 0 13 C0.33 12.67 0.66 12.34 1 12 C-4.51066758 11.7959012 -9.32765838 12.32990893 -14.703125 13.5625 C-17 14 -17 14 -21 14 C-20.814375 13.2575 -20.62875 12.515 -20.4375 11.75 C-20.00796892 9.05009037 -20.14877026 7.55368923 -21 5 C-18.9554346 5.51114135 -16.91236597 6.02319724 -14.875 6.5625 C-12.99628047 7.07574321 -12.99628047 7.07574321 -11 7 C-11.33 5.35 -11.66 3.7 -12 2 C-11.2265625 2.495 -11.2265625 2.495 -10.4375 3 C-7.21973488 4.32010877 -4.4429472 4.13242105 -1 4 C-0.67 2.68 -0.34 1.36 0 0 Z " fill="#050403" transform="translate(645,163)"/>
<path d="M0 0 C-0.33 0.66 -0.66 1.32 -1 2 C-1.54399285 6.539219 -1.62289461 9.9544269 0.75 13.9375 C4.83190913 17.67925003 7.910585 18.31110503 13.4375 18.375 C15.10619141 18.41753906 15.10619141 18.41753906 16.80859375 18.4609375 C20.70502744 17.89817229 22.31543627 16.85112425 25 14 C25.80342377 11.66869206 25.80342377 11.66869206 25.8125 9.25 C25.86019531 8.45078125 25.90789063 7.6515625 25.95703125 6.828125 C25.97121094 6.22484375 25.98539063 5.6215625 26 5 C33.29069778 7.09883724 39.33631532 11.04329399 45 16 C46.59987928 18.95175296 46.81453649 20.59983572 47 24 C33.82616979 31.01963216 20.4915684 37.27462799 5.25 32.875 C-6.87675285 28.1687692 -14.7298037 17.46702052 -20 6 C-20 5.34 -20 4.68 -20 4 C-13.08856084 0.30318371 -7.68663531 -0.15071834 0 0 Z " fill="#FAFAFA" transform="translate(647,174)"/>
<path d="M0 0 C2.60466543 0.30872329 5.20867691 0.62181723 7.8125 0.9375 C8.55048828 1.02451172 9.28847656 1.11152344 10.04882812 1.20117188 C13.16733121 1.58216546 16.01108122 2.00369374 19 3 C16.21748669 14.55005525 10.59942007 23.7950904 0.64453125 30.61328125 C-8.97613529 35.57703978 -20.89648756 35.53102534 -31.12939453 32.4621582 C-37.14662136 30.4399505 -42.17129929 28.12206158 -47 24 C-47 20.84856357 -46.58815331 18.70295329 -44.5390625 16.25390625 C-39.29232376 11.44618035 -33.33089176 8.17708355 -27 5 C-26 8 -26 8 -25.6875 11.5 C-25.33517903 15.01329358 -25.33517903 15.01329358 -23.125 16.875 C-18.45534726 19.3471691 -14.01125492 19.80115957 -8.87109375 18.43359375 C-5.24535017 17.15824011 -2.43117586 16.09685496 0 13 C0.61174034 10.86731051 0.61174034 10.86731051 0.75 8.5625 C0.82734375 7.80066406 0.9046875 7.03882813 0.984375 6.25390625 C1.00011551 3.98333821 0.65133656 2.1661875 0 0 Z " fill="#FBFBFB" transform="translate(794,177)"/>
<path d="M0 0 C-3.31598652 6.63197303 -7.91676825 11.64620915 -13 17 C-13.73734375 17.79019531 -14.4746875 18.58039063 -15.234375 19.39453125 C-24.95696594 29.51361082 -36.0493598 36.97453252 -50.3671875 38.203125 C-66.33509951 38.50159065 -81.77613627 33.86283161 -94.375 23.875 C-100.69212974 17.78348204 -107.15101982 9.29648075 -110 1 C-109.40316406 1.10957031 -108.80632813 1.21914063 -108.19140625 1.33203125 C-106.30762678 1.67631784 -104.42346711 2.01852662 -102.5390625 2.359375 C-100.68292316 2.6953649 -98.82686753 3.03184237 -96.97167969 3.37304688 C-94.79428701 3.77328092 -92.61596599 4.16815384 -90.4375 4.5625 C-89.75437744 4.68923096 -89.07125488 4.81596191 -88.36743164 4.9465332 C-63.09727001 9.48635235 -38.59685176 6.47769155 -13.79858398 0.94482422 C-12.59016846 0.68072754 -11.38175293 0.41663086 -10.13671875 0.14453125 C-9.05092529 -0.09934326 -7.96513184 -0.34321777 -6.84643555 -0.59448242 C-4.13466357 -0.98081515 -2.55139774 -0.90210272 0 0 Z M-8 3 C-8.91136719 3.31453125 -9.82273437 3.6290625 -10.76171875 3.953125 C-25.26636606 8.802599 -40.66662668 12.42090708 -56 13 C-56.83660156 13.03996094 -57.67320312 13.07992188 -58.53515625 13.12109375 C-71.47366502 13.44503285 -83.47962972 11.2530756 -95.671875 7.12109375 C-98.11615908 6.29772576 -100.48845985 5.56446231 -103 5 C-96.79741504 17.04031198 -81.9663934 27.69231292 -69.3046875 31.89453125 C-57.78655628 35.18757399 -46.84631851 35.4879134 -36 30 C-32.48708682 27.87828638 -29.23971163 25.51578241 -26 23 C-25.17628906 22.36835938 -24.35257813 21.73671875 -23.50390625 21.0859375 C-17.42522161 16.32540756 -11.68280012 11.22333968 -6 6 C-6.99 4.515 -6.99 4.515 -8 3 Z " fill="#0D0A08" transform="translate(776,266)"/>
<path d="M0 0 C2.15625 -0.3984375 2.15625 -0.3984375 5 0 C7.10090712 2.09487003 8.75947885 4.01046126 10.5 6.375 C10.98267334 7.01260254 11.46534668 7.65020508 11.96264648 8.30712891 C22.9719375 23.16416434 23.95281404 36.11967833 21.49487305 53.9440918 C20.24962512 61.98534237 17.74533428 68.78811036 14 76 C12.74127887 72.08300069 13.44377675 69.57486314 14.52734375 65.70703125 C15.8925156 57.88831972 14.59081641 51.59200221 12 44.1875 C11.35950238 42.268184 10.72298729 40.34753575 10.08984375 38.42578125 C9.75194824 37.40178223 9.41405273 36.3777832 9.06591797 35.32275391 C7.10514966 29.21051006 5.33244712 23.04470082 3.5625 16.875 C3.03172852 15.05198364 3.03172852 15.05198364 2.49023438 13.19213867 C2.16474609 12.05365479 1.83925781 10.9151709 1.50390625 9.7421875 C1.21330322 8.7301123 0.9227002 7.71803711 0.62329102 6.67529297 C0 4 0 4 0 0 Z " fill="#F5C7A3" transform="translate(555,498)"/>
<path d="M0 0 C2.62479827 4.5932337 2.34163587 8.76087566 2.3125 13.9375 C2.31121094 14.87231201 2.30992187 15.80712402 2.30859375 16.77026367 C2.20610357 24.19887975 1.218587 30.88203338 -1 38 C-7.44541706 37.6484318 -12.89446775 36.14475375 -18 32 C-18.73828125 30.1262207 -18.73828125 30.1262207 -19 28 C-18.23071289 26.26757812 -18.23071289 26.26757812 -16.97265625 24.53125 C-16.28393433 23.55865234 -16.28393433 23.55865234 -15.58129883 22.56640625 C-15.08009521 21.88449219 -14.5788916 21.20257812 -14.0625 20.5 C-13.04609757 19.07347027 -12.03048014 17.64638091 -11.015625 16.21875 C-10.50708984 15.51105469 -9.99855469 14.80335938 -9.47460938 14.07421875 C-7.35415067 11.0915338 -5.33243224 8.05169619 -3.3125 5 C-2.66925781 4.030625 -2.02601563 3.06125 -1.36328125 2.0625 C-0.91339844 1.381875 -0.46351563 0.70125 0 0 Z " fill="#C8DA7F" transform="translate(584,564)"/>
<path d="M0 0 C0.66 0.33 1.32 0.66 2 1 C2 2.66666667 2 4.33333333 2 6 C0.3203125 7.46484375 0.3203125 7.46484375 -1.875 8.9375 C-4.91078832 10.97768032 -6.83095698 12.45927774 -8 16 C-8.03484434 18.12627442 -8.03484434 18.12627442 -7 20 C-3.93381083 22.18659551 -0.46395714 23.54659141 3 25 C3.76699219 25.32484375 4.53398438 25.6496875 5.32421875 25.984375 C14.2445933 29.19510404 25.51776215 29.65336294 34.5 26.4375 C42.6956022 22.49757063 47.7463227 16.44013091 52.65234375 8.94140625 C53.09707031 8.30074219 53.54179688 7.66007813 54 7 C54.33 7 54.66 7 55 7 C55.6667455 13.40075682 53.99097329 17.01128339 50 22 C43.19773356 29.70682315 32.69258024 33.52858269 22.6171875 34.23828125 C11.39817963 34.46078767 3.21939676 33.01821641 -5.625 25.6875 C-8.35337174 22.99847978 -9.9527698 21.09809349 -11.625 17.625 C-10.41663935 10.61650826 -5.07430876 4.81738173 0 0 Z " fill="#100C0A" transform="translate(756,182)"/>
<path d="M0 0 C5.14872606 3.43248404 9.33626665 8.42435939 12 14 C11.86233438 18.50281288 10.79434043 20.91256369 7.625 24.0625 C0.17433535 31.07015216 -9.20825384 34.36668172 -19.34765625 34.21484375 C-31.16014123 33.25801507 -42.52477256 29.56942478 -50.66015625 20.6875 C-54.15656335 16.2838619 -54.21609187 12.51034279 -54 7 C-53.42636719 7.721875 -52.85273437 8.44375 -52.26171875 9.1875 C-41.94914469 22.08257464 -41.94914469 22.08257464 -27 28 C-15.07485338 29.08410424 -3.82564116 26.28968584 6.328125 19.953125 C8 19 8 19 10 19 C8.23010392 11.79399454 5.27611496 9.21988484 -0.91796875 5.25 C-1.60503906 4.8375 -2.29210937 4.425 -3 4 C-2.01 2.68 -1.02 1.36 0 0 Z " fill="#0D0906" transform="translate(684,179)"/>
<path d="M0 0 C1.03930664 0.08507812 1.03930664 0.08507812 2.09960938 0.171875 C3.79648446 0.31230604 5.49215248 0.46719407 7.1875 0.625 C9.10421412 5.76413743 10.03287814 10.85710139 10.875 16.25 C11.01744141 17.095625 11.15988281 17.94125 11.30664062 18.8125 C11.43619141 19.62976563 11.56574219 20.44703125 11.69921875 21.2890625 C11.81740967 22.02592285 11.93560059 22.7627832 12.05737305 23.52197266 C12.19681331 25.77551563 11.8465683 27.47703788 11.1875 29.625 C10.62482422 28.07039063 10.62482422 28.07039063 10.05078125 26.484375 C9.5346507 25.114283 9.01767897 23.74450769 8.5 22.375 C8.13358398 21.35212891 8.13358398 21.35212891 7.75976562 20.30859375 C6.05520718 15.86379579 4.43803353 13.13404028 0.1875 10.625 C-2.9799986 10.14228189 -5.77219086 10.64283117 -8.8125 11.625 C-11.73136589 14.04136938 -11.73136589 14.04136938 -13.8125 16.625 C-14.4725 16.625 -15.1325 16.625 -15.8125 16.625 C-15.8125 15.635 -15.8125 14.645 -15.8125 13.625 C-16.4725 13.625 -17.1325 13.625 -17.8125 13.625 C-18.1425 14.945 -18.4725 16.265 -18.8125 17.625 C-19.4725 17.625 -20.1325 17.625 -20.8125 17.625 C-19.9346053 10.94997303 -18.15347899 5.97735534 -12.8125 1.625 C-8.54486237 -0.7199387 -4.70465863 -0.45020657 0 0 Z " fill="#F1C5A0" transform="translate(596.8125,188.375)"/>
<path d="M0 0 C3.98857213 3.35534991 7.1444301 6.71643975 7.9375 12 C7.958125 12.99 7.97875 13.98 8 15 C7.53851562 14.62488281 7.07703125 14.24976563 6.6015625 13.86328125 C-3.643728 5.8249802 -12.89564025 1.95693998 -26 3 C-33.59281084 4.73919097 -39.79027347 8.40020257 -46 13 C-46.33 12.34 -46.66 11.68 -47 11 C-42.02293285 2.84651194 -35.7903815 -0.9005575 -26.625 -3.3125 C-17.35720665 -4.9960674 -8.21948805 -5.05923661 0 0 Z " fill="#0E0704" transform="translate(803,135)"/>
<path d="M0 0 C0.639375 0.474375 1.27875 0.94875 1.9375 1.4375 C3 3 3 3 2.875 5.5625 C2 8 2 8 -1 10 C-3.05078125 9.3203125 -3.05078125 9.3203125 -5.3125 8.125 C-9.09377431 6.31709737 -11.74303491 5.32275555 -16 6 C-19.61570185 7.53567052 -21.26469365 9.04426613 -22.80078125 12.57421875 C-23.32162736 13.93896741 -23.82518651 15.31042152 -24.3125 16.6875 C-24.57611328 17.38939453 -24.83972656 18.09128906 -25.11132812 18.81445312 C-25.7559683 20.53740051 -26.3800629 22.26801078 -27 24 C-27.33 24 -27.66 24 -28 24 C-27.23945318 14.56921949 -25.61328437 5.31443428 -24 -4 C-7.48895142 -6.06248448 -7.48895142 -6.06248448 0 0 Z " fill="#F1C6A3" transform="translate(864,193)"/>
<path d="M0 0 C0.66 0.33 1.32 0.66 2 1 C4.44247653 10.5074216 1.77111551 18.82698515 -1.3125 27.8125 C-1.73578657 29.09502421 -2.15702168 30.37822737 -2.57617188 31.66210938 C-3.35069022 34.02272269 -4.13443202 36.38034711 -4.9309082 38.73364258 C-6.06706797 42.06750182 -6.06706797 42.06750182 -6.94213867 45.82299805 C-7.29123291 46.87140869 -7.64032715 47.91981934 -8 49 C-11.125 50.4375 -11.125 50.4375 -14 51 C-11.41519747 40.16291459 -8.35467066 29.46538534 -5.3125 18.75 C-4.7960568 16.92582857 -4.27977949 15.10161016 -3.76367188 13.27734375 C-2.51102515 8.85101899 -1.25613973 4.42533469 0 0 Z " fill="#090D04" transform="translate(614,493)"/>
<path d="M0 0 C0.65355469 0.54140625 0.65355469 0.54140625 1.3203125 1.09375 C5.31407151 4.20577001 7.73840541 5.64165788 13 5 C13.19477739 6.62414378 13.38059458 8.24936423 13.5625 9.875 C13.66691406 10.77992188 13.77132812 11.68484375 13.87890625 12.6171875 C14 15 14 15 13 17 C12.34 17 11.68 17 11 17 C10.67 17.99 10.34 18.98 10 20 C8.37276701 19.54965877 6.74826336 19.08944646 5.125 18.625 C3.76761719 18.24214844 3.76761719 18.24214844 2.3828125 17.8515625 C0 17 0 17 -2 15 C-2.265625 12.28515625 -2.265625 12.28515625 -2.25 9.0625 C-2.25515625 8.00160156 -2.2603125 6.94070312 -2.265625 5.84765625 C-2 3 -2 3 0 0 Z " fill="#F6C8A4" transform="translate(597,217)"/>
<path d="M0 0 C2.625 -0.4375 2.625 -0.4375 6 0 C8.42437761 2.0312353 10.36491432 4.29225173 12 7 C12 7.99 12 8.98 12 10 C8.62496331 8.8141763 6.35277269 7.72426311 4 5 C1.69939466 6.8628949 1.69939466 6.8628949 1.8046875 9.8203125 C1.82789063 10.91085938 1.85109375 12.00140625 1.875 13.125 C1.89304687 14.22070312 1.91109375 15.31640625 1.9296875 16.4453125 C1.95289063 17.28835937 1.97609375 18.13140625 2 19 C2.62648438 19.27714844 3.25296875 19.55429688 3.8984375 19.83984375 C4.71570313 20.20207031 5.53296875 20.56429687 6.375 20.9375 C7.18710937 21.29714844 7.99921875 21.65679687 8.8359375 22.02734375 C10.23683785 22.6569903 11.62625284 23.31312642 13 24 C12.34 25.32 11.68 26.64 11 28 C3.7899361 27.75559105 3.7899361 27.75559105 0.125 24.25 C-3.35603877 18.92605834 -5.01344853 14.44600403 -4 8 C-2.89718758 5.1854309 -1.54587074 2.59485446 0 0 Z " fill="#130A06" transform="translate(594,213)"/>
<path d="M0 0 C2.78407549 0.58612116 3.69560971 1.23282311 5.375 3.5 C7.3444655 9.40839651 7.14546566 16.10299573 5.25 22 C2.93824442 25.08234077 0.79125794 26.72354587 -2.625 28.5 C-5.5 28.75 -5.5 28.75 -7.625 28.5 C-8.285 27.18 -8.945 25.86 -9.625 24.5 C-8.55958984 24.08427734 -8.55958984 24.08427734 -7.47265625 23.66015625 C-6.55355469 23.29792969 -5.63445313 22.93570313 -4.6875 22.5625 C-3.77097656 22.20285156 -2.85445312 21.84320313 -1.91015625 21.47265625 C0.29918533 20.7003782 0.29918533 20.7003782 1.375 19.5 C1.47379565 17.689715 1.50471514 15.87547273 1.5 14.0625 C1.50257813 13.07378906 1.50515625 12.08507812 1.5078125 11.06640625 C1.54728415 8.51090924 1.54728415 8.51090924 0.375 6.5 C-0.181875 6.78875 -0.73875 7.0775 -1.3125 7.375 C-3.70994645 8.5413253 -6.14096939 9.5339881 -8.625 10.5 C-8.3234013 6.98134855 -7.61894038 5.49242548 -5.375 2.6875 C-2.625 0.5 -2.625 0.5 0 0 Z " fill="#130A06" transform="translate(847.625,212.5)"/>
<path d="M0 0 C3.2437025 2.43277687 4.68700289 3.91654848 5.8125 7.8125 C5.874375 8.534375 5.93625 9.25625 6 10 C5.01 10 4.02 10 3 10 C2.67 9.01 2.34 8.02 2 7 C0.23470405 5.78309467 0.23470405 5.78309467 -2 5 C-2.78375 4.690625 -3.5675 4.38125 -4.375 4.0625 C-7.54700324 3.98697611 -9.04708833 4.87254903 -11.375 6.98828125 C-15.0024577 11.47900412 -17.45086761 16.84894254 -20 22 C-20.66 21.67 -21.32 21.34 -22 21 C-17.31163317 5.21964336 -17.31163317 5.21964336 -11.75 -0.1875 C-7.63813873 -1.4023681 -4.10576799 -1.21982962 0 0 Z " fill="#140A06" transform="translate(857,199)"/>
<path d="M0 0 C4.85927263 2.52308387 7.00632111 4.90504283 9 10 C9 10.66 9 11.32 9 12 C7 11 5 10 3 9 C3 8.34 3 7.68 3 7 C-0.86523319 5.18106673 -3.75007451 4.25001315 -8 5 C-10.25270872 6.68847887 -12.25216298 8.50211268 -14.265625 10.46875 C-16 12 -16 12 -18 12 C-17.92478893 8.84113505 -17.62522327 6.69915712 -15.48046875 4.30078125 C-10.23265611 -0.26205374 -7.04918184 -1.55320956 0 0 Z " fill="#130A07" transform="translate(727,229)"/>
<path d="M0 0 C7.02655744 3.87177655 8.58502404 10.70164344 11 18 C10.34 18.33 9.68 18.66 9 19 C8.54109375 18.24074219 8.0821875 17.48148438 7.609375 16.69921875 C6.99578125 15.70535156 6.3821875 14.71148437 5.75 13.6875 C5.14671875 12.70136719 4.5434375 11.71523437 3.921875 10.69921875 C2.09853743 8.13839302 0.69617603 6.57995915 -2 5 C-5.05270463 4.84188612 -5.05270463 4.84188612 -8 6 C-9.38576923 7.62332967 -10.72641268 9.28724465 -12 11 C-12.99 11 -13.98 11 -15 11 C-14.73517462 7.11589437 -14.46605993 5.4537952 -11.625 2.6875 C-7.68315622 0.15345757 -4.63778984 -0.54562233 0 0 Z " fill="#0E0603" transform="translate(597,198)"/>
<path d="M0 0 C0.54825439 0.22252441 1.09650879 0.44504883 1.66137695 0.67431641 C16.00774094 6.87750228 16.00774094 6.87750228 31 5 C31.495 6.98 31.495 6.98 32 9 C18.74434838 10.56059445 7.81435957 8.74296982 -5 5 C-3.35 3.35 -1.7 1.7 0 0 Z " fill="#110805" transform="translate(701,346)"/>
<path d="M0 0 C0 1.65 0 3.3 0 5 C-9.8496721 8.0444441 -16.88591058 6.6324568 -26 2 C-26 1.67 -26 1.34 -26 1 C-22.41673516 0.83183879 -18.83337798 0.66573123 -15.25 0.5 C-14.23421875 0.45230469 -13.2184375 0.40460938 -12.171875 0.35546875 C-11.1921875 0.31035156 -10.2125 0.26523437 -9.203125 0.21875 C-8.30239258 0.17685547 -7.40166016 0.13496094 -6.47363281 0.09179688 C-4.31702276 0.01176476 -2.15809454 0 0 0 Z " fill="#0F0804" transform="translate(736,322)"/>
<path d="M0 0 C0.66 0.33 1.32 0.66 2 1 C2 2.66666667 2 4.33333333 2 6 C0.3203125 7.46484375 0.3203125 7.46484375 -1.875 8.9375 C-4.93635361 10.9948613 -6.69261953 12.49959422 -8 16 C-7.85318539 18.17323569 -7.85318539 18.17323569 -7 20 C-6.34 20.33 -5.68 20.66 -5 21 C-5.33 22.32 -5.66 23.64 -6 25 C-10.89361702 20.10638298 -10.89361702 20.10638298 -11.3125 15.75 C-9.1167782 9.47650915 -4.66092265 4.66092265 0 0 Z " fill="#1E1411" transform="translate(756,182)"/>
<path d="M0 0 C1.20628008 2.33214148 2.1654738 4.49642139 3 7 C2.0925 7.226875 1.185 7.45375 0.25 7.6875 C-3.51628476 9.20849961 -4.82501689 10.61669295 -7 14 C-7.77833534 16.18214568 -7.77833534 16.18214568 -8 18 C-9.32 18.33 -10.64 18.66 -12 19 C-11.27794191 15.09125885 -9.53094346 11.87241092 -7.6875 8.375 C-7.09324219 7.22773438 -6.49898437 6.08046875 -5.88671875 4.8984375 C-4.04226655 2.06493123 -3.13683139 1.06638418 0 0 Z " fill="#E8C2A4" transform="translate(847,206)"/>
<path d="M0 0 C0.66 0.598125 1.32 1.19625 2 1.8125 C5.58183997 4.42425831 8.81377726 5.58094144 13 7 C12.34 8.32 11.68 9.64 11 11 C3.89006342 10.7589852 3.89006342 10.7589852 1.35546875 8.59765625 C0 6.9375 0 6.9375 -2 4 C-1.34 2.68 -0.68 1.36 0 0 Z " fill="#130906" transform="translate(594,230)"/>
<path d="M0 0 C0.66 0.33 1.32 0.66 2 1 C3.29766606 7.634841 3.44050584 13.68339666 1 20 C-0.9375 19.1875 -0.9375 19.1875 -3 18 C-4.32435978 14.02692066 -3.18129186 11.19025432 -2.0625 7.3125 C-1.76956055 6.2596582 -1.76956055 6.2596582 -1.47070312 5.18554688 C-0.98800864 3.45491056 -0.49499154 1.72715934 0 0 Z " fill="#131809" transform="translate(614,493)"/>
<path d="M0 0 C5.14872606 3.43248404 9.33626665 8.42435939 12 14 C11.6953125 17.3203125 11.6953125 17.3203125 11 20 C10.01 19.67 9.02 19.34 8 19 C8.66 19 9.32 19 10 19 C8.23010392 11.79399454 5.27611496 9.21988484 -0.91796875 5.25 C-1.60503906 4.8375 -2.29210937 4.425 -3 4 C-2.01 2.68 -1.02 1.36 0 0 Z " fill="#110D0B" transform="translate(684,179)"/>
<path d="M0 0 C4.81157273 0.11531002 8.06576051 0.29932038 12 3.25 C13.99496782 5.99308075 14.71346097 7.6570446 15 11 C14.01 11 13.02 11 12 11 C11.67 10.01 11.34 9.02 11 8 C9.15028304 6.94978897 9.15028304 6.94978897 7 6 C5.64886795 5.02418241 4.31053056 4.02970259 3 3 C3.33 2.67 3.66 2.34 4 2 C2.68 1.34 1.36 0.68 0 0 Z " fill="#241810" transform="translate(848,198)"/>
<path d="M0 0 C1.46300982 0.93018526 2.92025579 1.86944027 4.375 2.8125 C5.18710937 3.33457031 5.99921875 3.85664063 6.8359375 4.39453125 C9 6 9 6 11 9 C10.01 9.99 9.02 10.98 8 12 C5.03 9.69 2.06 7.38 -1 5 C-0.67 3.35 -0.34 1.7 0 0 Z " fill="#0F0C05" transform="translate(692,469)"/>
<path d="M0 0 C0.33 1.32 0.66 2.64 1 4 C-1.35371114 4.1968999 -3.7074695 4.38270974 -6.0625 4.5625 C-8.02896484 4.71912109 -8.02896484 4.71912109 -10.03515625 4.87890625 C-13.92325897 4.99765619 -17.19110223 4.66866216 -21 4 C-19.5625 2.4375 -19.5625 2.4375 -17 1 C-14.71227627 1.10418476 -12.51624876 1.45434121 -10.25390625 1.8046875 C-6.47679398 2.13199359 -3.63998827 0 0 0 Z " fill="#150804" transform="translate(732,351)"/>
<path d="M0 0 C0 3.63 0 7.26 0 11 C-1.98 11.99 -1.98 11.99 -4 13 C-5.31886422 9.04340734 -5.26518132 6.17660573 -5 2 C-2 0 -2 0 0 0 Z " fill="#251A13" transform="translate(595,219)"/>
<path d="M0 0 C2.11044382 3.16566573 2.75552077 5.51197415 3.625 9.1875 C3.88539063 10.27417969 4.14578125 11.36085938 4.4140625 12.48046875 C4.60742188 13.31191406 4.80078125 14.14335938 5 15 C3.02 15.99 3.02 15.99 1 17 C0.46706165 15.25364835 -0.05090663 13.50272348 -0.5625 11.75 C-0.85253906 10.77546875 -1.14257812 9.8009375 -1.44140625 8.796875 C-2.16248757 5.18642587 -1.61315861 3.22631722 0 0 Z " fill="#100904" transform="translate(560,520)"/>
<path d="M0 0 C0.33 0.66 0.66 1.32 1 2 C0.48050781 2.4125 -0.03898438 2.825 -0.57421875 3.25 C-5.03778183 6.94625926 -8.22216816 10.39189728 -10.9921875 15.49609375 C-11.32476563 15.99238281 -11.65734375 16.48867188 -12 17 C-12.66 17 -13.32 17 -14 17 C-14.103125 17.556875 -14.20625 18.11375 -14.3125 18.6875 C-15.13133577 21.44176578 -16.45853781 23.58727657 -18 26 C-18.66 25.67 -19.32 25.34 -20 25 C-9.25250209 5.92160133 -9.25250209 5.92160133 0 0 Z " fill="#582F22" transform="translate(609,40)"/>
<path d="M0 0 C2.26598448 3.39897673 2.23742654 4.56319173 2.1953125 8.54296875 C2.18886719 9.61611328 2.18242188 10.68925781 2.17578125 11.79492188 C2.15902344 12.91447266 2.14226563 14.03402344 2.125 15.1875 C2.11597656 16.31865234 2.10695313 17.44980469 2.09765625 18.61523438 C2.07406862 21.41036828 2.041153 24.20507845 2 27 C-0.20698662 25.25553368 -0.94226789 24.39455548 -1.35644531 21.56396484 C-1.34709961 20.62246582 -1.33775391 19.6809668 -1.328125 18.7109375 C-1.32296875 17.68742188 -1.3178125 16.66390625 -1.3125 15.609375 C-1.291875 14.54203125 -1.27125 13.4746875 -1.25 12.375 C-1.24484375 11.29992187 -1.2396875 10.22484375 -1.234375 9.1171875 C-1.15393814 1.15393814 -1.15393814 1.15393814 0 0 Z " fill="#CBDB8F" transform="translate(797,709)"/>
<path d="M0 0 C0 0.66 0 1.32 0 2 C0.763125 2 1.52625 2 2.3125 2 C4.20833333 2 6.10416667 2 8 2 C4.93698998 5.06301002 1.2091515 5.42668454 -3 6 C-6.0625 5.625 -6.0625 5.625 -8 5 C-8 4.01 -8 3.02 -8 2 C-2.25 0 -2.25 0 0 0 Z " fill="#150B07" transform="translate(740,348)"/>
<path d="M0 0 C0.66 0.33 1.32 0.66 2 1 C0 7.92307692 0 7.92307692 -3 10 C-4.32 10 -5.64 10 -7 10 C-7.125 7.625 -7.125 7.625 -7 5 C-5 3 -5 3 -2.9375 2.5 C-2.298125 2.335 -1.65875 2.17 -1 2 C-0.67 1.34 -0.34 0.68 0 0 Z " fill="#1D100A" transform="translate(495,319)"/>
<path d="M0 0 C1.32 0 2.64 0 4 0 C4.05395478 1.62463842 4.09277195 3.24978541 4.125 4.875 C4.14820313 5.77992188 4.17140625 6.68484375 4.1953125 7.6171875 C4 10 4 10 2 12 C1.34 11.67 0.68 11.34 0 11 C0 7.37 0 3.74 0 0 Z " fill="#090302" transform="translate(850,221)"/>
<path d="M0 0 C0.33 0.66 0.66 1.32 1 2 C-0.65 3.98 -2.3 5.96 -4 8 C-0.04 8 3.92 8 8 8 C8 8.33 8 8.66 8 9 C-0.91 9.99 -0.91 9.99 -10 11 C-6.77932365 7.19374613 -3.59755203 3.45918464 0 0 Z " fill="#583026" transform="translate(640,347)"/>
<path d="M0 0 C0.66 0 1.32 0 2 0 C1.67 4.95 1.34 9.9 1 15 C0.01 15 -0.98 15 -2 15 C-3.4783226 12.04335481 -3.06032783 9.25770263 -3 6 C-2.01 6.495 -2.01 6.495 -1 7 C-0.67 4.69 -0.34 2.38 0 0 Z " fill="#150C06" transform="translate(481,335)"/>
<path d="M0 0 C1.175625 0.309375 2.35125 0.61875 3.5625 0.9375 C10.28196405 2.45584043 17.14044366 2.6565703 24 3 C24 3.33 24 3.66 24 4 C21.2915983 4.02714434 18.58347279 4.04690846 15.875 4.0625 C14.73417969 4.07506836 14.73417969 4.07506836 13.5703125 4.08789062 C9.24364178 4.10654007 5.27643679 3.72132669 1 3 C-1.31980946 3.82342532 -1.31980946 3.82342532 -3 5 C-2.01 3.35 -1.02 1.7 0 0 Z " fill="#572D22" transform="translate(594,257)"/>
<path d="M0 0 C0.99 0.33 1.98 0.66 3 1 C3.66 6.28 4.32 11.56 5 17 C3.23352937 14.35029405 2.02985003 11.98501901 0.8125 9.0625 C0.44769531 8.20785156 0.08289063 7.35320312 -0.29296875 6.47265625 C-1.05225403 3.81725523 -0.93187432 2.55820275 0 0 Z " fill="#D5B79F" transform="translate(604,201)"/>
<path d="M0 0 C0.66 0.66 1.32 1.32 2 2 C0.37660195 3.70884005 -1.29319053 5.37446717 -3 7 C-3.66 7 -4.32 7 -5 7 C-5.2475 7.639375 -5.495 8.27875 -5.75 8.9375 C-7 11 -7 11 -9.125 11.75 C-10.053125 11.87375 -10.053125 11.87375 -11 12 C-11.33 11.34 -11.66 10.68 -12 10 C-11.46890625 9.61328125 -10.9378125 9.2265625 -10.390625 8.828125 C-6.67177773 6.08649307 -3.14670262 3.40892784 0 0 Z " fill="#E5BD9D" transform="translate(675,392)"/>
<path d="M0 0 C1.32 0.33 2.64 0.66 4 1 C1.45335415 5.81033104 -0.99027798 9.32442148 -5 13 C-5 9.85331714 -4.47264871 8.68541824 -3 6 C-2.67 5.34 -2.34 4.68 -2 4 C-1.34 4.33 -0.68 4.66 0 5 C0 3.68 0 2.36 0 1 C0 0.67 0 0.34 0 0 Z " fill="#20160F" transform="translate(772,265)"/>
<path d="M0 0 C2.64 0.99 5.28 1.98 8 3 C4.89914429 5.06723714 4.27068319 5.24497423 0.76953125 5.1953125 C-0.03291016 5.18886719 -0.83535156 5.18242187 -1.66210938 5.17578125 C-2.49548828 5.15902344 -3.32886719 5.14226562 -4.1875 5.125 C-5.03248047 5.11597656 -5.87746094 5.10695313 -6.74804688 5.09765625 C-8.83215243 5.07410703 -10.91611217 5.03823647 -13 5 C-13 4.67 -13 4.34 -13 4 C-8.38 4 -3.76 4 1 4 C0.67 2.68 0.34 1.36 0 0 Z " fill="#553125" transform="translate(840,348)"/>
<path d="M0 0 C3.02294835 2.63539087 4.79910753 4.26817744 5.875 8.1875 C6 11 6 11 5 13 C4.01 12.67 3.02 12.34 2 12 C2.66 12 3.32 12 4 12 C3.71125 11.38511719 3.4225 10.77023438 3.125 10.13671875 C2.75375 9.32847656 2.3825 8.52023438 2 7.6875 C1.62875 6.88699219 1.2575 6.08648437 0.875 5.26171875 C0 3 0 3 0 0 Z " fill="#201612" transform="translate(690,186)"/>
<path d="M0 0 C3.3 0.33 6.6 0.66 10 1 C10 1.33 10 1.66 10 2 C7.36 2 4.72 2 2 2 C2 5.3 2 8.6 2 12 C-0.35333796 7.29332409 -0.17102038 5.1306114 0 0 Z " fill="#593326" transform="translate(819,116)"/>
<path d="M0 0 C0 0.99 0 1.98 0 3 C-4.07142845 6.57541686 -8.58961609 8.59422121 -14 9 C-11.48367951 6.14015453 -8.66114447 4.58531178 -5.3125 2.8125 C-4.31863281 2.28269531 -3.32476563 1.75289062 -2.30078125 1.20703125 C-1.54152344 0.80871094 -0.78226563 0.41039063 0 0 Z " fill="#5A3221" transform="translate(671,27)"/>
<path d="M0 0 C0 3 0 3 -1 6 C-2.62890625 7.38671875 -2.62890625 7.38671875 -4.5625 8.6875 C-5.52349609 9.34298828 -5.52349609 9.34298828 -6.50390625 10.01171875 C-6.99761719 10.33785156 -7.49132812 10.66398437 -8 11 C-8.66 10.67 -9.32 10.34 -10 10 C-6.7 6.7 -3.4 3.4 0 0 Z " fill="#E1BFA1" transform="translate(764,281)"/>
<path d="M0 0 C1.32 0 2.64 0 4 0 C2.44298069 4.67105792 -0.08447373 8.08705685 -3 12 C-3.33 11.34 -3.66 10.68 -4 10 C-3.00664799 8.32936253 -2.00568242 6.66324401 -1 5 C-0.29329272 2.30745009 -0.29329272 2.30745009 0 0 Z " fill="#EBC8AA" transform="translate(760,444)"/>
<path d="M0 0 C5.61 0 11.22 0 17 0 C17 0.33 17 0.66 17 1 C13.7 1 10.4 1 7 1 C6.67 1.99 6.34 2.98 6 4 C4.02 3.01 2.04 2.02 0 1 C0 0.67 0 0.34 0 0 Z " fill="#472E22" transform="translate(710,323)"/>
<path d="M0 0 C4.455 0.99 4.455 0.99 9 2 C8.34 3.32 7.68 4.64 7 6 C4.0625 5.25 4.0625 5.25 1 4 C0.67 2.68 0.34 1.36 0 0 Z " fill="#18120D" transform="translate(672,268)"/>
<path d="M0 0 C0.66 0.33 1.32 0.66 2 1 C2 2.66666667 2 4.33333333 2 6 C0.02 6.99 0.02 6.99 -2 8 C-2.33 7.34 -2.66 6.68 -3 6 C-3.66 5.67 -4.32 5.34 -5 5 C-3.35 3.35 -1.7 1.7 0 0 Z " fill="#1E1611" transform="translate(756,182)"/>
<path d="M0 0 C7.50769231 0.49230769 7.50769231 0.49230769 10 3.0625 C10.33 3.701875 10.66 4.34125 11 5 C10.67 5.66 10.34 6.32 10 7 C8.51719804 6.21516341 7.0388502 5.42190666 5.5625 4.625 C4.73878906 4.18414062 3.91507813 3.74328125 3.06640625 3.2890625 C1 2 1 2 0 0 Z " fill="#5A2F22" transform="translate(683,71)"/>
<path d="M0 0 C1.32 0.33 2.64 0.66 4 1 C3.34 4.96 2.68 8.92 2 13 C1.67 13 1.34 13 1 13 C0.67 8.71 0.34 4.42 0 0 Z " fill="#BFC98D" transform="translate(593,553)"/>
<path d="M0 0 C0.66 0 1.32 0 2 0 C3.32 4.95 4.64 9.9 6 15 C5.01 15 4.02 15 3 15 C2.01 10.05 1.02 5.1 0 0 Z " fill="#E7C1A3" transform="translate(489,392)"/>
<path d="M0 0 C3 0.875 3 0.875 7 3.875 C0.07 3.38 0.07 3.38 -7 2.875 C-3 -0.125 -3 -0.125 0 0 Z " fill="#38271F" transform="translate(718,352.125)"/>
<path d="M0 0 C0.33 0 0.66 0 1 0 C0.88590318 2.10478604 0.75834639 4.20884577 0.625 6.3125 C0.52058594 8.07013672 0.52058594 8.07013672 0.4140625 9.86328125 C0 13 0 13 -2 16 C-2.20413361 10.26157749 -2.27141454 5.39460953 0 0 Z " fill="#592D24" transform="translate(873,147)"/>
<path d="M0 0 C0.99 0.33 1.98 0.66 3 1 C2.33501617 5.38889325 0.81242323 8.9811485 -1 13 C-2.07310858 9.72814447 -1.89263102 7.57052408 -1.0625 4.25 C-0.86785156 3.45078125 -0.67320312 2.6515625 -0.47265625 1.828125 C-0.31667969 1.22484375 -0.16070313 0.6215625 0 0 Z " fill="#CCB19C" transform="translate(570,561)"/>
<path d="M0 0 C0.33 0 0.66 0 1 0 C1.39169887 2.66355234 1.40564529 4.39224373 -0.11328125 6.66796875 C-1.36389317 8.1510888 -2.67864514 9.57954352 -4 11 C-5 8 -5 8 -4.0390625 5.95703125 C-3.57242188 5.24933594 -3.10578125 4.54164063 -2.625 3.8125 C-2.16351562 3.09707031 -1.70203125 2.38164063 -1.2265625 1.64453125 C-0.82179688 1.10183594 -0.41703125 0.55914063 0 0 Z " fill="#C7D58E" transform="translate(584,564)"/>
<path d="M0 0 C0.33 0 0.66 0 1 0 C1.33 2.31 1.66 4.62 2 7 C2.66 7 3.32 7 4 7 C4 8.98 4 10.96 4 13 C3.01 13 2.02 13 1 13 C0.67 8.71 0.34 4.42 0 0 Z " fill="#CBDC8D" transform="translate(616,494)"/>
<path d="M0 0 C0.66 1.32 1.32 2.64 2 4 C1.34 4.66 0.68 5.32 0 6 C-0.16687448 8.58354218 -0.16687448 8.58354218 0 11 C-2.12508244 7.81237635 -2.5020163 5.73487777 -3 2 C-2.01 1.34 -1.02 0.68 0 0 Z " fill="#E6C4A8" transform="translate(660,404)"/>
<path d="M0 0 C3.36720387 1.39332574 4.9859524 2.9789286 7 6 C4.36 5.67 1.72 5.34 -1 5 C-0.67 3.35 -0.34 1.7 0 0 Z " fill="#5D2E21" transform="translate(649,319)"/>
<path d="M0 0 C0.33 0.66 0.66 1.32 1 2 C-3.82142857 8.29464286 -3.82142857 8.29464286 -8 9 C-7.04270084 7.87411986 -6.08412105 6.7493285 -5.125 5.625 C-4.59132813 4.99851562 -4.05765625 4.37203125 -3.5078125 3.7265625 C-2.38567993 2.44163349 -1.20628025 1.20628025 0 0 Z " fill="#592F1E" transform="translate(802,311)"/>
<path d="M0 0 C0.99 0.66 1.98 1.32 3 2 C2 4 1 6 0 8 C-0.66 8 -1.32 8 -2 8 C-2 8.66 -2 9.32 -2 10 C-2.66 9.67 -3.32 9.34 -4 9 C-2.68 6.03 -1.36 3.06 0 0 Z " fill="#DFBB9D" transform="translate(827,624)"/>
<path d="M0 0 C2.375 0.25 2.375 0.25 5 1 C6.375 2.8125 6.375 2.8125 7 5 C6.625 7.25 6.625 7.25 6 9 C4.02 5.535 4.02 5.535 2 2 C1.34 2 0.68 2 0 2 C0 1.34 0 0.68 0 0 Z " fill="#E0C2A7" transform="translate(529,313)"/>
<path d="M0 0 C2.63829259 1.31914629 2.98263229 2.23857335 4 5 C4.0777346 7.33203812 4.08967728 9.66839059 4 12 C2.09681116 9.14521674 1.5380901 7.58058692 0.875 4.3125 C0.70742188 3.50425781 0.53984375 2.69601562 0.3671875 1.86328125 C0.24601563 1.24839844 0.12484375 0.63351562 0 0 Z " fill="#C6D48A" transform="translate(587,525)"/>
<path d="M0 0 C2.32472205 2.85306797 3.7508258 5.54074837 5 9 C4.01 9.495 4.01 9.495 3 10 C2.67 9.01 2.34 8.02 2 7 C1.34 6.67 0.68 6.34 0 6 C-0.6875 3.5 -0.6875 3.5 -1 1 C-0.67 0.67 -0.34 0.34 0 0 Z " fill="#B6C67F" transform="translate(658,432)"/>
<path d="M0 0 C-1.49097658 3.7952131 -3.75700849 5.61042731 -7 8 C-6.44414399 4.1090079 -4.34122117 0 0 0 Z " fill="#090100" transform="translate(767,277)"/>
<path d="M0 0 C1.99097846 2.98646769 2.94124926 5.59687262 4 9 C3.01 9.495 3.01 9.495 2 10 C-1.07692308 5.69230769 -1.07692308 5.69230769 -0.6875 2.1875 C-0.460625 1.465625 -0.23375 0.74375 0 0 Z " fill="#291710" transform="translate(604,207)"/>
<path d="M0 0 C1.32 0 2.64 0 4 0 C4.6875 1.75 4.6875 1.75 5 4 C3.5625 6.25 3.5625 6.25 2 8 C1.34 5.36 0.68 2.72 0 0 Z " fill="#1A0803" transform="translate(639,60)"/>
<path d="M0 0 C-1.2491742 3.45925163 -2.67527795 6.14693203 -5 9 C-5.36666667 3.5 -5.36666667 3.5 -3.625 1.125 C-2 0 -2 0 0 0 Z " fill="#EBC6A8" transform="translate(545,592)"/>
<path d="M0 0 C0.66 0.99 1.32 1.98 2 3 C1.125 6.1875 1.125 6.1875 0 9 C-2 6 -2 6 -1.6875 3.9375 C-1 2 -1 2 0 0 Z " fill="#1D110B" transform="translate(560,520)"/>
<path d="M0 0 C0.33 0.99 0.66 1.98 1 3 C-1 5 -1 5 -4 6 C-4.99 5.34 -5.98 4.68 -7 4 C-4.69 2.68 -2.38 1.36 0 0 Z " fill="#C6D58A" transform="translate(736,486)"/>
<path d="M0 0 C0.99 0.33 1.98 0.66 3 1 C1.4375 2.625 1.4375 2.625 -1 4 C-4.75 3.1875 -4.75 3.1875 -8 2 C-8 1.67 -8 1.34 -8 1 C-6.865625 1.020625 -5.73125 1.04125 -4.5625 1.0625 C-1.18424326 1.41577477 -1.18424326 1.41577477 0 0 Z " fill="#E6C7A6" transform="translate(724,484)"/>
<path d="M0 0 C3.33537489 1.11179163 4.63707344 2.47411298 7 5 C6.67 5.99 6.34 6.98 6 8 C1.125 3.375 1.125 3.375 0 0 Z " fill="#ECC8A7" transform="translate(669,440)"/>
<path d="M0 0 C0 3 0 3 -1 5 C-0.01 5.33 0.98 5.66 2 6 C-0.31 5.67 -2.62 5.34 -5 5 C-5 4.34 -5 3.68 -5 3 C-2.5 1.375 -2.5 1.375 0 0 Z " fill="#563224" transform="translate(590,334)"/>
<path d="M0 0 C0.66 0.33 1.32 0.66 2 1 C1.27683594 1.61488281 1.27683594 1.61488281 0.5390625 2.2421875 C-0.09257813 2.78101563 -0.72421875 3.31984375 -1.375 3.875 C-2.00148438 4.40867187 -2.62796875 4.94234375 -3.2734375 5.4921875 C-4.55836651 6.61432007 -5.79371975 7.79371975 -7 9 C-6.875 6.75 -6.875 6.75 -6 4 C-2.9375 1.6875 -2.9375 1.6875 0 0 Z " fill="#26180F" transform="translate(535,322)"/>
<path d="M0 0 C0.66 0.33 1.32 0.66 2 1 C2.40729228 3.32156597 2.74438677 5.6568787 3 8 C1.35 7.67 -0.3 7.34 -2 7 C-1.34 6.67 -0.68 6.34 0 6 C0 4.02 0 2.04 0 0 Z " fill="#E9C7A8" transform="translate(613,249)"/>
<path d="M0 0 C0.66 1.32 1.32 2.64 2 4 C0.625 7.25 0.625 7.25 -1 10 C-1.66 9.67 -2.32 9.34 -3 9 C-2.01 6.03 -1.02 3.06 0 0 Z " fill="#2B1F17" transform="translate(838,211)"/>
<path d="M0 0 C-1.49097658 3.7952131 -3.75700849 5.61042731 -7 8 C-4.18918919 0 -4.18918919 0 0 0 Z " fill="#F0CCAF" transform="translate(585,191)"/>
<path d="M0 0 C0.33 0.99 0.66 1.98 1 3 C-0.3125 4.5 -0.3125 4.5 -2 6 C-2.99 6 -3.98 6 -5 6 C-3.63016497 2.83884224 -3.0109362 2.0072908 0 0 Z " fill="#0B0706" transform="translate(753,187)"/>
<path d="M0 0 C0.96661363 3.12180401 0.98988909 5.52083795 0.5625 8.75 C0.40974609 9.94882813 0.40974609 9.94882813 0.25390625 11.171875 C0.12822266 12.07679688 0.12822266 12.07679688 0 13 C-0.33 13 -0.66 13 -1 13 C-2.42857143 4.57142857 -2.42857143 4.57142857 0 0 Z " fill="#F1D0B7" transform="translate(812,183)"/>
<path d="M0 0 C0.66 0.66 1.32 1.32 2 2 C4.32275177 2.40047444 6.65739357 2.7397104 9 3 C9 3.33 9 3.66 9 4 C-0.41002278 4.18451025 -0.41002278 4.18451025 -5 3 C-5 2.67 -5 2.34 -5 2 C-3.35 2 -1.7 2 0 2 C0 1.34 0 0.68 0 0 Z " fill="#C5D38B" transform="translate(653,804)"/>
<path d="M0 0 C0.66 0 1.32 0 2 0 C1.34 3.63 0.68 7.26 0 11 C-0.33 11 -0.66 11 -1 11 C-1.02688151 9.35425434 -1.04634123 7.70838587 -1.0625 6.0625 C-1.07410156 5.14597656 -1.08570313 4.22945312 -1.09765625 3.28515625 C-1 1 -1 1 0 0 Z " fill="#BDCB85" transform="translate(584,587)"/>
<path d="M0 0 C0.66 0.33 1.32 0.66 2 1 C1.67 2.32 1.34 3.64 1 5 C2.32 5.33 3.64 5.66 5 6 C2.69 6.33 0.38 6.66 -2 7 C-1.34 4.69 -0.68 2.38 0 0 Z " fill="#DCBCA4" transform="translate(830,250)"/>
<path d="M0 0 C1.89213369 2.38573379 3.02391783 4.07175348 4 7 C3.01 7.33 2.02 7.66 1 8 C0.26919734 6.02253397 -0.39421747 4.01927511 -1 2 C-0.67 1.34 -0.34 0.68 0 0 Z " fill="#D5B79A" transform="translate(605,215)"/>
<path d="M0 0 C5.75 -0.125 5.75 -0.125 8 1 C8 1.66 8 2.32 8 3 C7.34 3 6.68 3 6 3 C6 3.66 6 4.32 6 5 C5.01 4.67 4.02 4.34 3 4 C3.33 3.34 3.66 2.68 4 2 C2.68 1.34 1.36 0.68 0 0 Z " fill="#30221A" transform="translate(591,198)"/>
<path d="M0 0 C1.98 0.66 3.96 1.32 6 2 C5.67 3.65 5.34 5.3 5 7 C2.47411298 4.63707344 1.11179163 3.33537489 0 0 Z " fill="#603026" transform="translate(579,176)"/>
<path d="M0 0 C2.64 0.33 5.28 0.66 8 1 C6.515 2.485 6.515 2.485 5 4 C2.525 3.01 2.525 3.01 0 2 C0 1.34 0 0.68 0 0 Z " fill="#E3BEA2" transform="translate(797,168)"/>
<path d="M0 0 C0.33 0.66 0.66 1.32 1 2 C1.66 2 2.32 2 3 2 C3.33 2.99 3.66 3.98 4 5 C2.5625 7.1875 2.5625 7.1875 1 9 C0.67 6.03 0.34 3.06 0 0 Z " fill="#F6CDAC" transform="translate(828,650)"/>
<path d="M0 0 C0.66 0.33 1.32 0.66 2 1 C2.625 3.5625 2.625 3.5625 3 6 C0.53199953 4.84826645 -1.04783565 3.95216435 -3 2 C-2.01 1.34 -1.02 0.68 0 0 Z " fill="#26150D" transform="translate(733,235)"/>
<path d="M0 0 C3.08089673 2.77280706 4.68775452 5.06326356 6 9 C5.34 9 4.68 9 4 9 C0 2.25 0 2.25 0 0 Z " fill="#55321C" transform="translate(850,59)"/>
<path d="M0 0 C5.445 1.485 5.445 1.485 11 3 C6.44968209 4.13757948 4.36915594 3.4283779 0 2 C0 1.34 0 0.68 0 0 Z " fill="#57311F" transform="translate(789,17)"/>
</svg>
