<?xml version="1.0" encoding="UTF-8"?>
<svg version="1.1" xmlns="http://www.w3.org/2000/svg" width="1400" height="840">
<path d="M0 0 C14.86103186 14.61409629 27.14587797 31.74868996 31.5859375 52.54296875 C31.87984375 53.82558594 32.17375 55.10820313 32.4765625 56.4296875 C36.78835746 77.47296589 36.42674207 101.63823953 31.5859375 122.54296875 C31.39837891 123.3716748 31.21082031 124.20038086 31.01757812 125.05419922 C30.41947941 127.64063744 29.79316698 130.2177776 29.1484375 132.79296875 C28.95548096 133.56809814 28.76252441 134.34322754 28.5637207 135.1418457 C27.55463316 138.89805375 26.45530701 141.90111646 24.30078125 145.15234375 C22.19374079 148.43172213 22.19374079 148.43172213 23.31640625 151.875 C23.73535156 153.08542969 24.15429688 154.29585937 24.5859375 155.54296875 C26.29696554 172.21910768 23.36085033 187.19867247 14.5859375 201.54296875 C13.6578125 202.28675781 12.7296875 203.03054688 11.7734375 203.796875 C9.3842947 206.24621948 9.3842947 206.24621948 9.48193359 208.74780273 C9.82575634 211.56048599 10.35389511 214.27505719 10.9609375 217.04296875 C11.16138672 218.05311035 11.36183594 219.06325195 11.56835938 220.10400391 C12.20721854 223.25849387 12.89117318 226.4003606 13.5859375 229.54296875 C13.79637695 230.52749023 14.00681641 231.51201172 14.22363281 232.52636719 C14.82609433 235.32805046 15.44912974 238.12390516 16.0859375 240.91796875 C16.27462402 241.75392578 16.46331055 242.58988281 16.65771484 243.45117188 C20.53232831 259.54522211 29.7386196 272.39708304 40.5859375 284.54296875 C41.39804687 285.4659375 42.21015625 286.38890625 43.046875 287.33984375 C46.99995609 291.79211938 51.03922139 296.08166739 55.37109375 300.16796875 C56.5859375 301.54296875 56.5859375 301.54296875 56.5859375 303.54296875 C39.86275693 305.85218299 23.68205933 304.00108436 7.02758789 301.81835938 C4.49860976 301.48692971 4.49860976 301.48692971 1.5859375 301.54296875 C5.5459375 303.52296875 9.5059375 305.50296875 13.5859375 307.54296875 C9.94467838 309.97047483 6.42860803 310.6840916 2.2109375 311.54296875 C1.35983398 311.71666992 0.50873047 311.89037109 -0.36816406 312.06933594 C-12.90171251 314.42241143 -25.70143416 314.8917179 -38.4140625 315.54296875 C-37.43308594 316.31125 -36.45210937 317.07953125 -35.44140625 317.87109375 C-32.46875 320.19921875 -32.46875 320.19921875 -31.9765625 323.29296875 C-32.4140625 325.54296875 -32.4140625 325.54296875 -33.4140625 326.54296875 C-50.13215422 328.26103351 -66.95171296 322.59544751 -80.125 312.53515625 C-83.86750842 309.27802435 -85.83482374 306.28068502 -87.4140625 301.54296875 C-89.84189094 303.97079719 -88.72435865 310.85983556 -88.73535156 314.26733398 C-88.61990895 323.12287449 -86.94334467 331.09167764 -84.4140625 339.54296875 C-84.10210938 340.61675781 -83.79015625 341.69054687 -83.46875 342.796875 C-81.02008539 350.35892747 -77.50911238 356.17588016 -70.2890625 359.95703125 C-68.67264535 360.71264947 -67.04690358 361.44852917 -65.4140625 362.16796875 C-64.07371948 362.78357666 -64.07371948 362.78357666 -62.70629883 363.41162109 C-53.91054165 367.41488003 -45.01170725 371.19317723 -36.1355896 375.01431274 C-13.17027448 384.90564375 9.5890796 394.90102779 19.83384705 419.54481506 C23.1520394 428.53487512 25.17968992 437.44199224 26.83984375 446.8515625 C27.13074699 448.4485514 27.42273924 450.04534225 27.7157135 451.64195251 C28.34759547 455.09712076 28.97225164 458.55349123 29.59161377 462.01092529 C30.62483261 467.7733304 31.68028358 473.53156153 32.73779297 479.28955078 C34.63210289 489.61563448 36.50800936 499.94497718 38.37719727 510.27563477 C39.34770828 515.63880458 40.32290071 521.00111298 41.29904842 526.36325932 C42.05888639 530.54143467 42.8155974 534.72017179 43.57141304 538.89907646 C43.93030402 540.88044345 44.29033904 542.86160359 44.65156364 544.84254646 C45.14983694 547.57681844 45.64371471 550.31184899 46.13647461 553.04711914 C46.28443985 553.8535788 46.43240509 554.66003845 46.58485413 555.49093628 C47.19833479 558.91987903 47.5859375 562.04628613 47.5859375 565.54296875 C44.6159375 566.20296875 41.6459375 566.86296875 38.5859375 567.54296875 C38.9159375 568.53296875 39.2459375 569.52296875 39.5859375 570.54296875 C39.88157468 573.13872791 40.13479861 575.72336155 40.35449219 578.32568359 C40.45984283 579.52271361 40.45984283 579.52271361 40.56732178 580.74392605 C40.80119386 583.41361071 41.02961267 586.08373117 41.2578125 588.75390625 C41.42208962 590.64786086 41.58658391 592.54179665 41.75128174 594.43571472 C42.19356361 599.53780873 42.63028426 604.64036364 43.06518555 609.74309158 C43.33523791 612.90976526 43.60646711 616.07633634 43.87792969 619.2428894 C46.20796429 646.45499203 48.44656868 673.67248623 50.42628479 700.91248322 C50.58500018 703.09259379 50.74520239 705.27259122 50.90563965 707.45257568 C51.20149227 711.48355585 51.48846989 715.51511039 51.7734375 719.546875 C51.85740784 720.69907028 51.94137817 721.85126556 52.02789307 723.03837585 C52.67309381 732.4136062 52.96965422 741.79346399 52.1484375 751.16796875 C52.06722656 752.15023437 51.98601562 753.1325 51.90234375 754.14453125 C51.5859375 756.54296875 51.5859375 756.54296875 50.5859375 758.54296875 C45.07986449 760.06490876 39.3766043 759.7338175 33.7109375 759.73046875 C32.04140015 759.73143555 32.04140015 759.73143555 30.33813477 759.73242188 C21.93161698 759.67875676 13.85710061 759.04926187 5.5859375 757.54296875 C2.60933717 750.51653937 0.2382817 743.45908655 -1.7890625 736.10546875 C-2.08868896 735.02056152 -2.38831543 733.9356543 -2.69702148 732.81787109 C-11.70818489 699.62536376 -16.66475916 665.64294463 -21.97802353 631.71397781 C-22.28796646 629.73745823 -22.59937921 627.76116932 -22.91079712 625.78488159 C-23.49758484 622.05265487 -24.0779165 618.31948249 -24.65625 614.5859375 C-24.83406509 613.45927673 -25.01188019 612.33261597 -25.19508362 611.17181396 C-25.43665443 609.59826141 -25.43665443 609.59826141 -25.68310547 607.99291992 C-25.82489227 607.08144699 -25.96667908 606.16997406 -26.11276245 605.23088074 C-26.43961162 602.3150438 -26.46442525 599.47465587 -26.4140625 596.54296875 C-27.0740625 596.54296875 -27.7340625 596.54296875 -28.4140625 596.54296875 C-28.5697168 597.32776611 -28.5697168 597.32776611 -28.72851562 598.12841797 C-29.68063439 602.90992653 -30.64729559 607.68818429 -31.62915039 612.46368408 C-32.23841864 615.43239166 -32.84232427 618.40218064 -33.44580078 621.37207031 C-33.75587212 622.89235755 -34.06801849 624.41222316 -34.38232422 625.93164062 C-37.19369443 639.53713846 -39.83306319 653.2804003 -39.7265625 667.23046875 C-39.72092285 668.05877197 -39.7152832 668.8870752 -39.70947266 669.74047852 C-39.16780568 698.29061852 -30.56660343 726.36816008 -14.84765625 750.20703125 C-13.4140625 752.54296875 -13.4140625 752.54296875 -13.4140625 754.54296875 C-12.7540625 754.54296875 -12.0940625 754.54296875 -11.4140625 754.54296875 C-8.98245645 757.9098079 -8.4140625 759.27647239 -8.4140625 763.54296875 C-32.84237996 767.11024563 -57.0666635 769.45214456 -81.7265625 770.66796875 C-82.6161264 770.71262268 -83.50569031 770.75727661 -84.42221069 770.80328369 C-142.04474782 773.65286306 -198.69039753 767.07764598 -255.4140625 757.54296875 C-254.36405819 748.8816598 -250.94290873 742.00926819 -246.9140625 734.35546875 C-245.63567594 731.87036582 -244.36948679 729.3791558 -243.10546875 726.88671875 C-242.78989517 726.26593948 -242.47432159 725.64516022 -242.14918518 725.00556946 C-234.75499498 710.39223988 -228.28562497 695.48569108 -224.4140625 679.54296875 C-224.17042969 678.58519531 -223.92679688 677.62742187 -223.67578125 676.640625 C-217.08651237 645.39762901 -227.68786762 614.19701401 -239.94970703 585.88720703 C-246.4140625 570.87727645 -246.4140625 570.87727645 -246.4140625 564.54296875 C-247.4040625 564.54296875 -248.3940625 564.54296875 -249.4140625 564.54296875 C-250.4040625 561.57296875 -251.3940625 558.60296875 -252.4140625 555.54296875 C-253.4040625 556.53296875 -254.3940625 557.52296875 -255.4140625 558.54296875 C-263.62241598 560.82306694 -271.46061491 557.84358662 -278.99609375 554.34375 C-282.0151929 553.34388679 -283.45139043 553.37991655 -286.4140625 554.54296875 C-288.35104708 556.81804635 -288.35104708 556.81804635 -290.1015625 559.73046875 C-297.55300145 570.240522 -308.71237849 577.57919351 -319.4140625 584.54296875 C-354.10322832 537.13816016 -369.7439052 488.03908507 -360.92675781 429.29638672 C-360.38968505 426.00204697 -359.84167872 422.70973481 -359.2890625 419.41796875 C-357.0650412 406.1078566 -356.22975988 392.61504039 -357.9296875 379.1796875 C-358.36654657 375.62095127 -358.46186829 372.15184757 -358.44921875 368.56640625 C-358.45352185 349.48214582 -361.80677662 333.10337225 -372.02124023 316.79077148 C-376.68124007 309.2702424 -378.97070141 302.48783412 -377.4140625 293.54296875 C-375.56224653 289.13445202 -373.43230698 284.86710204 -369.35696411 282.19334412 C-367.26240059 280.7173657 -367.26240059 280.7173657 -366.79464722 278.47865295 C-366.7385025 277.6865593 -366.68235779 276.89446564 -366.62451172 276.07836914 C-366.55118622 275.17635269 -366.47786072 274.27433624 -366.40231323 273.34498596 C-366.31144943 271.88257729 -366.31144943 271.88257729 -366.21875 270.390625 C-366.14036896 269.38011581 -366.06198792 268.36960663 -365.98123169 267.32847595 C-365.73294002 264.08850511 -365.50992384 260.84741494 -365.2890625 257.60546875 C-364.98192868 253.36657506 -364.66451196 249.12850718 -364.34375 244.890625 C-364.26870239 243.87571487 -364.19365479 242.86080475 -364.11633301 241.81513977 C-363.65039679 235.76430837 -362.92978604 229.85208827 -361.81103516 223.88305664 C-361.20668942 220.3205389 -361.1153221 216.83638806 -361.1640625 213.23046875 C-361.16986328 212.1324292 -361.16986328 212.1324292 -361.17578125 211.01220703 C-361.32779878 200.82492084 -362.39532438 190.67345236 -363.4140625 180.54296875 C-356.8671875 177.44140625 -356.8671875 177.44140625 -352.7890625 178.35546875 C-347.08439835 181.37408027 -344.68782347 187.21216306 -342.8515625 193.12109375 C-341.25891054 198.62201648 -340.605379 204.03378018 -340.1640625 209.73046875 C-340.04067505 211.22960815 -340.04067505 211.22960815 -339.91479492 212.7590332 C-339.30124499 221.09191294 -338.67148861 230.26165503 -340.93212891 238.41040039 C-341.48233173 240.84506184 -341.52693413 243.03202085 -341.51171875 245.52734375 C-341.50849609 246.46191406 -341.50527344 247.39648438 -341.50195312 248.359375 C-341.49357422 249.32746094 -341.48519531 250.29554688 -341.4765625 251.29296875 C-341.47205078 252.27652344 -341.46753906 253.26007813 -341.46289062 254.2734375 C-341.45112733 256.69667666 -341.43468934 259.11979148 -341.4140625 261.54296875 C-340.72699219 261.44250244 -340.03992188 261.34203613 -339.33203125 261.23852539 C-338.43097656 261.12371826 -337.52992188 261.00891113 -336.6015625 260.890625 C-335.70824219 260.76953369 -334.81492187 260.64844238 -333.89453125 260.52368164 C-331.4140625 260.54296875 -331.4140625 260.54296875 -328.4140625 262.98046875 C-327.7540625 263.82609375 -327.0940625 264.67171875 -326.4140625 265.54296875 C-324.16607603 265.76789182 -324.16607603 265.76789182 -322.2265625 263.54296875 C-318.60774431 260.96958693 -316.77798847 260.93048791 -312.4140625 261.54296875 C-311.5478125 262.20296875 -310.6815625 262.86296875 -309.7890625 263.54296875 C-305.23064751 266.24425171 -301.63190453 265.76676914 -296.4375 265.48828125 C-293.37486931 265.54367767 -291.84445887 265.70020343 -289.4140625 267.54296875 C-288.7265625 269.390625 -288.7265625 269.390625 -288.4140625 271.60546875 C-287.3407425 277.49931364 -284.89942917 282.52676499 -282.265625 287.875 C-276.80551171 299.8601423 -279.37996484 311.33967977 -283.55761719 323.2578125 C-286.93203149 332.26138089 -291.06835251 340.97301272 -295.4140625 349.54296875 C-294.7540625 350.20296875 -294.0940625 350.86296875 -293.4140625 351.54296875 C-292.70321039 357.58521168 -294.21352592 360.64214711 -297.4140625 365.54296875 C-298.0740625 365.54296875 -298.7340625 365.54296875 -299.4140625 365.54296875 C-300.75634212 393.28908917 -300.75634212 393.28908917 -295.4140625 419.54296875 C-288.84998773 411.96085461 -283.45757698 404.21741574 -278.4140625 395.54296875 C-278.06424316 394.94484375 -277.71442383 394.34671875 -277.35400391 393.73046875 C-273.1351988 386.82397521 -273.1351988 386.82397521 -269.62362671 379.56990051 C-267.93944388 375.5261196 -266.99000062 373.85749464 -263.03076172 371.6953125 C-261.64518511 371.25706985 -260.24806167 370.85435093 -258.84375 370.48046875 C-258.06667694 370.2477124 -257.28960388 370.01495605 -256.48898315 369.77514648 C-253.80731198 368.98927744 -251.11460396 368.26123832 -248.4140625 367.54296875 C-247.40702271 367.27129883 -246.39998291 366.99962891 -245.36242676 366.71972656 C-236.25506963 364.27726574 -227.11950531 361.94495945 -217.97460938 359.64746094 C-214.49550487 358.77049658 -211.02109957 357.87654153 -207.546875 356.98046875 C-206.5059671 356.72402588 -205.4650592 356.46758301 -204.39260864 356.20336914 C-193.69401022 353.42251843 -179.84403337 348.68243343 -173.734375 338.8359375 C-168.93419249 329.15198721 -164.97518986 317.46414571 -165.4140625 306.54296875 C-166.25066406 306.94128906 -167.08726562 307.33960938 -167.94921875 307.75 C-186.33771354 316.11951424 -205.49032156 317.45978561 -225.4140625 314.54296875 C-223.93103848 310.0938967 -220.33120749 307.79717483 -216.4140625 305.54296875 C-215.7540625 305.54296875 -215.0940625 305.54296875 -214.4140625 305.54296875 C-214.1046875 304.92421875 -213.7953125 304.30546875 -213.4765625 303.66796875 C-212.7890625 302.29296875 -212.1015625 300.91796875 -211.4140625 299.54296875 C-212.88939453 299.97609375 -212.88939453 299.97609375 -214.39453125 300.41796875 C-235.67240415 306.2643102 -255.81293773 304.10055083 -276.4140625 296.54296875 C-276.04727955 294.00613753 -275.77261458 292.84251724 -273.77172852 291.17089844 C-272.73036743 290.57390137 -272.73036743 290.57390137 -271.66796875 289.96484375 C-270.53584961 289.30742188 -270.53584961 289.30742188 -269.38085938 288.63671875 C-268.58744141 288.19328125 -267.79402344 287.74984375 -266.9765625 287.29296875 C-266.18701172 286.8340625 -265.39746094 286.37515625 -264.58398438 285.90234375 C-258.72007533 282.54296875 -258.72007533 282.54296875 -256.4140625 282.54296875 C-256.4140625 281.88296875 -256.4140625 281.22296875 -256.4140625 280.54296875 C-256.98511719 280.50558594 -257.55617188 280.46820313 -258.14453125 280.4296875 C-265.42015702 279.8397719 -272.33972758 278.30600833 -279.4140625 276.54296875 C-279.08792969 275.65738281 -278.76179687 274.77179688 -278.42578125 273.859375 C-274.16585243 261.78329359 -270.98358222 250.02595424 -271.77368164 237.14038086 C-272.39360445 226.22219251 -272.39360445 226.22219251 -269.1171875 222.109375 C-267.25004767 220.15014835 -265.3392749 218.57042047 -263.2109375 216.8671875 C-260.10633158 214.28724263 -258.48875867 211.96621744 -256.4140625 208.54296875 C-256.92195312 208.04410156 -257.42984375 207.54523438 -257.953125 207.03125 C-269.86807014 194.60311433 -273.85295714 179.15331521 -273.85131836 162.35253906 C-273.71572727 157.07565277 -273.0683355 152.88474756 -270.19140625 148.33203125 C-268.64340059 144.76928457 -270.37844651 141.63435468 -271.71875 138.1953125 C-272.24061296 136.95636685 -272.76412166 135.71811344 -273.2890625 134.48046875 C-287.00183252 101.12022168 -280.45303951 59.11361848 -267.5390625 26.35546875 C-261.54688673 12.56568243 -253.75959617 -2.91295314 -239.4140625 -9.45703125 C-228.82883964 -13.4423044 -219.79011836 -11.02420729 -209.4140625 -7.45703125 C-208.43179688 -6.99554688 -207.44953125 -6.5340625 -206.4375 -6.05859375 C-203.28352871 -5.10564916 -203.28352871 -5.10564916 -200.21484375 -7.09765625 C-199.04014671 -7.95125815 -197.87807271 -8.82239936 -196.7265625 -9.70703125 C-182.44931928 -19.88843212 -167.04490181 -27.02138013 -150.4140625 -32.45703125 C-149.66318359 -32.70324219 -148.91230469 -32.94945312 -148.13867188 -33.203125 C-138.99403234 -36.15300872 -129.99548347 -38.42280839 -120.4140625 -39.45703125 C-119.35445312 -39.57949219 -118.29484375 -39.70195313 -117.203125 -39.828125 C-75.58117853 -43.7574696 -30.37995374 -28.80564242 0 0 Z " fill="#050402" transform="translate(860.4140625,54.45703125)"/>
<path d="M0 0 C0.29132813 0.93199219 0.58265625 1.86398437 0.8828125 2.82421875 C3.66137546 11.53613541 6.90220521 19.80441041 11 28 C11.4846875 28.969375 11.969375 29.93875 12.46875 30.9375 C17.84078819 41.22438165 25.14057687 49.53274379 33 58 C33.55171875 58.61746094 34.1034375 59.23492187 34.671875 59.87109375 C42.85463994 68.64123538 53.71330887 74.59335718 64.1015625 80.37109375 C67 82 67 82 70 84 C70 84.66 70 85.32 70 86 C85.72601227 78.62454971 85.72601227 78.62454971 99.171875 67.765625 C101 66 101 66 103 66 C103.25523437 65.42894531 103.51046875 64.85789062 103.7734375 64.26953125 C105.13455763 61.75102552 106.75018026 59.84989169 108.625 57.6875 C120.69442173 42.80407831 125.17849913 27.0280072 125 8 C136.26547106 12.09092836 147.116089 16.99974108 158 22 C158.79116211 22.36061523 159.58232422 22.72123047 160.39746094 23.09277344 C179.35320432 31.74248158 197.2777013 41.39254068 207.25 60.5625 C207.56727051 61.15611328 207.88454102 61.74972656 208.21142578 62.36132812 C213.59924688 73.33515608 215.39872809 86.45328638 217.77859497 98.33425903 C218.51347311 102.00184886 219.26016376 105.66702643 220.0078125 109.33203125 C220.24513847 110.49607735 220.24513847 110.49607735 220.48725891 111.68363953 C221.69810619 117.59369424 222.95979503 123.49180838 224.2421875 129.38671875 C224.4327774 130.26320572 224.62336731 131.13969269 224.81973267 132.04273987 C225.01118866 132.92316452 225.20264465 133.80358917 225.39990234 134.71069336 C228.66048087 149.70829405 231.80972888 164.71249279 234.5625 179.8125 C234.69069122 180.50908722 234.81888245 181.20567444 234.95095825 181.92337036 C237.14954377 193.93017299 237.14954377 193.93017299 237 199 C230.17302297 201.36291226 223.30641211 203.32099675 216.3125 205.125 C215.30638672 205.38925781 214.30027344 205.65351562 213.26367188 205.92578125 C204.32512575 208.2473285 196.35988668 209.13642459 187.125 209.0625 C186.05507813 209.05798828 184.98515625 209.05347656 183.8828125 209.04882812 C181.25515014 209.03709749 178.62760462 209.02068228 176 209 C176.13929932 208.08976074 176.27859863 207.17952148 176.42211914 206.24169922 C181.13671351 173.59705332 178.06617194 138.9877448 161.84765625 109.6796875 C161 108 161 108 161 106 C160.34 106 159.68 106 159 106 C156.74051142 115.1708654 159.0674961 122.14258228 162.16479492 130.70019531 C165.47517122 139.96231966 167.33853851 149.32652294 169 159 C169.18433594 159.96421875 169.36867188 160.9284375 169.55859375 161.921875 C174.54934755 196.72465372 166.08942645 230.08542619 156.515625 263.25317383 C144.3877095 305.49233316 147.06105222 344.7931545 168.484375 383.56640625 C169.31945635 385.04622887 170.15782979 386.52420015 171 388 C171.60231445 389.05936768 171.60231445 389.05936768 172.21679688 390.14013672 C173.14123901 391.76197215 174.07006634 393.38130707 175 395 C173.10733811 396.89266189 169.87455356 396.6018076 167.3359375 396.90234375 C166.64575027 396.98442581 165.95556305 397.06650787 165.24446106 397.15107727 C162.95536629 397.42001685 160.66543137 397.68019919 158.375 397.9375 C157.58348541 398.0264856 156.79197083 398.11547119 155.97647095 398.20715332 C114.13427025 402.86604388 71.96531435 403.73868911 30 400 C29.25947388 399.93419739 28.51894775 399.86839478 27.75598145 399.80059814 C15.10185994 398.65712231 2.55797216 397.04621844 -10 395.125 C-10.86488037 394.99438171 -11.72976074 394.86376343 -12.62084961 394.72918701 C-25.1542833 392.83412026 -37.62508041 390.76807412 -50 388 C-48.52036382 383.96462861 -46.57007832 380.44053008 -44.375 376.75 C-23.72162825 341.15981474 -11.58894042 300.2268358 -21.6875 259.3125 C-24.52996097 249.54154043 -28.81727471 240.44715552 -33.27734375 231.328125 C-38.12170894 221.39732765 -42.2755103 211.72341691 -45 201 C-45.31839844 199.81921875 -45.63679687 198.6384375 -45.96484375 197.421875 C-51.50764148 172.59422805 -48.87969642 146.90150615 -41 123 C-40.62617187 121.86546387 -40.25234375 120.73092773 -39.8671875 119.56201172 C-39.29871094 117.84328857 -39.29871094 117.84328857 -38.71875 116.08984375 C-38.34878906 114.96263916 -37.97882812 113.83543457 -37.59765625 112.67407227 C-36.88866249 110.54314863 -36.1583082 108.41915976 -35.40234375 106.30444336 C-33.23746198 99.98861305 -32.75128252 95.58291281 -34 89 C-36.02138411 92.03207616 -36.78936694 94.28661778 -37.77172852 97.76904297 C-38.10870255 98.95392303 -38.44567657 100.1388031 -38.79286194 101.35958862 C-39.15504567 102.65374097 -39.51705621 103.94794181 -39.87890625 105.2421875 C-40.25438653 106.57125232 -40.63028275 107.9001997 -41.00657654 109.22903442 C-41.794016 112.01392629 -42.5779469 114.79977285 -43.35913086 117.58642578 C-44.35843443 121.15092678 -45.36400498 124.71361908 -46.37191868 128.27569389 C-47.14826466 131.02049186 -47.9224657 133.76589083 -48.69590569 136.51150894 C-49.06591037 137.8248774 -49.43629427 139.13813908 -49.80706978 140.45129013 C-50.32592132 142.29102376 -50.84185295 144.13158012 -51.35766602 145.97216797 C-51.65141617 147.01790985 -51.94516632 148.06365173 -52.24781799 149.14108276 C-52.93421807 151.74997394 -53.50390361 154.34911053 -54 157 C-54.33 157 -54.66 157 -55 157 C-55.05422119 156.38294189 -55.10844238 155.76588379 -55.16430664 155.13012695 C-57.39876247 131.11915725 -62.81576551 109.5053526 -79 91 C-79.54269531 90.37351562 -80.08539062 89.74703125 -80.64453125 89.1015625 C-85.01666318 84.39965906 -90.08387856 81.3034668 -95.62109375 78.08984375 C-98 76 -98 76 -98.74609375 73.30859375 C-97.62366071 68.33110273 -94.75359533 65.07625546 -91.625 61.125 C-90.33173292 59.42897915 -89.04271509 57.72971029 -87.7578125 56.02734375 C-87.11875977 55.18155762 -86.47970703 54.33577148 -85.82128906 53.46435547 C-83.23244751 49.96143769 -80.8252984 46.36945287 -78.5 42.6875 C-78.1282666 42.11596191 -77.7565332 41.54442383 -77.37353516 40.95556641 C-75.45634903 37.87281339 -74.01752308 35.05201851 -72.8503418 31.5871582 C-69.51997242 22.05129384 -69.51997242 22.05129384 -65.27392578 19.11450195 C-61.82049703 17.72694946 -58.41930224 16.73027209 -54.8125 15.8125 C-53.50384196 15.43605563 -52.19681042 15.05391674 -50.89135742 14.66650391 C-48.09822087 13.8442492 -45.29881175 13.0517586 -42.4921875 12.27685547 C-37.73806591 10.94751945 -33.04133326 9.45688365 -28.34375 7.94140625 C-27.5466008 7.68496841 -26.7494516 7.42853058 -25.92814636 7.1643219 C-24.33885509 6.65293718 -22.74963616 6.14132758 -21.16049194 5.62948608 C-17.40941789 4.42414414 -13.65444608 3.23215093 -9.89453125 2.0546875 C-8.91214478 1.74145287 -8.91214478 1.74145287 -7.90991211 1.42189026 C-5.14276023 0.55994328 -2.92043539 0 0 0 Z " fill="#C9DD7C" transform="translate(664,415)"/>
<path d="M0 0 C0.99515625 0.82628906 1.9903125 1.65257813 3.015625 2.50390625 C22.02930044 17.66951092 45.42325364 28.0881657 68.265625 36.06640625 C68.96993652 36.31696777 69.67424805 36.5675293 70.39990234 36.82568359 C96.84825503 46.04461856 125.45955404 49.88127246 153.265625 52.06640625 C153.4107251 53.02716064 153.5558252 53.98791504 153.70532227 54.9777832 C157.26718157 84.87507256 157.26718157 84.87507256 170.203125 111.37890625 C174.68012927 117.26440625 174.00841626 123.00823861 173.265625 130.06640625 C173.20084961 130.78119141 173.13607422 131.49597656 173.06933594 132.23242188 C169.48717989 169.85309215 161.33039041 215.16914999 137.265625 245.06640625 C136.09 246.64421875 136.09 246.64421875 134.890625 248.25390625 C118.99539497 265.28450985 96.7082722 276.93873556 75.24902344 285.29248047 C73.57687406 285.94495629 71.92268999 286.6432021 70.2734375 287.3515625 C62.73539789 289.14307061 55.76640509 286.50130166 48.828125 283.62890625 C47.53430908 283.09982666 47.53430908 283.09982666 46.21435547 282.56005859 C32.47245684 276.78549728 19.69709345 269.35850487 7.86962891 260.29443359 C6.30007886 259.09278416 4.71073026 257.91713622 3.12109375 256.7421875 C-30.25467686 230.8213387 -38.1472868 179.55379529 -43.41552734 140.19628906 C-44.49852147 131.51161928 -45.24745385 122.80456496 -45.734375 114.06640625 C-45.81534424 113.30465088 -45.89631348 112.54289551 -45.97973633 111.75805664 C-46.43714731 105.73438446 -43.83357432 102.5117658 -40.296875 98.00390625 C-36.10173311 92.42337754 -32.3709113 86.85678203 -28.984375 80.75390625 C-26.32416366 76.10374492 -24.05448738 72.51711412 -18.8515625 70.609375 C-18.15289063 70.43019531 -17.45421875 70.25101562 -16.734375 70.06640625 C-15.64511719 69.7209375 -14.55585937 69.37546875 -13.43359375 69.01953125 C-1.72363695 66.00239349 8.49752943 68.15829639 19.265625 73.06640625 C20.750625 74.05640625 20.750625 74.05640625 22.265625 75.06640625 C18.21608077 68.55821017 14.68678398 65.68683077 7.37890625 63.640625 C-2.17594141 61.87831307 -11.76468533 62.22225354 -20.734375 66.06640625 C-20.57582031 65.52757812 -20.41726563 64.98875 -20.25390625 64.43359375 C-18.32392456 57.63067487 -16.69256517 50.76976583 -15.109375 43.87890625 C-14.89128174 42.94095215 -14.67318848 42.00299805 -14.44848633 41.03662109 C-12.55432247 32.70465586 -11.53957632 24.6811383 -11.546875 16.12890625 C-11.54623047 15.34273926 -11.54558594 14.55657227 -11.54492188 13.74658203 C-11.59492646 8.26312486 -12.16944719 3.34803761 -13.734375 -1.93359375 C-8.20411903 -3.09108918 -4.72638947 -3.34223255 0 0 Z " fill="#FBCAA3" transform="translate(671.734375,73.93359375)"/>
<path d="M0 0 C18.64242547 -0.84446029 37.3664493 2.17751029 55.04931641 8.10302734 C55.97099609 8.39822266 56.89267578 8.69341797 57.84228516 8.99755859 C89.07936432 19.59021892 112.56891552 42.46957514 128.04931641 71.10302734 C128.46052734 71.81974609 128.87173828 72.53646484 129.29541016 73.27490234 C142.62440174 97.54715161 141.11614484 133.19642181 134.04931641 159.10302734 C132.30823417 164.871318 130.27619623 170.50613607 128.04931641 176.10302734 C119.79805866 175.84066621 111.31935643 175.40932283 104.04931641 171.10302734 C102.36572266 168.57958984 102.36572266 168.57958984 101.04931641 166.10302734 C100.40994141 165.48427734 99.77056641 164.86552734 99.11181641 164.22802734 C90.76830288 155.63168007 88.46124106 142.49972026 86.36181641 131.16552734 C85.9418712 128.96879267 85.52132399 126.77217297 85.10009766 124.57568359 C84.9213208 123.61927979 84.74254395 122.66287598 84.55834961 121.67749023 C84.24235514 120.07933116 83.89225285 118.48703943 83.48974609 116.90844727 C82.94604496 114.67969457 82.95313376 112.64344725 82.98681641 110.35302734 C82.99583984 109.55380859 83.00486328 108.75458984 83.01416016 107.93115234 C83.02576172 107.32787109 83.03736328 106.72458984 83.04931641 106.10302734 C85.68931641 106.43302734 88.32931641 106.76302734 91.04931641 107.10302734 C91.04931641 105.12302734 91.04931641 103.14302734 91.04931641 101.10302734 C90.21013672 101.02955078 90.21013672 101.02955078 89.35400391 100.95458984 C83.30714554 100.39073488 77.32158882 99.58346708 71.31494141 98.69287109 C68.10160928 98.23260396 64.88423317 97.84663335 61.65869141 97.48193359 C47.2416136 95.83423332 33.18440676 93.3806615 19.04931641 90.10302734 C18.10233887 89.88807617 17.15536133 89.673125 16.1796875 89.45166016 C-5.51611298 84.45613769 -26.3668125 76.70192981 -45.95068359 66.10302734 C-47.8217444 65.10687172 -49.69284078 64.1107829 -51.56396484 63.11474609 C-53.54792192 62.04998564 -55.53099948 60.98358476 -57.51318359 59.91552734 C-58.44227539 59.41617676 -59.37136719 58.91682617 -60.32861328 58.40234375 C-64.37250567 56.19531566 -68.22024245 53.98494968 -71.89599609 51.20068359 C-72.90404297 50.50845703 -73.91208984 49.81623047 -74.95068359 49.10302734 C-78.38131189 49.65334832 -78.38131189 49.65334832 -81.95068359 51.10302734 C-83.69337513 51.38239011 -85.44503928 51.60961189 -87.20068359 51.79052734 C-88.03083984 51.87689453 -88.86099609 51.96326172 -89.71630859 52.05224609 C-91.95068359 52.10302734 -91.95068359 52.10302734 -94.95068359 51.10302734 C-94.72251953 51.83005859 -94.49435547 52.55708984 -94.25927734 53.30615234 C-92.04460323 61.0525461 -91.68664458 67.18113903 -92.95068359 75.10302734 C-93.06831055 75.8576123 -93.1859375 76.61219727 -93.30712891 77.38964844 C-97.0191879 100.56969567 -104.37149527 122.74660979 -117.95068359 142.10302734 C-118.34626465 142.67230957 -118.7418457 143.2415918 -119.14941406 143.828125 C-125.47336442 152.8796806 -132.26085198 161.17363711 -139.95068359 169.10302734 C-140.77826172 170.03888672 -141.60583984 170.97474609 -142.45849609 171.93896484 C-144.95068359 174.10302734 -144.95068359 174.10302734 -147.56787109 174.67724609 C-149.95068359 174.10302734 -149.95068359 174.10302734 -151.64599609 172.37255859 C-167.2345645 145.58236862 -160.31357876 104.84839488 -152.82568359 76.16552734 C-148.18042402 59.55035123 -140.17366314 40.46551711 -124.95068359 31.10302734 C-121.60715512 29.43126311 -117.87426495 29.91623598 -114.20068359 29.91552734 C-113.33958984 29.90763184 -112.47849609 29.89973633 -111.59130859 29.89160156 C-106.43859406 29.90022776 -101.97246407 30.47258222 -96.95068359 31.72802734 C-87.15102777 33.39190333 -78.96316552 27.05522476 -70.95068359 22.10302734 C-49.38041721 8.86371256 -25.30109127 1.33630294 0 0 Z " fill="#69311E" transform="translate(748.95068359375,20.89697265625)"/>
<path d="M0 0 C2.125 -0.4375 2.125 -0.4375 5 0 C10.02806285 4.01999157 11.98770224 8.72279178 13 15 C13.23524305 18.15299939 13.23596018 21.27738609 13.1875 24.4375 C13.18685547 25.23220703 13.18621094 26.02691406 13.18554688 26.84570312 C13.15745383 30.68196451 12.9620128 34.41109128 12.5 38.2199707 C11.96246744 42.90286563 11.83865841 47.5241167 11.83203125 52.234375 C11.82870285 53.07542786 11.82537445 53.91648071 11.82194519 54.78302002 C11.81692236 56.54430602 11.81453541 58.30560138 11.81469727 60.06689453 C11.81249427 62.75699309 11.79424481 65.44669158 11.77539062 68.13671875 C11.77245897 69.85676944 11.77047265 71.57682207 11.76953125 73.296875 C11.76234573 74.09591248 11.75516022 74.89494995 11.74775696 75.71820068 C11.76525418 79.9914168 12.18715088 83.05726648 14 87 C14 87.99 14 88.98 14 90 C12.824375 90.2784375 12.824375 90.2784375 11.625 90.5625 C8.60623658 91.83961627 8.60623658 91.83961627 7.6875 95.625 C7.460625 96.73875 7.23375 97.8525 7 99 C8.65 97.68 10.3 96.36 12 95 C12 95.66 12 96.32 12 97 C15.15423066 96.32943171 15.15423066 96.32943171 16.2109375 93.75 C16.98619 91.918531 17.75703681 90.08519076 18.5234375 88.25 C20 86 20 86 22.6640625 85.1875 C23.43492187 85.125625 24.20578125 85.06375 25 85 C25.67154933 86.28913487 26.33708859 87.58140204 27 88.875 C27.37125 89.59429687 27.7425 90.31359375 28.125 91.0546875 C29 93 29 93 29 95 C31.44480079 94.81171228 31.44480079 94.81171228 34 94 C34.28875 93.401875 34.5775 92.80375 34.875 92.1875 C36.623725 88.78720139 39.54280183 87.44546648 43 86 C45.8125 85.625 45.8125 85.625 48 86 C50.39763185 88.39763185 50.34280586 89.33273498 50.625 92.625 C50.69976563 93.44226563 50.77453125 94.25953125 50.8515625 95.1015625 C50.90054688 95.72804688 50.94953125 96.35453125 51 97 C52.32 97 53.64 97 55 97 C55 94.03 55 91.06 55 88 C57.97 88.33 60.94 88.66 64 89 C64.39832031 90.39025391 64.39832031 90.39025391 64.8046875 91.80859375 C65.15789062 93.00613281 65.51109375 94.20367187 65.875 95.4375 C66.22304688 96.63246094 66.57109375 97.82742188 66.9296875 99.05859375 C67.6608291 102.11691031 67.6608291 102.11691031 70 103 C75.72002566 121.11341458 68.23145174 139.01482568 61.47265625 155.73828125 C59.05065981 161.74373795 56.97246 167.83390351 55 174 C57.475 173.01 57.475 173.01 60 172 C59.84692284 174.67885032 59.58010118 176.44575291 57.59765625 178.33984375 C56.77587891 178.97599609 56.77587891 178.97599609 55.9375 179.625 C54.4834375 180.800625 54.4834375 180.800625 53 182 C53 182.99 53 183.98 53 185 C54.65 185 56.3 185 58 185 C57.86722656 186.12277344 57.73445312 187.24554688 57.59765625 188.40234375 C57.41925488 189.91406062 57.24087037 191.42577947 57.0625 192.9375 C56.97548828 193.67291016 56.88847656 194.40832031 56.79882812 195.16601562 C56.61967592 196.6854917 56.44317486 198.20528221 56.26904297 199.7253418 C56.09956761 201.15819293 55.91798632 202.58971398 55.71923828 204.01879883 C54.72713232 211.58517658 54.7572823 219.19413902 54.75 226.8125 C54.74899292 227.54277405 54.74798584 228.2730481 54.74694824 229.02545166 C54.7662092 249.71341617 56.76528662 266.97616223 68.03515625 284.66796875 C76.49869354 299.02064729 79.55620504 316.06863523 75.75 332.375 C72.23688408 344.54948465 65.55502498 355.19155741 59 365.9375 C53.20201227 375.5532884 47.78882966 385.40623286 44 396 C42.76139166 393.59595006 41.74492021 391.30188688 40.8125 388.75 C39.57623829 385.83682884 38.08396162 383.81777546 35.9375 381.5 C12.41112806 355.69047804 1.19921335 317.69955897 1.74609375 283.24609375 C2.28615956 272.06211777 3.72312877 260.69059275 6.08984375 249.75 C8.79886367 237.01987684 9.407121 224.66038133 9.4375 211.6875 C9.44349213 210.84622559 9.44948425 210.00495117 9.45565796 209.13818359 C9.52827214 193.83731256 7.6365474 179.61468462 3.51953125 164.8828125 C0.68866077 154.70969711 -0.68917483 144.45026557 -1.94067383 133.98046875 C-2.31647601 130.84179258 -2.71241469 127.70612743 -3.11132812 124.5703125 C-3.36313821 122.54441456 -3.61383061 120.51837731 -3.86328125 118.4921875 C-3.97883865 117.57017548 -4.09439606 116.64816345 -4.2134552 115.69821167 C-5.93851873 101.11665925 -5.93851873 101.11665925 -3.53125 95.6875 C-1.3627894 90.46549284 -1.55576342 85.60029932 -1.5 80 C-1.30608036 71.339877 -0.7348745 62.93886537 0.5625 54.375 C2.82174331 38.93348139 3.22748853 23.1100929 0.4375 7.70703125 C0.01367988 5.08464425 -0.077535 2.65072793 0 0 Z " fill="#FACAA3" transform="translate(501,236)"/>
<path d="M0 0 C1.216875 0.4125 2.43375 0.825 3.6875 1.25 C7.67700825 2.57562774 11.67683849 3.86476921 15.6875 5.125 C16.74324219 5.45757812 17.79898438 5.79015625 18.88671875 6.1328125 C31.63712313 9.68436805 43.96291519 8.55331967 56.4765625 4.97265625 C59.65112289 4.09630865 62.74465882 3.47578063 66 3 C66.05607422 4.65322266 66.05607422 4.65322266 66.11328125 6.33984375 C66.85600213 24.69157885 68.19928703 50.19928703 82 64 C84.34915466 78.66046519 81.98690071 92.43575948 73.51171875 104.75390625 C64.48283757 117.14705721 52.32869187 133.46012162 38 140 C24.04056861 139.52966875 7.25465239 123.96198992 -1.890625 114.3828125 C-15.23641409 99.30701371 -26.91865687 79.54551944 -28 59 C-27.14277344 58.443125 -26.28554688 57.88625 -25.40234375 57.3125 C-12.78908304 48.96635702 -4.95165655 40.54994045 -1.59008789 25.27929688 C0.08997778 16.8107063 0.33428287 8.61706951 0 0 Z " fill="#FBCAA3" transform="translate(700,355)"/>
<path d="M0 0 C0.05945801 1.25466064 0.11891602 2.50932129 0.18017578 3.80200195 C1.51375515 31.40473351 3.35919159 58.92028894 5.875 86.4375 C5.93901505 87.13824268 6.00303009 87.83898537 6.06898499 88.56096268 C6.96538068 98.35837051 7.88336617 108.15371239 8.80682373 117.94860077 C9.61091205 126.48746616 10.40758699 135.02703048 11.20361328 143.56665039 C11.6394634 148.24212987 12.08093516 152.91702365 12.52685547 157.59155273 C12.72371126 159.68081943 12.92049308 161.7700931 13.1171875 163.859375 C13.25265991 165.25764275 13.25265991 165.25764275 13.39086914 166.68415833 C13.83893921 171.48215835 14.09276566 176.18111113 14 181 C15.32 181.33 16.64 181.66 18 182 C17.67 184.31 17.34 186.62 17 189 C11.34676577 190.28206477 5.83556363 190.19090017 0.0625 190.1875 C-1.05310303 190.18814453 -2.16870605 190.18878906 -3.31811523 190.18945312 C-11.37896291 190.13793489 -19.07982906 189.58686788 -27 188 C-26.89300781 187.30519531 -26.78601563 186.61039063 -26.67578125 185.89453125 C-25.83931226 178.79803624 -26.14992033 172.43964292 -27.2265625 165.40625 C-27.36198959 164.49402176 -27.49741669 163.58179352 -27.63694763 162.641922 C-29.20815731 152.28051933 -31.1062541 141.98199983 -33.0625 131.6875 C-33.25497314 130.66952332 -33.44744629 129.65154663 -33.64575195 128.60272217 C-43.18226498 73.85155649 -43.18226498 73.85155649 -58.26171875 20.46899414 C-59.14393884 16.32366832 -58.54875662 14.77260205 -56.625 11.0625 C-56.14289062 10.10472656 -55.66078125 9.14695312 -55.1640625 8.16015625 C-54.77992188 7.44730469 -54.39578125 6.73445312 -54 6 C-53.18547363 5.96036133 -52.37094727 5.92072266 -51.53173828 5.87988281 C-30.30063821 4.82518197 -30.30063821 4.82518197 -9.46875 0.8046875 C-6.15245494 0.0353668 -3.38275562 -0.06112699 0 0 Z " fill="#FBCAA3" transform="translate(894,624)"/>
<path d="M0 0 C-0.03480469 0.59683594 -0.06960938 1.19367188 -0.10546875 1.80859375 C-0.48342329 13.92113677 1.81903992 26.62581334 6 38 C6.22139648 38.60247559 6.44279297 39.20495117 6.67089844 39.82568359 C12.81061072 56.2496115 21.19053169 69.54750726 32.47265625 82.9296875 C35 86 35 86 35 87 C17.93736277 87.36514643 2.30824455 87.45931263 -14 82 C-18.34080509 81.47063353 -20.37017871 82.71097792 -24 85 C-17.93396006 89.50837206 -12.05809316 93.25518599 -5 96 C-5 96.33 -5 96.66 -5 97 C-9.28651122 97.28778292 -13.57321203 97.57250377 -17.86010742 97.85449219 C-19.31589129 97.95067301 -20.77162188 98.04766399 -22.22729492 98.14550781 C-24.32977749 98.2866817 -26.43243975 98.42485959 -28.53515625 98.5625 C-29.797229 98.64628906 -31.05930176 98.73007812 -32.35961914 98.81640625 C-42.08009553 99.30663482 -42.08009553 99.30663482 -46 98 C-48.33299825 97.96045766 -50.66708189 97.95598268 -53 98 C-51.87204037 102.10899581 -50.66489182 106.07561214 -49 110 C-61.66436524 110.40852791 -71.22094504 108.04220116 -80.875 99.4375 C-82.33338825 97.76464289 -83.74850352 96.05336319 -85.125 94.3125 C-86.96561073 91.80846331 -86.96561073 91.80846331 -90 90 C-90 89.34 -90 88.68 -90 88 C-88.05078125 86.625 -88.05078125 86.625 -85.3125 85 C-55.61379362 66.49046141 -35.46474549 39.70023017 -26 6 C-24.94941406 5.90203125 -23.89882813 5.8040625 -22.81640625 5.703125 C-15.50501323 4.94926545 -6.4983372 0 0 0 Z " fill="#68311E" transform="translate(866,264)"/>
<path d="M0 0 C0.65484375 0.20496094 1.3096875 0.40992188 1.984375 0.62109375 C8.99972911 2.69201043 15.70286355 3.63068594 23 4 C24.47329791 7.89433132 25.92529943 11.78450016 27.2890625 15.71875 C32.03537953 29.30537212 38.48822173 42.09425423 48 53 C49.0828125 54.24523437 49.0828125 54.24523437 50.1875 55.515625 C52.42631194 58.04185198 54.70398846 60.52577818 57 63 C57.52851562 63.59425781 58.05703125 64.18851562 58.6015625 64.80078125 C66.52836459 73.31701221 77.03767358 80.10392926 87 86 C76.97735646 96.87362271 56.93915938 98.64356452 43 100 C41.00019066 100.02761532 38.9996764 100.03597619 37 100 C37.86625 99.01 38.7325 98.02 39.625 97 C45.87647812 90.66898108 45.87647812 90.66898108 49 83 C40.68017439 82.7171029 40.68017439 82.7171029 32.5 84 C20.33190305 86.75652682 2.09217843 87.11096867 -9 81 C-6.90585727 78.76983718 -4.80888958 77.12227598 -2.20703125 75.51953125 C-1.49482422 75.07802734 -0.78261719 74.63652344 -0.04882812 74.18164062 C0.68916016 73.72982422 1.42714844 73.27800781 2.1875 72.8125 C2.93708984 72.34908203 3.68667969 71.88566406 4.45898438 71.40820312 C6.30372367 70.26845974 8.15156289 69.13373645 10 68 C3.82603912 62.56691443 -5.12465844 62.18441479 -12.9375 60.875 C-14.00291016 60.69324219 -15.06832031 60.51148438 -16.16601562 60.32421875 C-18.7767744 59.87933609 -21.38808415 59.43802909 -24 59 C-25.27981943 55.16054171 -24.25788262 52.6206654 -23.1875 48.875 C-21.73493256 43.65043326 -20.83453024 38.77480209 -20.5612793 33.35864258 C-20.15428204 26.2197341 -19.26861893 22.35112968 -13.875 17.1875 C-12.89660156 16.34960938 -11.91820312 15.51171875 -10.91015625 14.6484375 C-6.26800456 10.42376791 -3.25158061 5.33855498 0 0 Z " fill="#68321E" transform="translate(609,266)"/>
<path d="M0 0 C5.53667483 2.76833741 8.17342305 7.15820726 10.29394531 12.8996582 C12.34024611 19.20283932 13.23939347 25.34638826 13.75 31.9375 C13.8322583 32.93692627 13.9145166 33.93635254 13.99926758 34.96606445 C14.61281751 43.29894419 15.24257389 52.46868628 12.98193359 60.61743164 C12.43173077 63.05209309 12.38712837 65.2390521 12.40234375 67.734375 C12.40717773 69.13623047 12.40717773 69.13623047 12.41210938 70.56640625 C12.42048828 71.53449219 12.42886719 72.50257813 12.4375 73.5 C12.44201172 74.48355469 12.44652344 75.46710938 12.45117188 76.48046875 C12.46293517 78.90370791 12.47937316 81.32682273 12.5 83.75 C13.53060547 83.59930054 13.53060547 83.59930054 14.58203125 83.44555664 C15.48308594 83.33074951 16.38414062 83.21594238 17.3125 83.09765625 C18.65248047 82.91601929 18.65248047 82.91601929 20.01953125 82.73071289 C22.5 82.75 22.5 82.75 25.5 85.1875 C26.16 86.033125 26.82 86.87875 27.5 87.75 C29.74798647 87.97492307 29.74798647 87.97492307 31.6875 85.75 C35.30631819 83.17661818 37.13607403 83.13751916 41.5 83.75 C42.36625 84.41 43.2325 85.07 44.125 85.75 C48.68341499 88.45128296 52.28215797 87.97380039 57.4765625 87.6953125 C60.53919319 87.75070892 62.06960363 87.90723468 64.5 89.75 C65.1875 91.59765625 65.1875 91.59765625 65.5 93.8125 C66.57332 99.70634489 69.01463333 104.73379624 71.6484375 110.08203125 C77.10855079 122.06717355 74.53409766 133.54671102 70.35644531 145.46484375 C66.98203101 154.46841214 62.84570999 163.18004397 58.5 171.75 C59.16 172.41 59.82 173.07 60.5 173.75 C61.21085211 179.79224293 59.70053658 182.84917836 56.5 187.75 C55.84 187.75 55.18 187.75 54.5 187.75 C54.17 188.41 53.84 189.07 53.5 189.75 C51.52 189.75 49.54 189.75 47.5 189.75 C47.17 188.43 46.84 187.11 46.5 185.75 C46.99371094 185.36328125 47.48742187 184.9765625 47.99609375 184.578125 C48.95708984 183.79695313 48.95708984 183.79695313 49.9375 183 C50.57558594 182.48953125 51.21367188 181.9790625 51.87109375 181.453125 C53.68810554 179.55332371 54.10423197 178.31413092 54.5 175.75 C53.18 176.74 51.86 177.73 50.5 178.75 C49.84 178.42 49.18 178.09 48.5 177.75 C49.70203936 174.22698701 50.91196709 170.70674245 52.125 167.1875 C52.48746826 166.13353027 52.84993652 165.07956055 53.22338867 163.99365234 C55.23841217 158.19042017 57.38575145 152.51703755 59.8125 146.875 C64.49463762 135.45670798 66.75698249 122.5488774 65 110.25 C64.835 109.095 64.67 107.94 64.5 106.75 C63.015 106.255 63.015 106.255 61.5 105.75 C60.55078125 103.82421875 60.55078125 103.82421875 59.8125 101.4375 C59.56113281 100.65761719 59.30976562 99.87773437 59.05078125 99.07421875 C58.5 96.75 58.5 96.75 58.5 92.75 C55.53 92.42 52.56 92.09 49.5 91.75 C49.5 94.72 49.5 97.69 49.5 100.75 C48.18 100.75 46.86 100.75 45.5 100.75 C45.36722656 100.11191406 45.23445312 99.47382813 45.09765625 98.81640625 C44.92105469 97.99011719 44.74445312 97.16382813 44.5625 96.3125 C44.38847656 95.48878906 44.21445312 94.66507812 44.03515625 93.81640625 C43.69247006 91.77338796 43.69247006 91.77338796 42.5 90.75 C37.76028284 91.11459363 34.29560125 91.82196475 30.5 94.75 C29.17206394 96.81700655 29.17206394 96.81700655 28.5 98.75 C26.1875 99.0625 26.1875 99.0625 23.5 98.75 C21.30743153 95.9309834 20.14822749 93.25042844 19.5 89.75 C17.85 89.75 16.2 89.75 14.5 89.75 C14.0978125 91.0803125 14.0978125 91.0803125 13.6875 92.4375 C12.58289181 95.51877548 11.27150856 98.01221405 9.5 100.75 C8.18 100.42 6.86 100.09 5.5 99.75 C4.84 100.74 4.18 101.73 3.5 102.75 C2.84 102.75 2.18 102.75 1.5 102.75 C2.25 96 2.25 96 4.5 93.75 C5.82 93.75 7.14 93.75 8.5 93.75 C8.01176758 92.61554443 7.52353516 91.48108887 7.02050781 90.31225586 C5.30093525 85.70627599 5.09505336 81.6291666 5.171875 76.75390625 C5.17374817 75.92092514 5.17562134 75.08794403 5.17755127 74.22972107 C5.18423239 72.47919676 5.19806754 70.72868636 5.21875 68.97827148 C5.24987386 66.32326069 5.25972843 63.6688471 5.265625 61.01367188 C5.27479907 59.30207622 5.28517613 57.59048651 5.296875 55.87890625 C5.30112488 55.09737686 5.30537476 54.31584747 5.30975342 53.51063538 C5.36888105 48.86840359 5.71491374 44.33630456 6.2711792 39.72764587 C6.71333335 35.90620866 6.72492737 32.09238106 6.75 28.25 C6.770625 27.45980469 6.79125 26.66960937 6.8125 25.85546875 C6.85865279 18.80562958 5.37844319 12.7555091 1.625 6.75 C-0.82022007 4.44861641 -2.25764204 4.26364086 -5.5 3.75 C-5.2834375 4.843125 -5.066875 5.93625 -4.84375 7.0625 C-1.86190855 23.2005659 -1.41752993 39.45970995 -3.5 55.75 C-3.83 55.75 -4.16 55.75 -4.5 55.75 C-4.5 53.44 -4.5 51.13 -4.5 48.75 C-5.49 48.75 -6.48 48.75 -7.5 48.75 C-7.48428955 47.88556274 -7.48428955 47.88556274 -7.46826172 47.00366211 C-7.23656198 32.12941886 -7.94481054 17.5429125 -9.5 2.75 C-3.9375 -0.28125 -3.9375 -0.28125 0 0 Z " fill="#060302" transform="translate(506.5,232.25)"/>
<path d="M0 0 C4.97663138 0.71094734 9.13517616 3.35780001 13.0625 6.4375 C18.01594796 14.46762371 16.54934151 25.5577877 14.59106445 34.32739258 C11.25078205 47.98673942 7.28753844 56.5719214 -4.9375 64.4375 C-9.50075206 66.614179 -14.28189239 67.53515347 -19.21875 68.5078125 C-20.5500293 68.77102295 -20.5500293 68.77102295 -21.90820312 69.03955078 C-22.57787109 69.17087402 -23.24753906 69.30219727 -23.9375 69.4375 C-23.15005252 65.10338908 -22.35678382 60.77036285 -21.5625 56.4375 C-21.34078125 55.21675781 -21.1190625 53.99601562 -20.890625 52.73828125 C-17.62597134 34.97472456 -17.62597134 34.97472456 -13.1875 26.75 C-12.86523438 26.11255859 -12.54296875 25.47511719 -12.2109375 24.81835938 C-9.78189398 20.2568416 -7.17616994 17.42215915 -2.9375 14.4375 C1.47811032 14.15565253 3.69046215 15.75602435 6.9375 18.5 C7.98965312 19.46788978 9.03501911 20.44345784 10.0625 21.4375 C8.29263038 16.1539938 8.29263038 16.1539938 4.3125 12.4375 C0.38791748 11.22993615 -1.97723284 11.41076407 -5.9375 12.4375 C-10.12598875 14.77246212 -11.11362634 17.70941001 -12.6875 22.125 C-13.11546875 23.30449219 -13.5434375 24.48398438 -13.984375 25.69921875 C-14.29890625 26.60285156 -14.6134375 27.50648438 -14.9375 28.4375 C-15.91289928 25.30880177 -15.91775502 23.00377776 -15.4140625 19.77734375 C-15.28 18.90142578 -15.1459375 18.02550781 -15.0078125 17.12304688 C-14.86085938 16.21619141 -14.71390625 15.30933594 -14.5625 14.375 C-14.42328125 13.46427734 -14.2840625 12.55355469 -14.140625 11.61523438 C-13.59137874 8.09954019 -13.06504976 4.82014929 -11.9375 1.4375 C-9.72684679 1.16239649 -7.51729228 0.90765785 -5.30078125 0.68359375 C-3.52880327 0.49907373 -1.76212282 0.26244382 0 0 Z " fill="#F4C7A3" transform="translate(864.9375,197.5625)"/>
<path d="M0 0 C1.15242187 0.11085937 2.30484375 0.22171875 3.4921875 0.3359375 C4.36101563 0.43132812 5.22984375 0.52671875 6.125 0.625 C6.79929967 4.01936356 7.4630828 7.41570193 8.125 10.8125 C8.31578125 11.77220703 8.5065625 12.73191406 8.703125 13.72070312 C8.97382812 15.11772461 8.97382812 15.11772461 9.25 16.54296875 C9.41757812 17.39656982 9.58515625 18.2501709 9.7578125 19.12963867 C10.13095229 21.66545103 10.18912996 24.06581397 10.125 26.625 C8.44321339 24.10232009 7.22393258 21.81408177 6 19.0625 C5.47019531 17.88494141 5.47019531 17.88494141 4.9296875 16.68359375 C4.125 14.625 4.125 14.625 4.125 12.625 C-0.95324969 10.86315827 -4.53032382 10.14036773 -9.875 11.625 C-12.94031289 13.77191542 -12.94031289 13.77191542 -14.875 16.625 C-14.83002158 18.90023089 -14.83002158 18.90023089 -13.875 20.625 C-13.2975 19.84125 -12.72 19.0575 -12.125 18.25 C-10.00615878 15.77801857 -8.9425396 14.55455745 -5.875 13.625 C-3.1198249 13.55249539 -1.5686204 14.02771576 0.53125 15.8359375 C2.21740196 17.67456065 3.66344069 19.60293978 5.125 21.625 C5.71796875 22.38039062 6.3109375 23.13578125 6.921875 23.9140625 C13.36900782 33.25413953 14.20259919 43.73455873 15.69775391 54.74316406 C16.33949555 59.07180313 17.21091381 63.34667537 18.125 67.625 C6.0329737 66.9014471 -2.05702569 64.37354484 -10.79296875 55.7265625 C-16.25389641 49.46221478 -18.09875229 42.62257762 -19.875 34.625 C-20.10058594 33.614375 -20.32617188 32.60375 -20.55859375 31.5625 C-22.3065036 22.88322353 -23.0251408 14.76984561 -18.875 6.625 C-13.87817335 0.55216053 -7.51053769 -0.7663814 0 0 Z " fill="#F5C8A4" transform="translate(612.875,198.375)"/>
<path d="M0 0 C-28.683146 28.89099488 -28.683146 28.89099488 -48 29.4375 C-67.18903516 28.80903815 -80.08593685 18.70889803 -93.3125 5.9375 C-96 3 -96 3 -96 1 C-95.41476562 1.17015625 -94.82953125 1.3403125 -94.2265625 1.515625 C-91.16035131 2.38116209 -88.08153884 3.19067277 -85 4 C-84.36739258 4.17644043 -83.73478516 4.35288086 -83.08300781 4.53466797 C-57.66288424 11.54647789 -31.49895663 8.15753691 -6.78173828 -0.31933594 C-3.99006548 -1.00243088 -2.65094686 -0.99360827 0 0 Z " fill="#FBFBFB" transform="translate(784,280)"/>
<path d="M0 0 C0.99 0.33 1.98 0.66 3 1 C3 1.99 3 2.98 3 4 C5.64 4 8.28 4 11 4 C11 3.34 11 2.68 11 2 C11.99 2 12.98 2 14 2 C14 3.65 14 5.3 14 7 C16.92879371 6.37240135 19.36095629 5.41377341 22 4 C21.125 8.75 21.125 8.75 20 11 C20.66 11 21.32 11 22 11 C21.67 11.99 21.34 12.98 21 14 C20.2265625 13.855625 19.453125 13.71125 18.65625 13.5625 C12.67176085 12.49595738 7.07662565 11.76628363 1 12 C1.495 12.99 1.495 12.99 2 14 C2.37593152 18.98109259 2.1765161 22.05673864 -1 26 C-6.50649629 29.95338195 -12.33593888 30.86471381 -19 30 C-24.46341463 27.07317073 -24.46341463 27.07317073 -26 24 C-26.13415472 21.3276379 -26.04318541 18.67749512 -26 16 C-35.80890342 20.32170988 -35.80890342 20.32170988 -44 27 C-45.24681667 30.60167674 -45.24681667 30.60167674 -46 34 C-43.81623234 35.13277268 -41.62842872 36.25622789 -39.4375 37.375 C-38.52387695 37.85066406 -38.52387695 37.85066406 -37.59179688 38.3359375 C-30.88854111 41.74076582 -24.62704041 43.37410344 -17.0625 43.3125 C-16.00699951 43.30621582 -16.00699951 43.30621582 -14.93017578 43.29980469 C-6.090964 43.10715783 0.80250819 40.27639203 7.078125 33.8828125 C11.65537538 28.86458346 11.65537538 28.86458346 15 23 C15.66 23 16.32 23 17 23 C16.4818325 30.51342879 14.43017038 34.88427323 8.875 40.125 C4.70856272 43.54775063 0.05954504 45.27959828 -5 47 C-6.40185547 47.53560547 -6.40185547 47.53560547 -7.83203125 48.08203125 C-17.49296965 50.88144004 -27.55065677 49.73444017 -36.5078125 45.42578125 C-41.55305989 42.53939364 -45.93841379 39.02100139 -49 34 C-48.46977395 25.5855432 -42.05047605 19.73552279 -36.1875 14.1875 C-26.95352481 6.51062651 -15.76887805 4.0091318 -4.06640625 3.44140625 C-1.60768194 3.16749188 -1.60768194 3.16749188 0 0 Z " fill="#070504" transform="translate(807,177)"/>
<path d="M0 0 C0.33128906 0.46664062 0.66257812 0.93328125 1.00390625 1.4140625 C3.97602815 3.77547442 7.28197072 3.88501794 10.9375 4.375 C24.94817496 6.58877264 36.69563429 11.74347839 45.5 23.3125 C46.34978046 24.53035398 47.1851721 25.75848857 48 27 C48.99 28.485 48.99 28.485 50 30 C50.49044588 33.24854478 50.30674051 34.55768775 48.41796875 37.28125 C40.57602401 45.08199363 31.88677832 49.8578042 20.6875 50.375 C10.17741688 50.24913074 -2.15056149 46.10434832 -10 39 C-13.63878937 35.10570242 -15.87251058 31.48204486 -16 26 C-15.34 25.34 -14.68 24.68 -14 24 C-13.52691406 24.72445312 -13.05382812 25.44890625 -12.56640625 26.1953125 C-8.10948658 32.71127693 -4.02704144 37.33696776 3 41 C3.62390625 41.33773437 4.2478125 41.67546875 4.890625 42.0234375 C14.28675848 46.32670871 24.38959531 44.37512753 33.73095703 41.0715332 C38.33644768 39.35189949 42.69770272 37.3706536 47 35 C46.01880184 29.54889912 44.51055596 26.8494753 40.15234375 23.421875 C36.30333063 20.87915127 32.19300478 18.90667823 28 17 C27.90203125 17.68707031 27.8040625 18.37414062 27.703125 19.08203125 C27.55359375 19.98308594 27.4040625 20.88414062 27.25 21.8125 C27.11078125 22.70582031 26.9715625 23.59914062 26.828125 24.51953125 C25.78600666 27.64097061 24.91312683 28.49439405 22 30 C15.44330896 30.86406006 8.50025558 31.0528199 3 27 C-0.12514961 24.09037795 -0.53391588 21.06717495 -1.08203125 17 C-0.98269656 14.57812564 -0.20220741 13.07949389 1 11 C-0.75376953 11.32484375 -0.75376953 11.32484375 -2.54296875 11.65625 C-4.09110418 11.93772917 -5.63928361 12.21896644 -7.1875 12.5 C-7.95642578 12.64308594 -8.72535156 12.78617188 -9.51757812 12.93359375 C-13.39421773 13.63238715 -17.041471 14.19039017 -21 14 C-21 13.34 -21 12.68 -21 12 C-20.34 12 -19.68 12 -19 12 C-19.66 9.69 -20.32 7.38 -21 5 C-18.525 5.99 -18.525 5.99 -16 7 C-16 7.66 -16 8.32 -16 9 C-12.88794071 7.01487051 -12.88794071 7.01487051 -11.25 3.8125 C-11.1675 3.214375 -11.085 2.61625 -11 2 C-10.34 2.66 -9.68 3.32 -9 4 C-5.41656024 4.16677282 -5.41656024 4.16677282 -2 4 C-1.34 2.68 -0.68 1.36 0 0 Z " fill="#060404" transform="translate(660,173)"/>
<path d="M0 0 C-0.10699219 0.58007812 -0.21398437 1.16015625 -0.32421875 1.7578125 C-0.93781852 5.75610775 -1.16924076 8.46241171 0.0625 12.375 C2.58211461 15.78867141 3.90741858 16.72988852 8 18 C16.09249667 19.0554608 16.09249667 19.0554608 23.3515625 16.26953125 C25.18707612 13.74243785 25.56850912 12.33534491 25.75 9.25 C25.83507812 8.05117187 25.83507812 8.05117187 25.921875 6.828125 C25.96054687 5.92320312 25.96054687 5.92320312 26 5 C33.58702285 7.90566832 41.62111417 11.88431052 46 19 C46.37129686 20.65862218 46.71018733 22.32521718 47 24 C34.26745034 30.69651387 22.1133505 36.90720412 7.265625 33.34375 C-3.93007485 29.31051651 -10.25389882 22.13755157 -16 12 C-16.43570313 11.27683594 -16.87140625 10.55367187 -17.3203125 9.80859375 C-20 5.32058566 -20 5.32058566 -20 3 C-17.79344925 2.49219106 -15.58466395 1.99408635 -13.375 1.5 C-11.53035156 1.08234375 -11.53035156 1.08234375 -9.6484375 0.65625 C-6.32847772 0.05908379 -3.36091549 -0.12409534 0 0 Z " fill="#FAFAF9" transform="translate(661,184)"/>
<path d="M0 0 C6.64409958 -0.21432579 12.53205867 0.48766299 19 2 C19 9.78998356 12.82331291 18.64498655 7.5625 24.125 C-0.98486586 31.97224033 -9.59333069 33.47717034 -20.81640625 33.28125 C-29.78744256 32.87356828 -38.66659218 29.12119216 -46 24 C-47 22 -47 22 -46.1875 18.8125 C-43.0996268 11.96485526 -34.67305054 7.83604648 -28 5 C-27.34 5 -26.68 5 -26 5 C-25.91363281 5.68707031 -25.82726562 6.37414062 -25.73828125 7.08203125 C-24.97691264 12.62943652 -24.97691264 12.62943652 -21.9375 17.125 C-14.90224598 19.22060758 -7.50871134 18.47783074 -1 15 C1.57646585 11.28988917 1.24527546 7.41495825 1 3 C0.505 1.515 0.505 1.515 0 0 Z " fill="#FBFBFA" transform="translate(807,188)"/>
<path d="M0 0 C-4.83781833 14.03471255 -20.28996783 27.12200254 -33 34 C-47.2729737 40.17681258 -62.9046797 39.33308367 -77.30078125 33.7109375 C-92.11459961 26.67107973 -101.06515695 16.12642513 -109 2 C-106.37010394 0.68505197 -105.34800019 1.23723301 -102.52734375 1.9609375 C-101.62693359 2.18523437 -100.72652344 2.40953125 -99.79882812 2.640625 C-98.85458984 2.88296875 -97.91035156 3.1253125 -96.9375 3.375 C-85.21647469 6.37321027 -74.3569653 7.23922787 -62.25 7.25 C-61.22255173 7.25101212 -61.22255173 7.25101212 -60.17434692 7.25204468 C-42.9077209 7.22516957 -26.75497322 4.70429198 -10.01538086 0.53833008 C-8.70452515 0.21771606 -8.70452515 0.21771606 -7.3671875 -0.109375 C-6.20872314 -0.40279785 -6.20872314 -0.40279785 -5.02685547 -0.70214844 C-3 -1 -3 -1 0 0 Z M-16.875 6.1875 C-41.4244725 13.32902771 -65.12962829 15.93659119 -90 9 C-91.17304687 8.69191406 -92.34609375 8.38382812 -93.5546875 8.06640625 C-96.04530514 7.40414278 -98.52544386 6.71947447 -101 6 C-96.33326731 16.61919786 -83.15971687 25.64526213 -72.83203125 30.484375 C-62.28815655 34.41164817 -50.69548286 36.22549603 -39.9375 32.0625 C-26.32101997 25.60687799 -15.49458566 15.59335823 -5 5 C-9.15794328 3.24418457 -12.8082535 4.91866093 -16.875 6.1875 Z " fill="#0D0907" transform="translate(789,275)"/>
<path d="M0 0 C5.49273852 0.65457506 7.41596767 3.03392093 10.87109375 7.125 C19.60689017 18.92233242 23.63957071 29.24626659 23 44 C22.97486328 44.66499512 22.94972656 45.32999023 22.92382812 46.01513672 C22.34828747 58.30410436 18.4938756 68.07613107 13 79 C11.58891549 74.76674647 13.07623202 71.95110152 14.40625 67.7890625 C16.30186304 55.69205826 12.39254488 44.68244633 8.625 33.375 C7.6334726 30.34262152 6.648815 27.308022 5.6640625 24.2734375 C5.42874817 23.55057556 5.19343384 22.82771362 4.95098877 22.08294678 C-0.20154677 6.19036509 -0.20154677 6.19036509 0 0 Z " fill="#F6C7A3" transform="translate(570,504)"/>
<path d="M0 0 C0.33 0.66 0.66 1.32 1 2 C0.0625 4.125 0.0625 4.125 -1 6 C-0.071875 5.938125 0.85625 5.87625 1.8125 5.8125 C5 6 5 6 6.75 7.125 C9.98180578 11.97270867 10.70750323 17.28470043 10 23 C8.36731916 28.15583423 6.70343174 31.23929007 2 34 C-0.26783943 34.61025497 -2.53098623 35.06824202 -4.83984375 35.49609375 C-7.6031473 36.14069801 -9.69824729 37.36649808 -12 39 C-14.58864749 31.23405752 -11.23724155 20.25400822 -7.828125 13.06640625 C-2.28840813 2.28840813 -2.28840813 2.28840813 0 0 Z " fill="#F3C6A3" transform="translate(857,216)"/>
<path d="M0 0 C3.65017495 1.95241916 5.27844355 4.06482098 7.6875 7.4375 C7.6875 8.4275 7.6875 9.4175 7.6875 10.4375 C4.31246331 9.2516763 2.04027269 8.16176311 -0.3125 5.4375 C-2.61310534 7.3003949 -2.61310534 7.3003949 -2.5078125 10.2578125 C-2.48460937 11.34835938 -2.46140625 12.43890625 -2.4375 13.5625 C-2.41945313 14.65820312 -2.40140625 15.75390625 -2.3828125 16.8828125 C-2.35960937 17.72585937 -2.33640625 18.56890625 -2.3125 19.4375 C-1.22582031 19.89189453 -1.22582031 19.89189453 -0.1171875 20.35546875 C2.85745366 21.64447992 5.77680531 23.0102172 8.6875 24.4375 C9.33460938 24.75203125 9.98171875 25.0665625 10.6484375 25.390625 C13.72287156 27.3570143 14.69558296 29.46458716 15.7109375 32.8671875 C16.48169849 36.38157478 17.13905337 39.8822188 17.6875 43.4375 C6.43638944 42.83771653 -0.58617426 40.60886876 -9.3125 33.4375 C-8.6525 32.1175 -7.9925 30.7975 -7.3125 29.4375 C-6.9825 29.7675 -6.6525 30.0975 -6.3125 30.4375 C-5.3225 30.1075 -4.3325 29.7775 -3.3125 29.4375 C-3.3125 28.7775 -3.3125 28.1175 -3.3125 27.4375 C-2.3225 27.4375 -1.3325 27.4375 -0.3125 27.4375 C-1.075625 26.963125 -1.83875 26.48875 -2.625 26 C-6.72512687 22.09057671 -8.22834566 17.6827016 -8.375 12.02734375 C-8.01345915 7.51561525 -7.15952131 4.08168728 -4.3125 0.4375 C-2.3125 -0.5625 -2.3125 -0.5625 0 0 Z " fill="#F4C6A2" transform="translate(613.3125,222.5625)"/>
<path d="M0 0 C2.96536644 2.96536644 2.29021895 5.63870528 2.328125 9.69702148 C2.32296875 10.72512939 2.3178125 11.7532373 2.3125 12.8125 C2.31121094 13.85027588 2.30992187 14.88805176 2.30859375 15.95727539 C2.21218956 23.6786486 1.38062369 30.61723248 -1 38 C-7.54344169 37.643085 -12.71137595 36.0040786 -18 32 C-18.33 31.01 -18.66 30.02 -19 29 C-17.62480397 26.61006681 -16.21308484 24.42965275 -14.625 22.1875 C-13.70197208 20.84714739 -12.78012577 19.50598041 -11.859375 18.1640625 C-11.1487793 17.13587402 -11.1487793 17.13587402 -10.42382812 16.08691406 C-8.17347143 12.78855175 -6.02234947 9.42848558 -3.875 6.0625 C-3.48521973 5.45365967 -3.09543945 4.84481934 -2.69384766 4.2175293 C-1.79466266 2.81247628 -0.89712799 1.4063673 0 0 Z " fill="#C8DB7F" transform="translate(599,570)"/>
<path d="M0 0 C0 0.99 0 1.98 0 3 C-1 4 -2 5 -3 6 C-3.309375 6.804375 -3.61875 7.60875 -3.9375 8.4375 C-5 11 -5 11 -7.0625 13 C-9.34696679 15.35815927 -9.49372346 16.82663777 -10 20 C-7.81623234 21.13277268 -5.62842872 22.25622789 -3.4375 23.375 C-2.82841797 23.69210938 -2.21933594 24.00921875 -1.59179688 24.3359375 C5.11145889 27.74076582 11.37295959 29.37410344 18.9375 29.3125 C19.99300049 29.30621582 19.99300049 29.30621582 21.06982422 29.29980469 C29.909036 29.10715783 36.80250819 26.27639203 43.078125 19.8828125 C47.65537538 14.86458346 47.65537538 14.86458346 51 9 C51.66 9 52.32 9 53 9 C52.4818325 16.51342879 50.43017038 20.88427323 44.875 26.125 C40.70856272 29.54775063 36.05954504 31.27959828 31 33 C29.59814453 33.53560547 29.59814453 33.53560547 28.16796875 34.08203125 C18.50703035 36.88144004 8.44934323 35.73444017 -0.5078125 31.42578125 C-5.55305989 28.53939364 -9.93841379 25.02100139 -13 20 C-12.71962434 15.14683081 -11.29010484 12.54747103 -8.1875 8.875 C-7.15689453 7.63363281 -7.15689453 7.63363281 -6.10546875 6.3671875 C-4.14197911 4.15962772 -2.11457675 2.06230631 0 0 Z " fill="#0F0B09" transform="translate(771,191)"/>
<path d="M0 0 C3.5380065 3.29400605 6.65808028 6.42927023 7.31640625 11.37890625 C6.67872237 16.66144801 1.96969247 19.84709317 -2 23 C-11.59228185 28.53350681 -21.03423546 30.62254756 -31.890625 28.09375 C-41.85548543 25.30575178 -51.30163393 21.83205225 -57.12890625 12.73828125 C-58.42650144 10.14890969 -58.93291097 7.88482825 -59 5 C-58.34 4.34 -57.68 3.68 -57 3 C-56.52691406 3.72445312 -56.05382812 4.44890625 -55.56640625 5.1953125 C-51.10948658 11.71127693 -47.02704144 16.33696776 -40 20 C-39.37609375 20.33773437 -38.7521875 20.67546875 -38.109375 21.0234375 C-28.71324152 25.32670871 -18.61040469 23.37512753 -9.26904297 20.0715332 C-4.66355232 18.35189949 -0.30229728 16.3706536 4 14 C2.81819916 8.97734643 1.55007718 5.9050849 -2 2 C-1.34 1.34 -0.68 0.68 0 0 Z " fill="#100C09" transform="translate(703,194)"/>
<path d="M0 0 C2.85998067 3.02340814 4.98156602 6.30316107 6.1875 10.3125 C5.7890625 12.5625 5.7890625 12.5625 5.1875 14.3125 C4.7028125 13.85359375 4.218125 13.3946875 3.71875 12.921875 C-5.06877551 4.87790934 -12.8187625 1.72571472 -24.80078125 1.9609375 C-31.78247409 2.35836465 -38.10192218 5.14091316 -43.5234375 9.484375 C-45.8125 11.3125 -45.8125 11.3125 -47.8125 11.3125 C-46.76723978 5.82488382 -44.36109438 3.67244212 -39.96875 0.6328125 C-27.94773434 -6.72788187 -12.15066313 -7.29039788 0 0 Z " fill="#0E0805" transform="translate(817.8125,146.6875)"/>
<path d="M0 0 C3.65017495 1.95241916 5.27844355 4.06482098 7.6875 7.4375 C7.6875 8.4275 7.6875 9.4175 7.6875 10.4375 C4.31246331 9.2516763 2.04027269 8.16176311 -0.3125 5.4375 C-2.61310534 7.3003949 -2.61310534 7.3003949 -2.5078125 10.2578125 C-2.48460937 11.34835938 -2.46140625 12.43890625 -2.4375 13.5625 C-2.39625 15.50125 -2.355 17.44 -2.3125 19.4375 C1.3175 21.0875 4.9475 22.7375 8.6875 24.4375 C8.3575 25.4275 8.0275 26.4175 7.6875 27.4375 C3.63148689 28.78950437 1.6378364 27.96219124 -2.3125 26.4375 C-6.0298571 22.92108112 -7.39667411 19.43291394 -8.3125 14.4375 C-8.3125 9.11335513 -7.67207941 4.73776165 -4.3125 0.4375 C-2.3125 -0.5625 -2.3125 -0.5625 0 0 Z " fill="#1C100A" transform="translate(613.3125,222.5625)"/>
<path d="M0 0 C2.375 0.625 2.375 0.625 4.125 2.9375 C6.94183787 8.99370143 7.1805293 14.08122328 5.1875 20.375 C3.22256651 23.89832902 1.87853856 25.63435309 -1.625 27.625 C-5.4375 27.875 -5.4375 27.875 -8.625 27.625 C-8.625 26.305 -8.625 24.985 -8.625 23.625 C-7.98691406 23.35945313 -7.34882812 23.09390625 -6.69140625 22.8203125 C-5.86511719 22.46710938 -5.03882813 22.11390625 -4.1875 21.75 C-3.36378906 21.40195313 -2.54007813 21.05390625 -1.69140625 20.6953125 C0.53246715 19.8005063 0.53246715 19.8005063 1.375 17.625 C1.6102732 15.51645964 1.6102732 15.51645964 1.625 13.1875 C1.65078125 12.40503906 1.6765625 11.62257812 1.703125 10.81640625 C1.30323089 8.14568491 0.42800878 7.30522561 -1.625 5.625 C-2.388125 6.45 -3.15125 7.275 -3.9375 8.125 C-6.625 10.625 -6.625 10.625 -9.625 10.625 C-8.02847157 5.5451368 -5.42752535 1.29226794 0 0 Z " fill="#110805" transform="translate(860.625,222.375)"/>
<path d="M0 0 C4.38874589 2.92583059 6.31649809 8.13754502 8 13 C8 13.99 8 14.98 8 16 C8.66 16 9.32 16 10 16 C10 17.32 10 18.64 10 20 C9.34 20 8.68 20 8 20 C6.25141444 17.34684312 4.66990441 14.64367257 3.09765625 11.88476562 C1.12151482 8.52231966 -0.5761368 5.95548476 -4 4 C-7.78495411 4 -8.88778633 4.89045808 -11.625 7.5625 C-12.800625 8.7690625 -12.800625 8.7690625 -14 10 C-14.99 10 -15.98 10 -17 10 C-16.73517462 6.11589437 -16.46605993 4.4537952 -13.625 1.6875 C-9.0162073 -1.27529531 -5.21528066 -1.32233282 0 0 Z " fill="#1A0F0A" transform="translate(614,209)"/>
<path d="M0 0 C2.9375 1.6875 2.9375 1.6875 5 4 C5.8125 7.25 5.8125 7.25 6 10 C3.41659649 8.85182066 1.6932956 7.72475246 -0.4375 5.8125 C-2.81732289 3.77238844 -2.81732289 3.77238844 -5.5 3.9375 C-12.79643664 7.03848557 -15.5846319 14.29836707 -19 21 C-19.66 21 -20.32 21 -21 21 C-21 19.68 -21 18.36 -21 17 C-20.34 17 -19.68 17 -19 17 C-18.9175 16.360625 -18.835 15.72125 -18.75 15.0625 C-17.34496278 9.3252647 -15.57342512 4.50190579 -11.25 0.375 C-7.08688651 -1.38631724 -4.27635424 -1.36385783 0 0 Z " fill="#140C08" transform="translate(869,209)"/>
<path d="M0 0 C3.29110633 2.10070617 4.8333853 3.75007795 7 7 C7.125 9.6875 7.125 9.6875 7 12 C6.45730469 11.59007812 5.91460938 11.18015625 5.35546875 10.7578125 C4.64003906 10.21898437 3.92460938 9.68015625 3.1875 9.125 C2.47980469 8.59132812 1.77210938 8.05765625 1.04296875 7.5078125 C-2.22776496 4.85026543 -2.22776496 4.85026543 -6.1875 4 C-9.77823093 5.27670433 -12.29032297 7.33343645 -15.23046875 9.72265625 C-17 11 -17 11 -19 11 C-18.58443583 6.15175132 -16.62551755 4.11963138 -13 1 C-8.61661121 -1.67169358 -4.85873387 -1.21468347 0 0 Z " fill="#130906" transform="translate(742,239)"/>
<path d="M0 0 C3.0006085 0.59414749 4.93822945 1.46625961 7.35546875 3.328125 C7.97413818 3.79629639 8.59280762 4.26446777 9.23022461 4.74682617 C10.19907593 5.49089722 10.19907593 5.49089722 11.1875 6.25 C16.5992284 10.32342171 21.94621889 13.9200061 28 17 C27.01 18.32 26.02 19.64 25 21 C3.46177123 7.86564454 3.46177123 7.86564454 0 4 C0 2.68 0 1.36 0 0 Z " fill="#0D0B04" transform="translate(702,475)"/>
<path d="M0 0 C8.58 0 17.16 0 26 0 C26 1.65 26 3.3 26 5 C19.92690729 7.02436424 12.9441608 7.06856598 6.921875 4.8828125 C4.541662 3.67910478 2.25398829 2.42464271 0 1 C0 0.67 0 0.34 0 0 Z " fill="#0F0604" transform="translate(723,331)"/>
<path d="M0 0 C1.97420272 2.96130408 2.87157495 5.32178869 3.9453125 8.69140625 C4.47705078 10.35526367 4.47705078 10.35526367 5.01953125 12.05273438 C5.38433594 13.21095703 5.74914062 14.36917969 6.125 15.5625 C6.49753906 16.72458984 6.87007812 17.88667969 7.25390625 19.08398438 C10 27.72965316 10 27.72965316 10 30 C7.13275314 29.42655063 6.1385485 29.1385485 4 27 C3.26151047 24.37490051 2.60173241 21.78108447 2 19.125 C1.02104994 14.84974154 0.02220919 10.91514474 -2 7 C-1.68393897 4.34508736 -1.19397377 2.38794754 0 0 Z " fill="#110A06" transform="translate(573,520)"/>
<path d="M0 0 C3.18245697 0.51329951 6.0987092 1.36172697 9.125 2.4375 C14.31575448 4.22318957 19.58959372 5.14040274 25 6 C25 6.33 25 6.66 25 7 C13.35489531 7.56423118 3.22392909 6.1115843 -8 3 C-8 2.67 -8 2.34 -8 2 C-5.69 2.33 -3.38 2.66 -1 3 C-0.67 2.01 -0.34 1.02 0 0 Z " fill="#1B100B" transform="translate(719,357)"/>
<path d="M0 0 C-1.40398279 4.10110762 -3.37087038 6.98089159 -6.125 10.3125 C-6.84945312 11.19550781 -7.57390625 12.07851563 -8.3203125 12.98828125 C-8.87460937 13.65214844 -9.42890625 14.31601562 -10 15 C-11.32 14.34 -12.64 13.68 -14 13 C-11.36 10.69 -8.72 8.38 -6 6 C-8.94729537 4.84188612 -8.94729537 4.84188612 -12 5 C-12 4.34 -12 3.68 -12 3 C-12.99 2.67 -13.98 2.34 -15 2 C-13.06524329 1.46906676 -11.12706845 0.95057683 -9.1875 0.4375 C-8.10855469 0.14746094 -7.02960937 -0.14257812 -5.91796875 -0.44140625 C-3 -1 -3 -1 0 0 Z " fill="#1C1411" transform="translate(789,275)"/>
<path d="M0 0 C0.66 0.33 1.32 0.66 2 1 C0.35 2.65 -1.3 4.3 -3 6 C-2.67 6.99 -2.34 7.98 -2 9 C-9.86335332 12.4673054 -16.42930243 13.53847315 -25 13 C-25 12.67 -25 12.34 -25 12 C-24.37351562 11.97421875 -23.74703125 11.9484375 -23.1015625 11.921875 C-22.28429687 11.86515625 -21.46703125 11.8084375 -20.625 11.75 C-19.81289063 11.70359375 -19.00078125 11.6571875 -18.1640625 11.609375 C-17.44992187 11.40828125 -16.73578125 11.2071875 -16 11 C-15.31017635 9.67849875 -14.64399284 8.34443127 -14 7 C-12.01171875 6.09375 -12.01171875 6.09375 -9.6875 5.5 C-5.70968737 4.33873535 -3.06947606 2.87144535 0 0 Z " fill="#120704" transform="translate(865,257)"/>
<path d="M0 0 C1.22396484 0.01450195 1.22396484 0.01450195 2.47265625 0.02929688 C7.22821644 0.11708009 11.80865792 0.53691522 16.5 1.3125 C16.5 1.6425 16.5 1.9725 16.5 2.3125 C15.50202393 2.30464478 15.50202393 2.30464478 14.48388672 2.29663086 C11.44760089 2.27574747 8.41133022 2.2628038 5.375 2.25 C4.32828125 2.24162109 3.2815625 2.23324219 2.203125 2.22460938 C-5.24293945 2.02416624 -5.24293945 2.02416624 -12.5 3.3125 C-13.68647938 5.14324218 -13.68647938 5.14324218 -14.5 7.3125 C-16.4453125 9.234375 -16.4453125 9.234375 -18.625 11.0625 C-19.71167969 11.98289062 -19.71167969 11.98289062 -20.8203125 12.921875 C-21.37460937 13.38078125 -21.92890625 13.8396875 -22.5 14.3125 C-22.5 10.88070028 -22.08262157 10.38977698 -19.9375 7.875 C-19.46183594 7.29878906 -18.98617187 6.72257812 -18.49609375 6.12890625 C-12.52570207 0.69596665 -7.82270303 -0.27805816 0 0 Z " fill="#5B3225" transform="translate(635.5,50.6875)"/>
<path d="M0 0 C1.32 0.66 2.64 1.32 4 2 C4 1.34 4 0.68 4 0 C4.66 0.33 5.32 0.66 6 1 C3.525 5.455 3.525 5.455 1 10 C-0.32 9.67 -1.64 9.34 -3 9 C-3.99 10.485 -3.99 10.485 -5 12 C-5.66 12 -6.32 12 -7 12 C-6.25 5.25 -6.25 5.25 -4 3 C-2.68 3 -1.36 3 0 3 C0 2.01 0 1.02 0 0 Z " fill="#170D0A" transform="translate(515,323)"/>
<path d="M0 0 C0.33 0 0.66 0 1 0 C1.33 2.31 1.66 4.62 2 7 C2.99 6.01 3.98 5.02 5 4 C4.46585373 9.72514527 2.83951338 14.23868689 0.4375 19.4375 C0.10814453 20.16904297 -0.22121094 20.90058594 -0.56054688 21.65429688 C-1.36577106 23.43979399 -2.18177846 25.22042155 -3 27 C-4.20753438 23.37739685 -3.63110502 22.10951029 -2.5625 18.5 C-1.13827225 13.20909057 -0.75794581 8.53986252 -0.9921875 3.08203125 C-0.99605469 2.05142578 -0.99605469 2.05142578 -1 1 C-0.67 0.67 -0.34 0.34 0 0 Z " fill="#D6B8A2" transform="translate(586,556)"/>
<path d="M0 0 C0.33 0 0.66 0 1 0 C0.93941406 0.88816406 0.87882813 1.77632813 0.81640625 2.69140625 C0.0230772 14.78662305 -0.50493783 26.88928308 -1 39 C-1.33 39 -1.66 39 -2 39 C-2.06058594 37.81664062 -2.12117187 36.63328125 -2.18359375 35.4140625 C-2.61253139 27.2513016 -3.0825965 19.12557387 -4 11 C-3.01 11.33 -2.02 11.66 -1 12 C-1.01160156 11.21753906 -1.02320313 10.43507813 -1.03515625 9.62890625 C-1.04417969 8.61699219 -1.05320312 7.60507812 -1.0625 6.5625 C-1.07410156 5.55316406 -1.08570313 4.54382813 -1.09765625 3.50390625 C-1 1 -1 1 0 0 Z " fill="#E4BFA2" transform="translate(556,431)"/>
<path d="M0 0 C2.55774852 2.55774852 2.25699815 3.53845184 2.265625 7.0859375 C2.26820313 8.09914063 2.27078125 9.11234375 2.2734375 10.15625 C2.26570312 11.2184375 2.25796875 12.280625 2.25 13.375 C2.25773438 14.42945313 2.26546875 15.48390625 2.2734375 16.5703125 C2.27085937 17.58609375 2.26828125 18.601875 2.265625 19.6484375 C2.26336914 20.57833496 2.26111328 21.50823242 2.25878906 22.46630859 C1.99022698 25.09568339 1.33397999 26.74071214 0 29 C-0.02505615 28.31373535 -0.0501123 27.6274707 -0.07592773 26.92041016 C-0.19171427 23.82174183 -0.31451885 20.72339077 -0.4375 17.625 C-0.47681641 16.54476562 -0.51613281 15.46453125 -0.55664062 14.3515625 C-0.59853516 13.3203125 -0.64042969 12.2890625 -0.68359375 11.2265625 C-0.72025146 10.27346191 -0.75690918 9.32036133 -0.79467773 8.33837891 C-0.85763465 5.97867651 -0.85763465 5.97867651 -2 4 C-1.0625 1.875 -1.0625 1.875 0 0 Z " fill="#C3D189" transform="translate(599,570)"/>
<path d="M0 0 C0.33 0 0.66 0 1 0 C1.33 1.98 1.66 3.96 2 6 C2.66 5.01 3.32 4.02 4 3 C6.625 2.8125 6.625 2.8125 9 3 C8.01 3.66 7.02 4.32 6 5 C6 6.32 6 7.64 6 9 C3.69 10.32 1.38 11.64 -1 13 C-2.12758089 9.61725734 -1.81750262 8.23221777 -1.0625 4.8125 C-0.86785156 3.91144531 -0.67320312 3.01039063 -0.47265625 2.08203125 C-0.23869141 1.05142578 -0.23869141 1.05142578 0 0 Z " fill="#E6BD9D" transform="translate(846,242)"/>
<path d="M0 0 C0.66 0.66 1.32 1.32 2 2 C-3.46175275 6.38710233 -8.96683044 10.43270355 -15 14 C-14.01 14.99 -13.02 15.98 -12 17 C-14.31 16.67 -16.62 16.34 -19 16 C-19 15.01 -19 14.02 -19 13 C-16.60676231 11.38367156 -14.2681104 9.95653709 -11.75 8.5625 C-7.31512779 6.07679185 -3.41337565 3.862041 0 0 Z " fill="#583223" transform="translate(620,332)"/>
<path d="M0 0 C0.80824219 0.10183594 1.61648438 0.20367187 2.44921875 0.30859375 C3.06410156 0.39238281 3.67898438 0.47617187 4.3125 0.5625 C4.3125 1.2225 4.3125 1.8825 4.3125 2.5625 C4.9725 2.5625 5.6325 2.5625 6.3125 2.5625 C6.3125 3.2225 6.3125 3.8825 6.3125 4.5625 C6.9725 4.5625 7.6325 4.5625 8.3125 4.5625 C7.9825 5.2225 7.6525 5.8825 7.3125 6.5625 C6.06533203 6.129375 6.06533203 6.129375 4.79296875 5.6875 C3.70628906 5.31625 2.61960937 4.945 1.5 4.5625 C-0.11841797 4.005625 -0.11841797 4.005625 -1.76953125 3.4375 C-4.65870802 2.41888488 -4.65870802 2.41888488 -7.6875 2.5625 C-7.6875 1.9025 -7.6875 1.2425 -7.6875 0.5625 C-4.59271121 -0.46909626 -3.16118607 -0.41232862 0 0 Z " fill="#181412" transform="translate(694.6875,279.4375)"/>
<path d="M0 0 C0.66 0 1.32 0 2 0 C1.24 9.12 1.24 9.12 -2 12 C-6 12 -6 12 -8 11 C-7.38511719 10.31164062 -7.38511719 10.31164062 -6.7578125 9.609375 C-6.21898437 8.99578125 -5.68015625 8.3821875 -5.125 7.75 C-4.59132813 7.14671875 -4.05765625 6.5434375 -3.5078125 5.921875 C-2.0202513 4.02581254 -0.99677564 2.18709995 0 0 Z " fill="#16100D" transform="translate(822,200)"/>
<path d="M0 0 C0.33 0.66 0.66 1.32 1 2 C0.01 2.495 0.01 2.495 -1 3 C-1.33 3.99 -1.66 4.98 -2 6 C-7.44893869 7.19876651 -10.22169095 6.91360308 -15 4 C-15 3.67 -15 3.34 -15 3 C-13.75283203 2.80083984 -13.75283203 2.80083984 -12.48046875 2.59765625 C-11.39378906 2.42105469 -10.30710937 2.24445313 -9.1875 2.0625 C-8.10855469 1.88847656 -7.02960937 1.71445312 -5.91796875 1.53515625 C-2.95066644 1.06128079 -2.95066644 1.06128079 0 0 Z " fill="#171513" transform="translate(749,306)"/>
<path d="M0 0 C-1.42749981 3.79049707 -3.16236542 7.27122456 -5.125 10.8125 C-5.93324219 12.27623047 -5.93324219 12.27623047 -6.7578125 13.76953125 C-7.16773438 14.50558594 -7.57765625 15.24164063 -8 16 C-8.66 16 -9.32 16 -10 16 C-10 14.68 -10 13.36 -10 12 C-9.34 12 -8.68 12 -8 12 C-7.87625 11.278125 -7.7525 10.55625 -7.625 9.8125 C-5.44444444 0 -5.44444444 0 0 0 Z " fill="#100804" transform="translate(858,214)"/>
<path d="M0 0 C0.33 0 0.66 0 1 0 C1.33 6.6 1.66 13.2 2 20 C-1 17 -1 17 -2 15 C-1.93725672 13.0178827 -1.80216769 11.03768032 -1.625 9.0625 C-1.53476562 8.00160156 -1.44453125 6.94070313 -1.3515625 5.84765625 C-1 3 -1 3 0 0 Z " fill="#C7AC96" transform="translate(491,346)"/>
<path d="M0 0 C0.33 0.66 0.66 1.32 1 2 C-1.89243191 7.78486382 -6.3737214 12.54506505 -11 17 C-11.99 16.67 -12.98 16.34 -14 16 C-13.49210938 15.5153125 -12.98421875 15.030625 -12.4609375 14.53125 C-7.79859597 9.99114215 -3.73909728 5.32538097 0 0 Z " fill="#5F3325" transform="translate(607,270)"/>
<path d="M0 0 C1.16144531 0.11085938 2.32289063 0.22171875 3.51953125 0.3359375 C4.39996094 0.43132813 5.28039062 0.52671875 6.1875 0.625 C6.1875 1.285 6.1875 1.945 6.1875 2.625 C-2.2275 3.12 -2.2275 3.12 -10.8125 3.625 C-11.1425 2.965 -11.4725 2.305 -11.8125 1.625 C-7.6285335 -0.43940531 -4.60614129 -0.4652668 0 0 Z " fill="#C2D084" transform="translate(796.8125,812.375)"/>
<path d="M0 0 C1.485 0.99 1.485 0.99 3 2 C3.99 1.67 4.98 1.34 6 1 C6.36923077 7.4 6.36923077 7.4 4.5 10.4375 C4.005 10.953125 3.51 11.46875 3 12 C2.34 9.69 1.68 7.38 1 5 C0.67 5 0.34 5 0 5 C0 3.35 0 1.7 0 0 Z " fill="#F6CCAC" transform="translate(585,552)"/>
<path d="M0 0 C1.32 1.32 2.64 2.64 4 4 C-4.25 4 -12.5 4 -21 4 C-21 3.67 -21 3.34 -21 3 C-10.605 2.505 -10.605 2.505 0 2 C0 1.34 0 0.68 0 0 Z " fill="#5A3427" transform="translate(897,347)"/>
<path d="M0 0 C1.52519276 0.08937803 3.04681929 0.24537146 4.5625 0.4375 C5.80193359 0.59025391 5.80193359 0.59025391 7.06640625 0.74609375 C7.70449219 0.82988281 8.34257813 0.91367188 9 1 C9 2.32 9 3.64 9 5 C5.71023192 6.09658936 4.28696233 5.79953138 1 5 C1 4.01 1 3.02 1 2 C0.34 1.67 -0.32 1.34 -1 1 C-0.67 0.67 -0.34 0.34 0 0 Z " fill="#0F0704" transform="translate(612,245)"/>
<path d="M0 0 C2.97 0.99 5.94 1.98 9 3 C5 5 5 5 2 6 C1.67 6.99 1.34 7.98 1 9 C-0.4783226 6.04335481 -0.06032783 3.25770263 0 0 Z " fill="#EBC5A3" transform="translate(700,355)"/>
<path d="M0 0 C1.18826921 3.56480762 0.76813843 4.19969907 -0.75 7.5 C-1.09546875 8.2734375 -1.4409375 9.046875 -1.796875 9.84375 C-2.98849163 11.97937461 -4.27697731 13.29591163 -6 15 C-6.33 15.99 -6.66 16.98 -7 18 C-7.99 18.33 -8.98 18.66 -10 19 C-8.40376856 14.60616294 -6.21975667 10.71004193 -3.875 6.6875 C-3.50246094 6.04232422 -3.12992188 5.39714844 -2.74609375 4.73242188 C-1.83367787 3.15324055 -0.91724491 1.57638136 0 0 Z " fill="#582E23" transform="translate(830,296)"/>
<path d="M0 0 C0.33 0 0.66 0 1 0 C1.33 2.31 1.66 4.62 2 7 C2.99 6.01 3.98 5.02 5 4 C4.67 6.31 4.34 8.62 4 11 C2.68 11.33 1.36 11.66 0 12 C-0.19401633 10.18818595 -0.38004375 8.37551468 -0.5625 6.5625 C-0.66691406 5.55316406 -0.77132812 4.54382813 -0.87890625 3.50390625 C-0.91886719 2.67761719 -0.95882812 1.85132813 -1 1 C-0.67 0.67 -0.34 0.34 0 0 Z " fill="#DFBEA4" transform="translate(586,556)"/>
<path d="M0 0 C0.75 1.6875 0.75 1.6875 1 4 C-0.9375 6.625 -0.9375 6.625 -3 9 C-3 9.66 -3 10.32 -3 11 C-4.98 11 -6.96 11 -9 11 C-8.60167969 10.54109375 -8.20335937 10.0821875 -7.79296875 9.609375 C-5.08857938 6.47728415 -2.42008229 3.36122541 0 0 Z " fill="#603228" transform="translate(655,355)"/>
<path d="M0 0 C0.33 0 0.66 0 1 0 C1.70132913 6.70019789 2.11044961 13.26257354 2 20 C1.34 20 0.68 20 0 20 C-1.01593448 13.11422188 -0.83854735 6.90188971 0 0 Z " fill="#E1C0A1" transform="translate(901,733)"/>
<path d="M0 0 C0.66 0.33 1.32 0.66 2 1 C-1.63 4.3 -5.26 7.6 -9 11 C-9.99 10.67 -10.98 10.34 -12 10 C-12 9.34 -12 8.68 -12 8 C-10.23596271 6.74163402 -8.41220501 5.5661735 -6.5625 4.4375 C-3.09563564 2.46466077 -3.09563564 2.46466077 0 0 Z " fill="#572F21" transform="translate(788,344)"/>
<path d="M0 0 C3.3502463 3.81234923 5.16974789 7.33285711 7 12 C6.01 12 5.02 12 4 12 C2.578125 10.390625 2.578125 10.390625 1.25 8.25 C0.80140625 7.55390625 0.3528125 6.8578125 -0.109375 6.140625 C-1.16007332 3.61526236 -0.93134261 2.52143975 0 0 Z " fill="#DFBCA3" transform="translate(617,220)"/>
<path d="M0 0 C2.475 0.495 2.475 0.495 5 1 C5.33 4.96 5.66 8.92 6 13 C4.1727089 10.25906335 3.06301822 7.86174676 1.875 4.8125 C1.52179687 3.91144531 1.16859375 3.01039063 0.8046875 2.08203125 C0.53914062 1.39496094 0.27359375 0.70789063 0 0 Z " fill="#E6C3A9" transform="translate(617,212)"/>
<path d="M0 0 C0.33 0.66 0.66 1.32 1 2 C0.67 2.66 0.34 3.32 0 4 C-0.66 4 -1.32 4 -2 4 C-2.09152344 4.59296875 -2.18304687 5.1859375 -2.27734375 5.796875 C-3.17232113 8.52534657 -4.33906301 9.47125041 -6.5625 11.25 C-7.20316406 11.77078125 -7.84382812 12.2915625 -8.50390625 12.828125 C-8.99761719 13.21484375 -9.49132812 13.6015625 -10 14 C-10.66 13.67 -11.32 13.34 -12 13 C-11.46890625 12.48050781 -10.9378125 11.96101563 -10.390625 11.42578125 C-6.68949647 7.77192991 -3.12841559 4.17122079 0 0 Z " fill="#E9C8A8" transform="translate(784,283)"/>
<path d="M0 0 C2.4375 0.375 2.4375 0.375 5 1 C5.33 1.66 5.66 2.32 6 3 C5.01 3.495 5.01 3.495 4 4 C3.34786708 6.02463255 3.34786708 6.02463255 3 8 C2.34 8 1.68 8 1 8 C0.67 5.36 0.34 2.72 0 0 Z " fill="#E1BFA2" transform="translate(570,504)"/>
<path d="M0 0 C1.9451 2.91765 2.45276317 4.62537285 3 8 C3.66 8 4.32 8 5 8 C5 9.32 5 10.64 5 12 C4.34 12 3.68 12 3 12 C-1.06153846 5.72307692 -1.06153846 5.72307692 -0.75 2.0625 C-0.5025 1.381875 -0.255 0.70125 0 0 Z " fill="#2C1F17" transform="translate(619,217)"/>
<path d="M0 0 C1.9451 2.91765 2.45276317 4.62537285 3 8 C0.13275314 7.42655063 -0.8614515 7.1385485 -3 5 C-2 2 -2 2 0 0 Z " fill="#19100D" transform="translate(580,542)"/>
<path d="M0 0 C-0.33 0.66 -0.66 1.32 -1 2 C-1.99 2 -2.98 2 -4 2 C-5.03013277 3.64821244 -6.03114628 5.31503702 -7 7 C-7.66 7 -8.32 7 -9 7 C-8.8125 4.6875 -8.8125 4.6875 -8 2 C-3.84375 -1.28125 -3.84375 -1.28125 0 0 Z " fill="#E3BC9D" transform="translate(610,213)"/>
<path d="M0 0 C0.66 0 1.32 0 2 0 C4.76773209 3.32127851 6.07523578 4.98431692 5.75 9.375 C5.5025 10.24125 5.255 11.1075 5 12 C3.20931427 9.3139714 2.33944209 7.3373411 1.375 4.3125 C1.11460937 3.50425781 0.85421875 2.69601562 0.5859375 1.86328125 C0.39257812 1.24839844 0.19921875 0.63351562 0 0 Z " fill="#C2D182" transform="translate(622,625)"/>
<path d="M0 0 C0.33 0.66 0.66 1.32 1 2 C0.0625 4.125 0.0625 4.125 -1 6 C0.98 6 2.96 6 5 6 C2.36095629 7.41377341 -0.07120629 8.37240135 -3 9 C-3 4.72290301 -2.29379749 3.44069624 0 0 Z " fill="#D3B192" transform="translate(857,216)"/>
<path d="M0 0 C0.99 0 1.98 0 3 0 C2.54738642 1.43931117 2.08767021 2.87638999 1.625 4.3125 C1.36976563 5.11300781 1.11453125 5.91351563 0.8515625 6.73828125 C0 9 0 9 -2 12 C-1.85962479 10.18706911 -1.71255111 8.3746557 -1.5625 6.5625 C-1.48128906 5.55316406 -1.40007813 4.54382813 -1.31640625 3.50390625 C-1 1 -1 1 0 0 Z " fill="#DCBCA8" transform="translate(851,214)"/>
<path d="M0 0 C0.99 0.33 1.98 0.66 3 1 C3.33 2.98 3.66 4.96 4 7 C0.83884224 5.63016497 0.0072908 5.0109362 -2 2 C-1.34 1.34 -0.68 0.68 0 0 Z " fill="#100301" transform="translate(871,212)"/>
<path d="M0 0 C2.46800047 1.15173355 4.04783565 2.04783565 6 4 C6.40047444 6.32275177 6.7397104 8.65739357 7 11 C4.04250209 7.53258866 1.92151848 4.13126473 0 0 Z " fill="#E2C0A5" transform="translate(522,595)"/>
<path d="M0 0 C2.31 0.33 4.62 0.66 7 1 C6.67 2.65 6.34 4.3 6 6 C3.5625 5.25 3.5625 5.25 1 4 C0.1875 1.875 0.1875 1.875 0 0 Z " fill="#150A07" transform="translate(869,196)"/>
<path d="M0 0 C2.52588702 2.36292656 3.88820837 3.66462511 5 7 C4.34 7.66 3.68 8.32 3 9 C1.35 6.69 -0.3 4.38 -2 2 C-1.34 1.34 -0.68 0.68 0 0 Z " fill="#221D19" transform="translate(703,194)"/>
<path d="M0 0 C0.99 0 1.98 0 3 0 C2.67 3.96 2.34 7.92 2 12 C-0.35333796 7.29332409 -0.17102038 5.1306114 0 0 Z " fill="#ECC7AA" transform="translate(499,360)"/>
<path d="M0 0 C1 3 1 3 -0.3125 5.6875 C-0.869375 6.450625 -1.42625 7.21375 -2 8 C-2.66 8 -3.32 8 -4 8 C-3.6875 5.125 -3.6875 5.125 -3 2 C-2.01 1.34 -1.02 0.68 0 0 Z " fill="#090301" transform="translate(512,327)"/>
<path d="M0 0 C2.475 0.99 2.475 0.99 5 2 C4.34 4.31 3.68 6.62 3 9 C1.35173889 6.03312999 0.55728913 3.34373475 0 0 Z " fill="#DFBFA3" transform="translate(542,623)"/>
<path d="M0 0 C0.33 0.99 0.66 1.98 1 3 C-0.21484375 4.82421875 -0.21484375 4.82421875 -1.9375 6.6875 C-2.50339844 7.31011719 -3.06929687 7.93273437 -3.65234375 8.57421875 C-4.09707031 9.04472656 -4.54179688 9.51523437 -5 10 C-5.66 9.67 -6.32 9.34 -7 9 C-4.69 6.03 -2.38 3.06 0 0 Z " fill="#C1CE87" transform="translate(777,467)"/>
<path d="M0 0 C4.95 0.33 9.9 0.66 15 1 C15 1.33 15 1.66 15 2 C13.72125 2.144375 12.4425 2.28875 11.125 2.4375 C8.74307106 2.70642746 7.15547309 2.92226346 5 4 C2.375 2.625 2.375 2.625 0 1 C0 0.67 0 0.34 0 0 Z " fill="#3C281C" transform="translate(723,331)"/>
<path d="M0 0 C0 3 0 3 -2.1875 5.625 C-5.00654002 8.00552268 -6.39755548 8.69121904 -10 9 C-9.01 8.34 -8.02 7.68 -7 7 C-6.71125 6.360625 -6.4225 5.72125 -6.125 5.0625 C-4.62830579 2.31856061 -2.72019292 1.43168048 0 0 Z " fill="#D8B49A" transform="translate(542,323)"/>
<path d="M0 0 C2.375 -0.1875 2.375 -0.1875 5 0 C5.66 0.99 6.32 1.98 7 3 C4.69 3.66 2.38 4.32 0 5 C0 3.35 0 1.7 0 0 Z " fill="#E9C3A6" transform="translate(501,236)"/>
<path d="M0 0 C0.66 0.99 1.32 1.98 2 3 C1.4375 5.5625 1.4375 5.5625 0 8 C-1.65 8.66 -3.3 9.32 -5 10 C-3.35 6.7 -1.7 3.4 0 0 Z " fill="#E1BB9E" transform="translate(823,205)"/>
<path d="M0 0 C0.66 0.66 1.32 1.32 2 2 C-1.32307692 5.93846154 -1.32307692 5.93846154 -4.75 6.25 C-5.4925 6.1675 -6.235 6.085 -7 6 C-6.21625 5.38125 -5.4325 4.7625 -4.625 4.125 C-2.03162353 2.10141339 -2.03162353 2.10141339 0 0 Z " fill="#E4C0A2" transform="translate(766,301)"/>
<path d="M0 0 C0.66 0 1.32 0 2 0 C2 2.31 2 4.62 2 7 C1.01 7 0.02 7 -1 7 C-1.04254356 5.00045254 -1.04080783 2.99958364 -1 1 C-0.67 0.67 -0.34 0.34 0 0 Z " fill="#050000" transform="translate(607,234)"/>
<path d="M0 0 C0.99 0.33 1.98 0.66 3 1 C1.6875 3.9375 1.6875 3.9375 0 7 C-0.99 7.33 -1.98 7.66 -3 8 C-1.125 2.25 -1.125 2.25 0 0 Z " fill="#E5C1A4" transform="translate(852,224)"/>
<path d="M0 0 C2.15377564 2.62198774 3.40072174 4.64404172 4 8 C3.01 8 2.02 8 1 8 C-0.35439668 5.29120665 -0.06501451 2.99066732 0 0 Z " fill="#E0C09E" transform="translate(587,522)"/>
<path d="M0 0 C0 0.66 0 1.32 0 2 C-1.96147874 3.38938077 -3.96166576 4.7260411 -6 6 C-6.33 4.68 -6.66 3.36 -7 2 C-2.25 0 -2.25 0 0 0 Z " fill="#C2D183" transform="translate(745,497)"/>
<path d="M0 0 C0.6875 1.625 0.6875 1.625 1 4 C-0.4375 7.25 -0.4375 7.25 -2 10 C-2.66 10 -3.32 10 -4 10 C-2.8905928 6.51329166 -1.73662334 3.22515763 0 0 Z " fill="#C3D18A" transform="translate(785,452)"/>
<path d="M0 0 C0.99 0.66 1.98 1.32 3 2 C-0.96 3.98 -0.96 3.98 -5 6 C-3 2 -3 2 0 0 Z " fill="#5E3423" transform="translate(693,351)"/>
<path d="M0 0 C0.66 0.99 1.32 1.98 2 3 C1.01 4.98 0.02 6.96 -1 9 C-1.66 9 -2.32 9 -3 9 C-3 7.68 -3 6.36 -3 5 C-2.34 5 -1.68 5 -1 5 C-0.67 3.35 -0.34 1.7 0 0 Z " fill="#2D1D15" transform="translate(851,221)"/>
<path d="M0 0 C0.33 0 0.66 0 1 0 C1.33 2.97 1.66 5.94 2 9 C0.35 8.67 -1.3 8.34 -3 8 C-2.34 7.34 -1.68 6.68 -1 6 C-0.60235737 4.01178687 -0.26224651 2.01055661 0 0 Z " fill="#F7CCAF" transform="translate(619,203)"/>
<path d="M0 0 C0.99 0.33 1.98 0.66 3 1 C2.01 1.33 1.02 1.66 0 2 C0.33 3.32 0.66 4.64 1 6 C1.66 6 2.32 6 3 6 C2.67 6.66 2.34 7.32 2 8 C0.68 7.01 -0.64 6.02 -2 5 C-1.34 3.35 -0.68 1.7 0 0 Z " fill="#BECB83" transform="translate(582,596)"/>
<path d="M0 0 C0.33 1.32 0.66 2.64 1 4 C-0.8125 5.5625 -0.8125 5.5625 -3 7 C-3.99 6.67 -4.98 6.34 -6 6 C-4.02 4.02 -2.04 2.04 0 0 Z " fill="#542F21" transform="translate(599,280)"/>
<path d="M0 0 C0.99 0.66 1.98 1.32 3 2 C-0.22791555 4.1519437 -1.28400809 4.20086443 -5 4 C-5.33 3.01 -5.66 2.02 -6 1 C-3.03 1.495 -3.03 1.495 0 2 C0 1.34 0 0.68 0 0 Z " fill="#552F24" transform="translate(604,191)"/>
<path d="M0 0 C1.32 0.33 2.64 0.66 4 1 C3.67 3.64 3.34 6.28 3 9 C0.87491756 5.81237635 0.4979837 3.73487777 0 0 Z " fill="#EEC9AD" transform="translate(658,72)"/>
<path d="M0 0 C0.66 0 1.32 0 2 0 C1.67 1.65 1.34 3.3 1 5 C0.01 5 -0.98 5 -2 5 C-1.125 1.125 -1.125 1.125 0 0 Z " fill="#E7CAB0" transform="translate(559,408)"/>
<path d="M0 0 C1.65 0 3.3 0 5 0 C4.67 0.99 4.34 1.98 4 3 C3.01 3.33 2.02 3.66 1 4 C0.34 3.67 -0.32 3.34 -1 3 C-0.67 2.01 -0.34 1.02 0 0 Z " fill="#21110B" transform="translate(617,247)"/>
<path d="M0 0 C1.5 1.25 1.5 1.25 3 3 C3 4.32 3 5.64 3 7 C2.01 6.67 1.02 6.34 0 6 C0 4.02 0 2.04 0 0 Z " fill="#040000" transform="translate(863,234)"/>
<path d="M0 0 C1.32 0.66 2.64 1.32 4 2 C2.6875 3.5 2.6875 3.5 1 5 C0.01 5 -0.98 5 -2 5 C-1.34 3.35 -0.68 1.7 0 0 Z " fill="#24130B" transform="translate(853,228)"/>
<path d="M0 0 C0.33 0 0.66 0 1 0 C1 1.65 1 3.3 1 5 C1.99 5.33 2.98 5.66 4 6 C2.02 6.66 0.04 7.32 -2 8 C-1.34 5.36 -0.68 2.72 0 0 Z " fill="#DFBEA6" transform="translate(653,132)"/>
<path d="M0 0 C2.64 0.99 5.28 1.98 8 3 C7.34 3.66 6.68 4.32 6 5 C4.68 5 3.36 5 2 5 C1.34 3.35 0.68 1.7 0 0 Z " fill="#E7C29F" transform="translate(704,95)"/>
<path d="M0 0 C-3.44833324 2.05257931 -5.31661591 3.0632763 -9.375 2.6875 C-10.24125 2.460625 -11.1075 2.23375 -12 2 C-12 1.67 -12 1.34 -12 1 C-10.37681021 0.63762737 -8.7513642 0.28534843 -7.125 -0.0625 C-6.22007812 -0.25972656 -5.31515625 -0.45695312 -4.3828125 -0.66015625 C-2 -1 -2 -1 0 0 Z " fill="#4F2D1C" transform="translate(732,24)"/>
</svg>
