<?xml version="1.0" encoding="UTF-8"?>
<svg version="1.1" xmlns="http://www.w3.org/2000/svg" width="1400" height="840">
<path d="M0 0 C1.63058215 1.51484682 3.25574675 3.03554946 4.875 4.5625 C6.00035156 5.57376953 6.00035156 5.57376953 7.1484375 6.60546875 C28.64577228 26.7073625 36.29006944 55.10833498 37.875 83.5625 C37.93558594 84.64789063 37.99617188 85.73328125 38.05859375 86.8515625 C38.50680198 105.57084747 36.55345374 133.54481938 25.875 149.5625 C26.20825038 152.76170361 26.85786159 155.51108478 27.875 158.5625 C28.99557751 174.1643868 26.03004125 188.26478988 17.875 201.5625 C16.95460938 202.47902344 16.03421875 203.39554688 15.0859375 204.33984375 C12.3577414 208.31645467 12.54068945 209.9456729 13.27539062 214.55566406 C13.57219727 216.04404785 13.57219727 216.04404785 13.875 217.5625 C14.09865234 218.75327148 14.32230469 219.94404297 14.55273438 221.17089844 C15.20909214 224.56813188 15.92667368 227.94964282 16.66650391 231.32958984 C17.12213277 233.42431808 17.5594465 235.52233817 17.99609375 237.62109375 C23.0969349 261.49037844 36.60520721 277.92324744 52.90332031 295.24975586 C55.40237453 297.91357823 57.75952247 300.58224957 59.875 303.5625 C58.27157731 303.73617828 56.66718592 303.90090925 55.0625 304.0625 C54.16917969 304.1553125 53.27585937 304.248125 52.35546875 304.34375 C43.66537665 304.88992863 35.09844786 304.4796999 26.4375 303.6875 C25.43775146 303.59871582 24.43800293 303.50993164 23.40795898 303.41845703 C16.4810394 302.77731555 9.71016009 301.87335262 2.875 300.5625 C7.165 302.5425 11.455 304.5225 15.875 306.5625 C15.875 307.2225 15.875 307.8825 15.875 308.5625 C3.49778148 311.98492552 -8.6230886 313.46236636 -21.41748047 314.35693359 C-25.661361 314.67914707 -29.89274326 315.11497346 -34.125 315.5625 C-32.8875 316.6453125 -32.8875 316.6453125 -31.625 317.75 C-29.125 320.5625 -29.125 320.5625 -28.75 323.3125 C-29.125 325.5625 -29.125 325.5625 -30.125 326.5625 C-48.44358104 326.67903041 -65.65120872 322.31666995 -79.375 309.59765625 C-81.89640135 306.66540156 -82.57194467 304.35487938 -83.125 300.5625 C-83.785 300.5625 -84.445 300.5625 -85.125 300.5625 C-85.55914101 314.64796397 -84.15186561 327.31988511 -79.8125 340.6875 C-79.52882568 341.57630859 -79.24515137 342.46511719 -78.95288086 343.38085938 C-76.66321893 350.06344034 -74.2463063 354.57363123 -68.12109375 358.4765625 C-66.94675781 359.04117187 -65.77242187 359.60578125 -64.5625 360.1875 C-63.88904541 360.51322998 -63.21559082 360.83895996 -62.52172852 361.17456055 C-55.62740265 364.44780647 -48.58506637 367.39051651 -41.5625 370.375 C11.30005872 392.84291745 11.30005872 392.84291745 22.875 418.5625 C25.97523615 426.73355258 27.92365924 434.91372926 29.44042969 443.50366211 C29.77780403 445.35229858 29.77780403 445.35229858 30.12199402 447.23828125 C30.72949947 450.57760432 31.32917238 453.91814089 31.92494488 457.25956416 C32.55298139 460.772298 33.19049652 464.28331271 33.82672119 467.79457092 C34.89165605 473.67976238 35.94978355 479.56614462 37.00341797 485.45336914 C38.2202377 492.25210422 39.44635377 499.04911031 40.67773318 505.84522241 C41.99299144 513.10478747 43.30157255 520.36554442 44.60816288 527.62667394 C44.98377844 529.71153255 45.36062949 531.79616466 45.73775482 533.88075066 C46.43949258 537.76192821 47.13374484 541.644424 47.82714844 545.52709961 C48.14032265 547.25317192 48.14032265 547.25317192 48.45982361 549.01411438 C48.64756851 550.07224335 48.83531342 551.13037231 49.02874756 552.2205658 C49.19316219 553.13691268 49.35757683 554.05325956 49.52697372 554.99737453 C49.87376391 557.55338939 49.93789676 559.98657838 49.875 562.5625 C46.96899739 563.81914978 45.07895416 564.5625 41.875 564.5625 C41.94937286 565.38931778 42.02374573 566.21613556 42.10037231 567.06800842 C45.6396053 606.46868483 49.0772839 645.87628414 52.11470795 685.31919479 C52.31093231 687.85474284 52.5099499 690.3900571 52.70977783 692.92532349 C56.23163087 737.71572553 56.23163087 737.71572553 53.875 752.5625 C51.03684407 755.40065593 48.13612716 755.11406908 44.3125 755.3125 C43.5405127 755.35560303 42.76852539 755.39870605 41.97314453 755.44311523 C30.91007088 755.88490367 19.87249348 754.65423173 8.875 753.5625 C5.44584913 746.48745735 3.16344018 739.27732626 1.11254883 731.70703125 C0.58698774 729.77740792 0.04105009 727.85336905 -0.50585938 725.9296875 C-8.1290372 698.48178063 -12.38476271 670.06923993 -16.64654541 641.94580078 C-17.12589261 638.7983827 -17.61438019 635.65240921 -18.10288811 632.50640202 C-18.58151031 629.41914698 -19.05580261 626.33123927 -19.52869034 623.24310112 C-19.75012867 621.79870603 -19.97254945 620.35446112 -20.19607162 618.91038704 C-21.49721732 610.47900132 -22.55464593 602.0786593 -23.125 593.5625 C-23.785 593.5625 -24.445 593.5625 -25.125 593.5625 C-25.2806543 594.35164795 -25.2806543 594.35164795 -25.43945312 595.15673828 C-26.38196483 599.90380299 -27.34843607 604.64510415 -28.34022522 609.38214111 C-33.49231936 633.78653431 -33.49231936 633.78653431 -36.125 658.5625 C-36.18300781 659.54347656 -36.24101563 660.52445313 -36.30078125 661.53515625 C-37.14665436 691.05167573 -27.64800574 727.9072318 -8.125 750.5625 C-5.125 755.0625 -5.125 755.0625 -5.125 758.5625 C-14.0905722 760.64179385 -23.17525025 761.60807993 -32.3125 762.5625 C-33.54777939 762.69223206 -33.54777939 762.69223206 -34.80801392 762.82458496 C-107.20762159 770.33198606 -178.61587077 765.50055402 -250.125 752.5625 C-248.23220825 744.1236731 -245.07003081 736.94575366 -241.0625 729.3125 C-232.19576279 711.96793937 -223.73509977 694.56657942 -219.125 675.5625 C-218.88136719 674.593125 -218.63773438 673.62375 -218.38671875 672.625 C-211.74704229 640.8268216 -223.23621974 609.63255353 -235.39282227 580.7980957 C-239.2160204 571.67164241 -239.2160204 571.67164241 -240.26171875 566.89453125 C-240.7983888 563.29899907 -240.7983888 563.29899907 -244.125 561.5625 C-245.11015378 558.93893538 -245.54738929 556.31725877 -246.125 553.5625 C-247.2696875 554.3359375 -247.2696875 554.3359375 -248.4375 555.125 C-257.26427468 558.56594606 -265.80332523 554.86830339 -274.15625 551.5234375 C-277.13305447 550.23573484 -277.13305447 550.23573484 -280.125 551.5625 C-281.16919149 552.92830248 -282.2053783 554.30171745 -283.18139648 555.71704102 C-288.67801312 563.63985907 -295.88724928 572.01278562 -305.125 575.5625 C-309.57244033 575.41570185 -312.41662135 573.90154074 -316.125 571.5625 C-317.07890625 571.22992187 -318.0328125 570.89734375 -319.015625 570.5546875 C-323.90080415 567.42473604 -326.02995514 562.8042192 -328.8125 557.8125 C-329.419729 556.74281982 -330.02695801 555.67313965 -330.65258789 554.57104492 C-343.42270233 531.78029817 -356.45271476 506.8368286 -356.42578125 480.11328125 C-356.43006638 479.13876511 -356.4343515 478.16424896 -356.43876648 477.16020203 C-356.44447703 475.10379811 -356.44503439 473.04737402 -356.44067383 470.9909668 C-356.43755383 467.9278465 -356.46087521 464.86573288 -356.48632812 461.80273438 C-356.53725522 445.5538862 -354.64038513 429.89209672 -352.0625 413.875 C-350.0712231 401.07393422 -348.93541144 388.26838511 -348.75 375.3125 C-348.72405762 374.36068848 -348.69811523 373.40887695 -348.67138672 372.42822266 C-348.65680055 366.93896192 -349.33883413 363.07581052 -352.14111328 358.3190918 C-353.18573863 356.45405969 -353.78617278 354.6752762 -354.375 352.625 C-357.60935903 342.53520606 -361.97886658 332.16908995 -369.3828125 324.4921875 C-374.84923841 318.43744669 -378.54493188 312.05933169 -378.8125 303.8125 C-378.4994578 298.37339181 -377.37512024 293.97570675 -374.125 289.5625 C-373.58488281 289.16289062 -373.04476563 288.76328125 -372.48828125 288.3515625 C-369.68301611 284.67015438 -370.97372401 279.682797 -371.55712891 275.36230469 C-372.14827624 271.54761381 -372.78422123 267.74190492 -373.4375 263.9375 C-373.91326474 261.13874881 -374.38460595 258.33929676 -374.8515625 255.5390625 C-374.96688828 254.8483667 -375.08221405 254.1576709 -375.20103455 253.44604492 C-375.84717926 249.49968099 -376.3806149 245.56516149 -376.7734375 241.5859375 C-378.00082073 229.33547333 -381.20953264 218.75229919 -385.80932617 207.30566406 C-386.24865479 206.21092773 -386.6879834 205.11619141 -387.140625 203.98828125 C-387.54571289 203.01286377 -387.95080078 202.03744629 -388.36816406 201.0324707 C-389.125 198.5625 -389.125 198.5625 -388.125 195.5625 C-384.62010392 193.81005196 -380.9499856 194.0244088 -377.125 194.5625 C-365.53803937 201.28293717 -361.46838466 216.41567083 -358.125 228.5625 C-356.45057037 235.11961755 -355.57184171 241.61978475 -354.9140625 248.34375 C-354.42431663 252.95411627 -353.51872617 257.13741942 -352.125 261.5625 C-351.88961514 254.28834859 -352.81924133 247.5929417 -354.0625 240.4375 C-355.65825567 230.76314521 -356.55797006 221.3004477 -356.82958984 211.50463867 C-357.02390702 204.80422896 -357.72679059 198.38072986 -358.703125 191.74609375 C-360.25277766 180.05195563 -360.25277766 180.05195563 -357.78515625 176.79296875 C-356.125 175.5625 -356.125 175.5625 -353.25 175.625 C-348.8131386 176.95605842 -346.30814853 178.59213939 -343.88549805 182.62670898 C-340.76090181 188.71157764 -338.82227109 194.48787777 -337.5 201.1875 C-337.1920752 202.69244019 -337.1920752 202.69244019 -336.87792969 204.2277832 C-334.3986224 217.16996244 -333.43576387 230.3144053 -332.43457031 243.43823242 C-332.1601073 246.20818757 -331.72901334 248.84793688 -331.125 251.5625 C-331.10518066 250.80332275 -331.08536133 250.04414551 -331.06494141 249.26196289 C-330.36880519 223.84529903 -330.36880519 223.84529903 -329.0625 214.625 C-327.74340535 204.95163922 -327.95353952 195.30717044 -328.125 185.5625 C-321.453125 185.3125 -321.453125 185.3125 -318.5 187.5625 C-310.15189729 198.10747185 -308.80822091 206.90141022 -308.9296875 220.25390625 C-308.9325174 221.43975815 -308.93534729 222.62561005 -308.93826294 223.84739685 C-308.94939006 227.60670384 -308.97448102 231.36576593 -309 235.125 C-309.01003944 237.68554342 -309.0191636 240.24609059 -309.02734375 242.80664062 C-309.04930492 249.05867624 -309.08270766 255.31057061 -309.125 261.5625 C-308.47109538 259.6673707 -307.82296923 257.770247 -307.17724609 255.87231445 C-306.63491837 254.28795341 -306.63491837 254.28795341 -306.08163452 252.67158508 C-304.76465432 248.3913679 -304.22284648 244.18778773 -303.75 239.75 C-302.73373727 231.64007397 -301.15806589 223.79152232 -299.125 215.875 C-298.87572754 214.87686279 -298.62645508 213.87872559 -298.36962891 212.8503418 C-298.0010376 211.46455933 -298.0010376 211.46455933 -297.625 210.05078125 C-297.4084375 209.23134033 -297.191875 208.41189941 -296.96875 207.56762695 C-296.125 205.5625 -296.125 205.5625 -293.125 203.5625 C-289.64550046 203.43362965 -287.26280498 203.57224081 -284.55859375 205.92578125 C-280.47127428 211.36389576 -279.99284584 217.79746984 -280.63891602 224.43896484 C-281.27276252 227.20802407 -282.3898752 229.61937482 -283.55078125 232.2109375 C-286.33293381 238.58206687 -287.2993577 244.55201108 -287.9375 251.4375 C-288.1085022 253.14377563 -288.1085022 253.14377563 -288.28295898 254.88452148 C-288.59103701 258.10885638 -288.86490041 261.3339874 -289.125 264.5625 C-289.19654297 265.3570459 -289.26808594 266.1515918 -289.34179688 266.97021484 C-289.99250264 274.72933273 -289.42834958 279.31960584 -284.59375 285.48828125 C-280.1171592 291.81027518 -280.46218678 300.92446448 -281.515625 308.29589844 C-282.0629805 311.2729042 -282.67228318 314.22909394 -283.3125 317.1875 C-283.53228516 318.2384082 -283.75207031 319.28931641 -283.97851562 320.37207031 C-285.57882728 327.75934466 -287.6837761 334.7258178 -290.5 341.734375 C-290.70625 342.66765625 -290.9125 343.6009375 -291.125 344.5625 C-289.78507473 346.70151194 -289.78507473 346.70151194 -288.125 348.5625 C-287.98046875 350.74609375 -287.98046875 350.74609375 -288.3125 353 C-288.40917969 353.74121094 -288.50585938 354.48242188 -288.60546875 355.24609375 C-289.125 357.5625 -289.125 357.5625 -290.17578125 360.0234375 C-291.49854812 363.5617028 -291.17874634 366.62972479 -291 370.35546875 C-291.10940668 373.16243385 -291.52110421 375.33474484 -292.17578125 378.0390625 C-293.57931467 384.66837328 -292.90367604 391.04882491 -292.3125 397.75 C-292.16844727 399.59754883 -292.16844727 399.59754883 -292.02148438 401.48242188 C-291.56164986 407.20720728 -291.04071412 412.89179328 -290.125 418.5625 C-285.75209251 414.52535506 -282.56595896 410.09240973 -279.3125 405.125 C-278.78914062 404.3323877 -278.26578125 403.53977539 -277.7265625 402.72314453 C-272.32761536 394.47051557 -266.96467405 386.06986748 -263.1875 376.9375 C-258.5705991 369.38257126 -247.4493776 368.08485162 -239.375 365.9375 C-238.14015869 365.59976562 -236.90531738 365.26203125 -235.63305664 364.9140625 C-229.07026072 363.12181795 -222.49375022 361.39313995 -215.89724731 359.72915649 C-212.59301123 358.89273627 -209.2933089 358.03914104 -205.99377441 357.18438721 C-204.39448011 356.77530929 -202.79301 356.37462981 -201.18933105 355.98309326 C-188.37457255 352.85229511 -178.28174525 348.58296039 -169.125 338.5625 C-167.92092817 336.5276289 -167.92092817 336.5276289 -167.2109375 334.41015625 C-166.92613525 333.63969971 -166.64133301 332.86924316 -166.34790039 332.07543945 C-166.06809326 331.26679443 -165.78828613 330.45814941 -165.5 329.625 C-165.20150146 328.79121826 -164.90300293 327.95743652 -164.59545898 327.09838867 C-162.1331829 320.02687249 -160.39013812 312.94849681 -159.125 305.5625 C-160.08277344 306.03300781 -161.04054688 306.50351562 -162.02734375 306.98828125 C-179.03970676 315.06110247 -200.40686756 319.15537509 -219.125 314.5625 C-219.455 313.9025 -219.785 313.2425 -220.125 312.5625 C-217.01674027 309.19521862 -213.56900839 306.6411478 -209.83203125 304.02734375 C-207.8435834 302.57493541 -207.8435834 302.57493541 -207.125 299.5625 C-208.13175781 299.85125 -209.13851562 300.14 -210.17578125 300.4375 C-230.47252603 305.92898531 -250.62841634 304.6998453 -270.125 296.5625 C-270.125 295.2425 -270.125 293.9225 -270.125 292.5625 C-269.58496338 292.27004395 -269.04492676 291.97758789 -268.48852539 291.67626953 C-266.05167669 290.35242607 -263.61957413 289.02009307 -261.1875 287.6875 C-260.33736328 287.22730469 -259.48722656 286.76710938 -258.61132812 286.29296875 C-257.80244141 285.84824219 -256.99355469 285.40351563 -256.16015625 284.9453125 C-255.4112915 284.53684082 -254.66242676 284.12836914 -253.89086914 283.70751953 C-251.96917254 282.67347898 -251.96917254 282.67347898 -251.125 280.5625 C-251.70765625 280.52511719 -252.2903125 280.48773438 -252.890625 280.44921875 C-259.8593058 279.89040944 -266.38955965 278.40259453 -273.125 276.5625 C-272.6875 274.95833333 -272.25 273.35416667 -271.8125 271.75 C-271.54050781 270.7496875 -271.26851562 269.749375 -270.98828125 268.71875 C-270.4293877 266.67537448 -269.86465862 264.63358239 -269.29296875 262.59375 C-268.90044922 261.18609375 -268.90044922 261.18609375 -268.5 259.75 C-268.26023437 258.89792969 -268.02046875 258.04585938 -267.7734375 257.16796875 C-266.60450947 252.47113142 -266.06961031 248.38423761 -266.4140625 243.55078125 C-267.459808 227.6227351 -267.459808 227.6227351 -263.8203125 222.8515625 C-261.19470021 220.07779513 -258.16388049 217.86712585 -255.125 215.5625 C-252.69890664 213.11637289 -252.69890664 213.11637289 -251.125 210.5625 C-251.91250276 207.43371578 -251.91250276 207.43371578 -254.375 205.375 C-264.83776824 194.67444158 -267.3059166 181.03752516 -267.375 166.625 C-267.395625 165.55314453 -267.41625 164.48128906 -267.4375 163.37695312 C-267.46623308 157.57646338 -267.21389552 153.64292026 -264.125 148.5625 C-264.125 142.71924286 -266.55351783 137.99542708 -268.8515625 132.6953125 C-282.02876659 100.27777361 -273.20125109 57.45721241 -260.66796875 26.08740234 C-255.02423621 12.72863588 -246.67666521 -1.22044567 -232.75 -6.9375 C-221.44537629 -10.45938555 -211.67474667 -8.0121148 -201.1796875 -3.04296875 C-198.011837 -2.0865987 -198.011837 -2.0865987 -194.99609375 -4.04296875 C-193.84037252 -4.88856041 -192.69657573 -5.75059217 -191.5625 -6.625 C-134.11194808 -47.37923191 -53.95059912 -47.54550516 0 0 Z " fill="#050402" transform="translate(857.125,53.4375)"/>
<path d="M0 0 C0.45439453 1.54107422 0.45439453 1.54107422 0.91796875 3.11328125 C3.39846574 11.37926982 6.09183512 19.27756008 10 27 C10.43957031 27.88945312 10.87914062 28.77890625 11.33203125 29.6953125 C23.9991738 54.19210057 44.59774245 71.09645973 69 83 C69 83.66 69 84.32 69 85 C91.91322206 76.54973371 108.11198851 60.75218025 118.33984375 38.8125 C122.7108187 29.00139075 123.5846039 19.61408658 124 9 C132.32494526 11.13774316 139.87548108 14.51319084 147.625 18.1875 C148.87266798 18.77445645 150.12047183 19.36112416 151.3684082 19.94750977 C154.91811296 21.6194879 158.45996177 23.30764312 162 25 C163.34022217 25.63905273 163.34022217 25.63905273 164.70751953 26.29101562 C172.46996632 30.0123625 180.1187979 33.76973147 187 39 C187.66 39.49628906 188.32 39.99257813 189 40.50390625 C206.226926 54.46713728 210.5775042 73.15203484 214.57241821 93.79789734 C215.85650061 100.38134531 217.24559143 106.94094873 218.6484375 113.5 C218.88486969 114.60564804 219.12130188 115.71129608 219.36489868 116.85044861 C219.8517933 119.12630201 220.33878365 121.40213492 220.8258667 123.677948 C224.64506962 141.54978607 228.42968917 159.41552683 231.54345703 177.42626953 C231.86570045 179.24289526 232.20706232 181.05617974 232.56201172 182.86669922 C233.56162837 188.01494321 234.23310749 192.75508139 234 198 C191.26560643 210.71999014 191.26560643 210.71999014 174 207 C174.21003662 205.64007935 174.21003662 205.64007935 174.42431641 204.25268555 C175.75698003 195.07427417 176.38675027 186.10343828 176.375 176.8125 C176.37512085 176.14389954 176.3752417 175.47529907 176.37536621 174.78643799 C176.34556604 163.12798697 175.10138552 152.23639059 172 141 C171.68804688 139.82050781 171.37609375 138.64101563 171.0546875 137.42578125 C168.33967552 127.96886978 164.77002789 118.45650506 160.31640625 109.68359375 C159 107 159 107 159 105 C158.34 105 157.68 105 157 105 C155.30062378 113.15700586 156.4111054 119.16110413 159.52490234 126.72045898 C177.1910261 169.90714872 167.1168313 216.67050251 154.92211914 259.62695312 C151.18268569 272.86416347 147.58053682 286.1866387 147 300 C146.96745117 300.67562988 146.93490234 301.35125977 146.90136719 302.04736328 C145.57280887 333.22822449 155.0146377 360.22913488 170.56201172 386.74902344 C173 390.90772788 173 390.90772788 173 392 C165.68252358 393.13630416 158.35043906 394.10228244 151 395 C149.84113281 395.14405273 148.68226563 395.28810547 147.48828125 395.43652344 C82.08937276 403.1645295 14.07622549 398.72021396 -50 384 C-49.5153125 383.1028125 -49.030625 382.205625 -48.53125 381.28125 C-41.09000249 367.45402508 -33.86956353 353.5819356 -28 339 C-27.55785156 337.9171875 -27.11570312 336.834375 -26.66015625 335.71875 C-20.80712821 320.49020288 -18.06567179 304.29046657 -18 288 C-17.99597168 287.32437012 -17.99194336 286.64874023 -17.98779297 285.95263672 C-18.06205552 267.60978736 -22.97270038 250.37258888 -31 234 C-36.60604072 222.5467456 -41.95187675 211.4304846 -45 199 C-45.16226074 198.34870117 -45.32452148 197.69740234 -45.49169922 197.02636719 C-49.986151 178.00031847 -50.40713739 155.82231371 -45 137 C-44.38627761 134.75663105 -43.77304845 132.51312715 -43.16015625 130.26953125 C-37.45251139 109.69755608 -37.45251139 109.69755608 -33.70776367 100.47827148 C-32.50354753 96.26164573 -33.15350196 92.24169125 -34 88 C-35.66032125 91.0746763 -36.70555463 94.09492302 -37.6640625 97.4519043 C-37.97778809 98.54371506 -38.29151367 99.63552582 -38.61474609 100.76042175 C-38.94812988 101.93647476 -39.28151367 103.11252777 -39.625 104.32421875 C-39.97256348 105.54019241 -40.32012695 106.75616608 -40.67822266 108.00898743 C-41.41304008 110.58318907 -42.14630708 113.15777162 -42.87695312 115.7331543 C-43.80710562 119.01126356 -44.74303413 122.28768761 -45.68093872 125.56358624 C-46.58172893 128.71217493 -47.47823412 131.86198191 -48.375 135.01171875 C-48.70838379 136.1776506 -49.04176758 137.34358246 -49.38525391 138.54484558 C-51.1192728 144.6665969 -52.69406061 150.77246642 -54 157 C-54.33 157 -54.66 157 -55 157 C-55.14695312 155.1128125 -55.14695312 155.1128125 -55.296875 153.1875 C-56.61860801 137.55390067 -59.2048684 123.28976203 -66 109 C-66.41765625 108.08863281 -66.8353125 107.17726563 -67.265625 106.23828125 C-73.10262012 94.48042613 -83.2966077 83.53301682 -95 77.4375 C-97 76 -97 76 -97.83203125 73.1875 C-98 70 -98 70 -96.69921875 67.75390625 C-96.03535156 67.03074219 -95.37148438 66.30757813 -94.6875 65.5625 C-84.04508543 53.17420939 -74.5297732 38.21213385 -68.59375 22.98828125 C-64.55764128 17.95303778 -54.33080446 16.44868106 -48.2890625 14.53125 C-46.77679581 14.04887878 -46.77679581 14.04887878 -45.23397827 13.5567627 C-43.11136889 12.88014516 -40.9884485 12.20450259 -38.86523438 11.52978516 C-35.64121438 10.50515312 -32.41818613 9.47745018 -29.1953125 8.44921875 C-27.1224535 7.78888144 -25.04953865 7.12871944 -22.9765625 6.46875 C-22.02520416 6.16553833 -21.07384583 5.86232666 -20.09365845 5.54992676 C-15.54863628 4.10648414 -10.99885507 2.67901911 -6.43896484 1.28320312 C-5.63308929 1.03606567 -4.82721375 0.78892822 -3.99691772 0.53430176 C-2 0 -2 0 0 0 Z " fill="#C9DD7C" transform="translate(666,413)"/>
<path d="M0 0 C0.98613281 0.82628906 1.97226562 1.65257813 2.98828125 2.50390625 C10.82256891 8.80830025 19.41994441 13.41360289 28.30078125 18.06640625 C28.94853516 18.41413086 29.59628906 18.76185547 30.26367188 19.12011719 C50.23926788 29.8400051 72.05347832 38.38208009 94.23828125 43.06640625 C96.02963501 43.44768677 96.02963501 43.44768677 97.85717773 43.83666992 C114.10970795 47.18710685 130.62095727 49.56334753 147.17163086 50.80932617 C149.30078125 51.06640625 149.30078125 51.06640625 151.30078125 52.06640625 C151.99926758 54.86352539 151.99926758 54.86352539 152.6328125 58.6015625 C152.87341141 59.9750665 153.11430825 61.34851833 153.35546875 62.72192383 C153.47889648 63.44247955 153.60232422 64.16303528 153.72949219 64.90542603 C157.70906225 90.57730112 157.70906225 90.57730112 169.9609375 113.04296875 C176.38465305 122.74409019 169.10372746 146.99178553 166.8843689 157.95143127 C166.32380921 160.65839869 165.75190863 163.36271138 165.17578125 166.06640625 C164.97792023 167.00296051 164.7800592 167.93951477 164.57620239 168.90444946 C157.0613819 204.28821949 147.51308899 236.44610883 117.30078125 259.06640625 C116.25921875 259.84628906 115.21765625 260.62617188 114.14453125 261.4296875 C106.40954159 266.98478603 98.17968153 271.30264771 89.61328125 275.44140625 C88.58058105 275.9413208 87.54788086 276.44123535 86.48388672 276.95629883 C65.49326876 286.8439583 65.49326876 286.8439583 55.13183594 283.33105469 C52.77834032 282.43549458 50.47944706 281.45808414 48.17578125 280.44140625 C47.34393311 280.08022705 46.51208496 279.71904785 45.6550293 279.34692383 C43.19628268 278.26904905 40.74721862 277.1718943 38.30078125 276.06640625 C37.32020752 275.62868896 37.32020752 275.62868896 36.31982422 275.18212891 C8.42031149 262.58015685 -14.65179779 241.90156222 -25.69921875 213.06640625 C-27.10684753 209.01478528 -28.36540218 204.93137383 -29.57421875 200.81640625 C-29.91155029 199.67179932 -30.24888184 198.52719238 -30.59643555 197.34790039 C-34.69110057 183.08598201 -37.7869136 168.60942159 -40.69921875 154.06640625 C-40.88355469 153.15004395 -41.06789063 152.23368164 -41.2578125 151.28955078 C-43.63236041 139.19849019 -44.78740817 126.94996763 -45.53881836 114.65698242 C-45.63828683 113.05049851 -45.76646854 111.44518204 -45.93969727 109.8449707 C-46.38915557 103.80761294 -43.94932645 100.87727183 -40.26171875 96.50390625 C-35.95827037 91.14935013 -32.27135606 85.82697409 -28.94921875 79.81640625 C-26.28853967 75.13684985 -24.04767495 71.52750685 -18.81640625 69.609375 C-18.11773438 69.43019531 -17.4190625 69.25101562 -16.69921875 69.06640625 C-15.61125 68.7209375 -14.52328125 68.37546875 -13.40234375 68.01953125 C-1.96025549 65.07452119 7.78761713 67.26623401 18.30078125 72.06640625 C19.78578125 72.56140625 19.78578125 72.56140625 21.30078125 73.06640625 C18.51225131 67.48934637 15.54087825 65.92449008 9.73828125 63.828125 C-0.43094927 60.65024046 -10.77793347 61.22590872 -20.69921875 65.06640625 C-20.0642437 60.76412631 -19.07858362 56.72817497 -17.82421875 52.56640625 C-12.46610912 34.11502507 -9.92755105 17.05944715 -13.69921875 -1.93359375 C-8.13766242 -3.09764042 -4.7230653 -3.38338253 0 0 Z " fill="#FBCAA3" transform="translate(673.69921875,75.93359375)"/>
<path d="M0 0 C1.54762961 1.45200372 3.08975553 2.9099073 4.625 4.375 C5.28628906 4.96152344 5.94757813 5.54804687 6.62890625 6.15234375 C29.3507243 27.12986062 37.43527606 56.44397619 38.75390625 86.29296875 C39.14418356 105.15637183 34.84592558 122.69447467 28.625 140.375 C19.08004501 140.86495016 11.36925294 139.16417628 2.625 135.375 C2.625 134.385 2.625 133.395 2.625 132.375 C1.05319192 130.38374875 -0.68852898 128.62193484 -2.453125 126.80078125 C-7.66261556 120.22538768 -9.58330572 112.73332017 -11.5 104.6875 C-11.75861816 103.62402344 -12.01723633 102.56054688 -12.28369141 101.46484375 C-14.66894413 91.47821943 -16.77981117 81.69768494 -16.375 71.375 C-13.735 71.705 -11.095 72.035 -8.375 72.375 C-8.375 70.395 -8.375 68.415 -8.375 66.375 C-9.3959375 66.26542969 -10.416875 66.15585938 -11.46875 66.04296875 C-16.43944277 65.50392887 -21.40761488 64.94366563 -26.375 64.375 C-27.31134277 64.26784668 -28.24768555 64.16069336 -29.21240234 64.05029297 C-78.19326217 58.37099327 -130.1189419 46.81882686 -170.31567383 16.36791992 C-173.04771182 15.05064683 -174.51377565 15.54937162 -177.375 16.375 C-188.40725806 18.69758065 -188.40725806 18.69758065 -192.375 17.375 C-192.05144531 18.21546875 -191.72789062 19.0559375 -191.39453125 19.921875 C-184.7698094 42.35963022 -196.10780016 72.56390717 -206.375 92.375 C-215.12114937 108.32468182 -225.83828701 122.23335411 -238.375 135.375 C-239.18517578 136.26251953 -239.18517578 136.26251953 -240.01171875 137.16796875 C-241.375 138.375 -241.375 138.375 -244.25 139.0625 C-247.77969816 138.2859664 -248.12348718 137.92122584 -250.0625 135.0625 C-256.43088574 123.51340175 -256.5846973 110.40582048 -256.5625 97.5625 C-256.56156342 96.86737305 -256.56062683 96.17224609 -256.55966187 95.45605469 C-256.52809324 84.65243262 -256.25834866 74.0351191 -254.375 63.375 C-254.14103516 62.04662109 -254.14103516 62.04662109 -253.90234375 60.69140625 C-250.19250229 40.43841994 -243.85197308 14.42203563 -227.375 0.375 C-222.01906605 -3.30269761 -218.4193051 -4.18593928 -212 -3.9375 C-211.21036865 -3.93290771 -210.4207373 -3.92831543 -209.60717773 -3.92358398 C-205.76575658 -3.8718438 -202.13418175 -3.64763398 -198.37109375 -2.859375 C-185.10782892 -0.59395142 -176.01150009 -7.02394232 -165.05078125 -13.72265625 C-114.35579362 -44.44336018 -44.46467423 -39.38106056 0 0 Z " fill="#69321E" transform="translate(848.375,56.625)"/>
<path d="M0 0 C9.39870274 16.71736471 11.20469428 34.93685343 12.03515625 53.75390625 C12.42167436 60.41222772 13.27919625 65.87491246 16.09130859 71.95239258 C19.52060597 79.67982866 18.65406384 89.20368747 16 97 C16.99 97 17.98 97 19 97 C19.33 96.34 19.66 95.68 20 95 C20.33 95.66 20.66 96.32 21 97 C26.82528643 81.54357335 27.05060248 63.59071058 25.2265625 47.3828125 C24.21113016 36.70326544 25.34443987 25.77923198 25.90820312 15.09375 C25.982586 13.39718745 26 11.69819236 26 10 C28.25 9.9375 28.25 9.9375 31 11 C38.05142135 20.87198989 37.29850471 35.58059639 37.23046875 47.10546875 C37.23001053 48.39189774 37.22955231 49.67832672 37.2290802 51.0037384 C37.2275337 53.69533891 37.21937761 56.38680291 37.20581055 59.07836914 C37.18863355 62.52940265 37.18500256 65.9802899 37.18575573 69.4313612 C37.18541952 72.73941674 37.17659831 76.04742401 37.16796875 79.35546875 C37.16685593 80.59491745 37.1657431 81.83436615 37.16459656 83.1113739 C37.15821671 84.25048721 37.15183685 85.38960052 37.14526367 86.56323242 C37.14145187 87.5677092 37.13764008 88.57218597 37.13371277 89.60710144 C37 92 37 92 36 94 C35.95977609 96.3329866 35.95679753 98.66706666 36 101 C36.99 99.02 36.99 99.02 38 97 C39.32 97 40.64 97 42 97 C41.773125 95.741875 41.54625 94.48375 41.3125 93.1875 C40.92578125 91.04296875 40.92578125 91.04296875 41 89 C41.46108154 88.54012695 41.92216309 88.08025391 42.3972168 87.60644531 C45.17552604 84.82178807 46.15516588 81.20124835 47.5 77.5625 C47.81187256 76.72138672 48.12374512 75.88027344 48.44506836 75.01367188 C50.82766389 68.23461284 51.99564403 61.63550015 52.86499023 54.52636719 C53.68141895 48.23968063 55.14328097 42.35234469 57.0625 36.3125 C57.32039307 35.49201172 57.57828613 34.67152344 57.84399414 33.82617188 C58.49509339 31.86043006 59.23934641 29.92600032 60 28 C60.99 27.505 60.99 27.505 62 27 C66.04603829 32.91840707 65.75395976 38.02411059 65 45 C64.22223016 48.65829918 63.17653078 52.23896886 62.13964844 55.83081055 C58.98076722 67.07576498 57.34372548 78.66771977 55.49316406 90.18530273 C55 93 55 93 54.40917969 95.23852539 C53.89972508 97.43167276 54.31917127 98.88186617 55 101 C55.99 101 56.98 101 58 101 C65.27844004 117.85305462 60.0500835 136.2213494 55.73095703 153.10449219 C54.78098819 156.86756182 53.93820304 160.64255247 53.125 164.4375 C52.90070313 165.46746094 52.67640625 166.49742187 52.4453125 167.55859375 C51.91028027 170.0782701 51.91028027 170.0782701 52 173 C52.66 172.01 53.32 171.02 54 170 C54.99 170 55.98 170 57 170 C56.58103969 174.88787027 54.41618129 176.6714131 51 180 C51 180.99 51 181.98 51 183 C52.65 183 54.3 183 56 183 C55.90912109 183.63462158 55.81824219 184.26924316 55.72460938 184.9230957 C53.72643557 199.36502495 52.69066024 213.55847636 52.6875 228.125 C52.68266602 229.20003281 52.68266602 229.20003281 52.67773438 230.29678345 C52.65569497 238.30937058 52.99259016 246.21082772 53.89453125 254.17578125 C53.97176926 254.87063629 54.04900726 255.56549133 54.12858582 256.28140259 C55.66242921 268.57896882 63.16006303 283.16006303 72 292 C71.81824219 291.37432129 71.63648438 290.74864258 71.44921875 290.10400391 C70.63006735 287.27845666 69.8149855 284.45175151 69 281.625 C68.57074219 280.14773438 68.57074219 280.14773438 68.1328125 278.640625 C67.86210938 277.69960938 67.59140625 276.75859375 67.3125 275.7890625 C67.06113281 274.91975098 66.80976562 274.05043945 66.55078125 273.15478516 C66 271 66 271 66 269 C68.2265625 268.734375 68.2265625 268.734375 71 269 C79.33188612 275.65373238 86.2921463 286.70758927 89 297 C89.40270548 302.6734096 89.22146054 308.31997007 89 314 C88.95488281 315.30839844 88.90976562 316.61679687 88.86328125 317.96484375 C87.81905015 331.322865 82.12998756 343.74333153 75 355 C74.67 354.34 74.34 353.68 74 353 C74.92578125 350.609375 74.92578125 350.609375 76.3125 347.75 C79.54807002 341.03781463 81.31405766 335.62913478 81.125 328.125 C81.11597656 327.43664062 81.10695313 326.74828125 81.09765625 326.0390625 C81.07432513 324.35922162 81.03846326 322.67956254 81 321 C80.8040625 321.969375 80.608125 322.93875 80.40625 323.9375 C78.09766601 334.57065296 74.22736907 343.50095174 69 353 C68.27718911 354.34496899 67.55453305 355.6900212 66.83203125 357.03515625 C61.74661468 366.38083845 56.07633652 375.2693793 50 384 C49.46890625 384.78761719 48.9378125 385.57523438 48.390625 386.38671875 C47 388 47 388 44.125 388.5625 C39.90399449 387.80271901 38.77745717 386.25165717 36 383 C35.23236328 382.19755859 35.23236328 382.19755859 34.44921875 381.37890625 C16.06098325 361.72251658 6.43376645 335.02977516 2 309 C1.73630615 307.58750977 1.73630615 307.58750977 1.46728516 306.14648438 C0.58109504 300.1792857 0.71025268 294.1474254 0.6875 288.125 C0.68421692 287.41669037 0.68093384 286.70838074 0.67755127 285.97860718 C0.65892137 273.49675158 2.02182282 261.63878827 4.51708984 249.39404297 C6.31503014 240.48069486 7.53136025 231.47656429 7.89892578 222.38964844 C7.97470662 220.59799899 8.06697011 218.80703395 8.16748047 217.01660156 C9.02236157 200.54379352 7.71671954 187.03146522 1.18847656 171.80224609 C-2.00162401 164.28047651 -4.7504049 156.90327178 -6.76171875 148.9765625 C-6.99784378 148.06796478 -7.23396881 147.15936707 -7.47724915 146.22323608 C-8.22015536 143.35870708 -8.953967 140.49194182 -9.6875 137.625 C-10.19015607 135.68083458 -10.69340639 133.7368227 -11.19726562 131.79296875 C-12.47302583 126.86407521 -13.74462894 121.93413125 -15 117 C-15.27617912 115.94369888 -15.27617912 115.94369888 -15.55793762 114.86605835 C-16.04518699 112.80925415 -16.13279519 110.98749593 -16.125 108.875 C-16.12242187 108.0809375 -16.11984375 107.286875 -16.1171875 106.46875 C-16.00220682 104.04649025 -15.64052391 101.76596269 -15.25 99.375 C-14.71675571 94.41808125 -15.80463411 90.52330492 -17.24511719 85.79443359 C-19.21668706 78.9670833 -20.07191739 72.03325616 -21 65 C-22.92179062 50.84188073 -25.59257539 38.13546825 -31.80200195 25.18652344 C-34.10177438 20.30532315 -34.10177438 20.30532315 -33 17 C-28.21280691 17.42239939 -25.27012423 19.65535982 -22 23 C-20.44042399 25.39717831 -19.16379786 27.57470647 -17.9375 30.125 C-17.60024902 30.81658203 -17.26299805 31.50816406 -16.91552734 32.22070312 C-11.30920024 44.26452014 -8.90554515 57.00703046 -7.53125 70.12890625 C-6.79302 75.50821453 -5.39863494 80.5813583 -3.90234375 85.79296875 C-2.60763842 90.39449721 -1.79753894 94.04834542 -2.4375 98.8125 C-2.53933594 99.60269531 -2.64117187 100.39289063 -2.74609375 101.20703125 C-2.82988281 101.79871094 -2.91367187 102.39039063 -3 103 C-2.34 103.33 -1.68 103.66 -1 104 C-0.67 101.36 -0.34 98.72 0 96 C0.99 96.99 0.99 96.99 2 98 C3.17340326 95.65319349 3.12909387 94.24701175 3.1328125 91.6328125 C3.13482666 90.75222168 3.13684082 89.87163086 3.13891602 88.96435547 C3.13432373 88.02736816 3.12973145 87.09038086 3.125 86.125 C3.12234131 85.17641113 3.11968262 84.22782227 3.11694336 83.25048828 C3.26119342 71.45977458 3.26119342 71.45977458 1 60 C0.8038619 57.79755139 0.65623367 55.59065993 0.53515625 53.3828125 C0.45647812 52.03905676 0.37769856 50.69530696 0.29882812 49.3515625 C0.18058026 47.25466608 0.06427431 45.15768753 -0.04956055 43.06054688 C-0.71053611 26.67045352 -0.71053611 26.67045352 -5 11 C-5.50633522 7.40962298 -5.75028155 4.09131862 -3.625 1 C-2 0 -2 0 0 0 Z " fill="#FAC9A3" transform="translate(506,233)"/>
<path d="M0 0 C3.39059568 0.58294452 6.24735521 1.4593292 9.375 2.875 C25.10804064 9.28042813 40.14440479 9.1593522 56.25 4.97265625 C59.16242566 4.21724585 62.0437941 3.54851477 65 3 C65.08636719 4.26070313 65.17273438 5.52140625 65.26171875 6.8203125 C67.22887467 35.29433875 67.22887467 35.29433875 79.10546875 60.578125 C81.69056534 63.88278456 81.82132254 66.95474233 82 71 C82.06316406 71.72960937 82.12632812 72.45921875 82.19140625 73.2109375 C82.87361319 86.45895621 78.03167013 97.75455861 70 108 C69.58830566 108.52835449 69.17661133 109.05670898 68.75244141 109.60107422 C60.67811968 119.85451934 49.28031091 134.04299743 37 139 C32.10285168 138.00842865 27.97685875 135.45200806 23.75 132.875 C23.08959717 132.47321533 22.42919434 132.07143066 21.7487793 131.6574707 C-3.96790252 115.74090437 -19.6415803 92.54446913 -27.15234375 63.60546875 C-28 60 -28 60 -28 58 C-26.05859375 56.703125 -26.05859375 56.703125 -23.4375 55.25 C-10.81583518 47.84434053 -5.06325267 38.26301441 -0.9296875 24.4140625 C0.29511747 19.44232129 0.22122919 14.5927446 0.125 9.5 C0.11597656 8.5821875 0.10695313 7.664375 0.09765625 6.71875 C0.07432432 4.47888444 0.04159235 2.23958817 0 0 Z " fill="#FBCAA3" transform="translate(701,354)"/>
<path d="M0 0 C0.01458252 0.77448486 0.02916504 1.54896973 0.04418945 2.34692383 C1.00846559 49.24209171 5.76577278 95.80913861 10.3577137 142.45664215 C11.15352427 150.54836718 11.93672284 158.64130802 12.71875 166.734375 C12.78461807 167.41584846 12.85048615 168.09732193 12.91835022 168.79944611 C13.27918346 172.53293674 13.63973769 176.26645423 14 180 C14.99 180.33 15.98 180.66 17 181 C17.125 183.875 17.125 183.875 17 187 C14.16184407 189.83815593 11.26112716 189.55156908 7.4375 189.75 C6.6655127 189.79310303 5.89352539 189.83620605 5.09814453 189.88061523 C-5.96492912 190.32240367 -17.00250652 189.09173173 -28 188 C-27.83983398 187.49879639 -27.67966797 186.99759277 -27.51464844 186.48120117 C-25.05379492 174.61703881 -27.4787259 161.88635803 -29.75 150.1875 C-30.05896231 148.54173068 -30.36711731 146.89580964 -30.67456055 145.24975586 C-31.5572124 140.56027367 -32.4654794 135.87604252 -33.37908936 131.19250488 C-34.04075053 127.79047508 -34.69493119 124.38705996 -35.34814453 120.98339844 C-40.8534742 92.35433425 -46.58647092 63.83527574 -53.94140625 35.6171875 C-54.11905518 34.93427139 -54.2967041 34.25135529 -54.47973633 33.54774475 C-55.48480362 29.74966608 -56.6509179 26.04407935 -57.921875 22.328125 C-58.93067989 19.04647055 -59.02508165 18.10595468 -58.19921875 14.6171875 C-57.45091797 13.25980469 -57.45091797 13.25980469 -56.6875 11.875 C-56.19636719 10.94429687 -55.70523438 10.01359375 -55.19921875 9.0546875 C-54.60560547 8.03761719 -54.60560547 8.03761719 -54 7 C-53.37134033 6.98018066 -52.74268066 6.96036133 -52.0949707 6.93994141 C-35.65541396 6.3956151 -20.33719002 4.7150183 -4.359375 0.8046875 C-1 0 -1 0 0 0 Z " fill="#FBCAA3" transform="translate(894,619)"/>
<path d="M0 0 C0.08636719 1.05574219 0.17273438 2.11148437 0.26171875 3.19921875 C2.9794665 33.10128971 12.49411069 58.23199808 32.4375 80.9375 C35 84 35 84 35 86 C3.57380152 86.70147764 3.57380152 86.70147764 -10.19140625 81.8828125 C-13.81233051 80.74466385 -16.32806162 81.16861773 -20 82 C-20.99 82.66 -21.98 83.32 -23 84 C-19.14374856 87.33274503 -15.24036596 89.56499945 -10.6875 91.75 C-10.04232422 92.06582031 -9.39714844 92.38164062 -8.73242188 92.70703125 C-7.15765541 93.47691708 -5.5791996 94.23924891 -4 95 C-4 95.33 -4 95.66 -4 96 C-14.0839172 96.6453707 -24.14357628 97.10342621 -34.25 97.125 C-35.55167114 97.13176758 -35.55167114 97.13176758 -36.87963867 97.13867188 C-41.69207446 97.12744208 -46.25469725 96.80798398 -51 96 C-51.32987303 100.72818006 -50.61137796 103.08293305 -48 107 C-48 107.66 -48 108.32 -48 109 C-59.37530207 108.79520733 -70.93879445 106.88032991 -79.43359375 98.68359375 C-80.20896484 97.85021484 -80.20896484 97.85021484 -81 97 C-81.65097656 96.31035156 -82.30195312 95.62070312 -82.97265625 94.91015625 C-88 89.38307654 -88 89.38307654 -88 87 C-86.25617577 85.72359257 -84.45159728 84.52985118 -82.625 83.375 C-55.66926421 65.79379996 -34.82592827 41.1146951 -26.7265625 9.6328125 C-26 7 -26 7 -25 6 C-22.81731875 5.67422668 -20.62840726 5.38986047 -18.4375 5.125 C-12.70790591 4.34820488 -5.28743291 0 0 0 Z " fill="#68321E" transform="translate(865,264)"/>
<path d="M0 0 C1.41681634 0.31182069 2.83344651 0.62448737 4.25 0.9375 C5.43335938 1.19853516 5.43335938 1.19853516 6.640625 1.46484375 C8.0921362 1.79407725 9.53763555 2.15361016 10.96875 2.5625 C13.43964723 3.09469325 15.72487753 3.0957253 18.25 3.0625 C19.14203125 3.05347656 20.0340625 3.04445313 20.953125 3.03515625 C21.62859375 3.02355469 22.3040625 3.01195312 23 3 C23.5878125 4.8253125 23.5878125 4.8253125 24.1875 6.6875 C29.45465817 22.36648246 35.68719349 36.94605719 46 50 C46.73476563 50.95003906 47.46953125 51.90007812 48.2265625 52.87890625 C52.73271807 58.56966972 57.37073218 63.43711443 63 68 C63.82113281 68.70769531 64.64226562 69.41539062 65.48828125 70.14453125 C72.26678913 75.90282955 79.3369052 80.52884612 87 85 C84.71797611 89.56404777 77.61626648 91.25605144 73 93 C61.2389663 96.85423254 48.37493291 99.22568267 36 99 C36.875 97.97916667 37.75 96.95833333 38.625 95.9375 C39.16769531 95.30070312 39.71039062 94.66390625 40.26953125 94.0078125 C41.3982025 92.69824811 42.54092732 91.40062766 43.69921875 90.1171875 C44.49779297 89.22386719 44.49779297 89.22386719 45.3125 88.3125 C45.80363281 87.77238281 46.29476562 87.23226562 46.80078125 86.67578125 C48.14196147 84.80162387 48.58328612 83.25025496 49 81 C46.47906702 81.311712 43.9582543 81.62434902 41.4375 81.9375 C40.73302734 82.02451172 40.02855469 82.11152344 39.30273438 82.20117188 C38.60341797 82.28818359 37.90410156 82.37519531 37.18359375 82.46484375 C36.47702637 82.55266113 35.77045898 82.64047852 35.04248047 82.73095703 C33.20237255 82.97334275 31.36814491 83.25940425 29.53515625 83.55078125 C17.16760495 85.12234854 3.95195898 84.75436175 -8 81 C-8.495 80.01 -8.495 80.01 -9 79 C-8.45996338 78.67725098 -7.91992676 78.35450195 -7.36352539 78.02197266 C-4.92664943 76.56158002 -2.49455292 75.09340931 -0.0625 73.625 C0.78763672 73.11710937 1.63777344 72.60921875 2.51367188 72.0859375 C3.32255859 71.59609375 4.13144531 71.10625 4.96484375 70.6015625 C6.08814087 69.92601318 6.08814087 69.92601318 7.23413086 69.23681641 C9.14455911 68.10758726 9.14455911 68.10758726 10 66 C3.20765962 62.51701042 -3.96458688 61.5611291 -11.4375 60.3125 C-12.75469385 60.08607945 -14.07175278 59.85887255 -15.38867188 59.63085938 C-18.59120893 59.07950684 -21.79488852 58.53614741 -25 58 C-24.73445312 57.06542969 -24.46890625 56.13085938 -24.1953125 55.16796875 C-23.83501791 53.84209836 -23.47857175 52.51517899 -23.125 51.1875 C-22.93502441 50.47770996 -22.74504883 49.76791992 -22.54931641 49.03662109 C-21.33247534 44.18713608 -20.77042864 39.57251541 -20.51293945 34.58569336 C-20.11595059 27.50383356 -19.83572948 22.74874324 -14.4375 17.625 C-13.10912109 16.53445313 -13.10912109 16.53445313 -11.75390625 15.421875 C-8.49673629 12.55741348 -6.26483237 9.46578958 -3.875 5.875 C-3.48497803 5.29314941 -3.09495605 4.71129883 -2.69311523 4.11181641 C-1.7865135 2.74707942 -0.89186173 1.37441494 0 0 Z " fill="#68311E" transform="translate(611,266)"/>
<path d="M0 0 C4.4368614 1.33105842 6.94185147 2.96713939 9.36450195 7.00170898 C12.48909819 13.08657764 14.42772891 18.86287777 15.75 25.5625 C15.9552832 26.56579346 16.16056641 27.56908691 16.37207031 28.6027832 C18.8513776 41.54496244 19.81423613 54.6894053 20.81542969 67.81323242 C21.0898927 70.58318757 21.52098666 73.22293688 22.125 75.9375 C22.13958252 75.20974365 22.15416504 74.4819873 22.16918945 73.73217773 C22.5346805 57.27474871 23.63602839 41.20939237 26.125 24.9375 C26.73147655 20.87290219 27.24958112 17.04867694 27.125 12.9375 C28.115 13.4325 28.115 13.4325 29.125 13.9375 C29.22160004 19.99110244 29.18629893 25.96801294 28.625 32 C27.95904909 39.29691928 27.79273705 46.46175448 28.625 53.75 C29.74410803 64.31569638 29.11180083 74.42820606 27.8125 84.9375 C27.69487305 85.92903076 27.57724609 86.92056152 27.45605469 87.94213867 C26.75564717 93.20728647 25.87815769 97.37203962 23.125 101.9375 C21.475 101.6075 19.825 101.2775 18.125 100.9375 C18.08245644 98.93795254 18.08419217 96.93708364 18.125 94.9375 C18.455 94.6075 18.785 94.2775 19.125 93.9375 C19.48558864 86.36513848 19.09640798 78.81426363 15.609375 71.95703125 C13.21561519 66.52815639 13.45561747 60.58852295 13.1875 54.75 C12.18721717 37.90479988 9.83823276 22.48524725 3.125 6.9375 C2.63 5.4525 2.63 5.4525 2.125 3.9375 C0.805 4.2675 -0.515 4.5975 -1.875 4.9375 C-1.95831896 6.41564012 -2.01520267 7.8952692 -2.0625 9.375 C-2.09730469 10.19871094 -2.13210938 11.02242187 -2.16796875 11.87109375 C-1.90315978 14.64276099 -1.37573848 16.51682389 -0.43359375 19.09765625 C1.40888358 24.33534602 1.86691551 29.42443473 2.25 34.9375 C2.36782837 36.43458496 2.36782837 36.43458496 2.48803711 37.96191406 C3.02107679 44.89974999 3.46670137 51.84562149 3.78369141 58.796875 C3.92852362 61.74402481 4.18497471 64.11742412 5.125 66.9375 C6.22740697 74.53185914 6.22822604 82.2171628 6.25 89.875 C6.25688843 91.24277588 6.25688843 91.24277588 6.26391602 92.63818359 C6.25414857 96.86162675 6.20746402 100.82241852 5.125 104.9375 C4.465 103.9475 3.805 102.9575 3.125 101.9375 C2.465 103.9175 1.805 105.8975 1.125 107.9375 C0.135 107.6075 -0.855 107.2775 -1.875 106.9375 C-1.76800781 106.08027344 -1.66101563 105.22304688 -1.55078125 104.33984375 C-0.8300002 97.46529758 -0.7339582 93.2195836 -3.875 86.9375 C-5.87672606 80.0730443 -7.03011768 73.15810578 -7.8125 66.0625 C-9.24134773 53.62197922 -12.56626712 42.67117353 -18.484375 31.66796875 C-19.875 28.9375 -19.875 28.9375 -19.875 26.9375 C-20.4525 26.669375 -21.03 26.40125 -21.625 26.125 C-23.875 24.9375 -23.875 24.9375 -25.9375 23.3125 C-27.8867832 21.6481265 -27.8867832 21.6481265 -30.875 21.9375 C-29.5626061 26.09341401 -28.22327526 30.13851558 -26.48046875 34.13671875 C-20.0374941 48.96371611 -17.96176498 64.70062983 -16.0012207 80.65869141 C-15.32509216 85.86711592 -14.16272015 90.63118752 -12.45019531 95.60058594 C-11.62913918 98.93638785 -12.00227731 101.86675581 -12.55078125 105.22265625 C-13.45838523 112.82247267 -12.56278005 119.47318936 -10.609375 126.8359375 C-10.3747052 127.75154449 -10.1400354 128.66715149 -9.89825439 129.61050415 C-9.40231241 131.53626252 -8.90115092 133.46068356 -8.39501953 135.38378906 C-7.62974767 138.29444259 -6.8819134 141.20914925 -6.13671875 144.125 C-2.91076631 156.71014498 -2.91076631 156.71014498 1.54980469 168.90087891 C2.22425535 171.28893807 1.92890759 172.62085602 1.125 174.9375 C-1.875 173.9375 -1.875 173.9375 -2.93066406 172.20678711 C-3.40584473 171.09702515 -3.40584473 171.09702515 -3.890625 169.96484375 C-4.2510791 169.15152588 -4.6115332 168.33820801 -4.98291016 167.50024414 C-5.3597998 166.63391357 -5.73668945 165.76758301 -6.125 164.875 C-8.88927409 158.76358231 -11.43787193 153.62666941 -16.16796875 148.796875 C-21.65802086 142.816864 -25.29678668 136.37716414 -25.5625 128.1875 C-25.2494578 122.74839181 -24.12512024 118.35070675 -20.875 113.9375 C-20.06482422 113.33808594 -20.06482422 113.33808594 -19.23828125 112.7265625 C-16.43301611 109.04515438 -17.72372401 104.057797 -18.30712891 99.73730469 C-18.89827624 95.92261381 -19.53422123 92.11690492 -20.1875 88.3125 C-20.66326474 85.51374881 -21.13460595 82.71429676 -21.6015625 79.9140625 C-21.71688828 79.2233667 -21.83221405 78.5326709 -21.95103455 77.82104492 C-22.59717926 73.87468099 -23.1306149 69.94016149 -23.5234375 65.9609375 C-24.75082073 53.71047333 -27.95953264 43.12729919 -32.55932617 31.68066406 C-32.99865479 30.58592773 -33.4379834 29.49119141 -33.890625 28.36328125 C-34.29571289 27.38786377 -34.70080078 26.41244629 -35.11816406 25.4074707 C-35.875 22.9375 -35.875 22.9375 -34.875 19.9375 C-31.37010392 18.18505196 -27.6999856 18.3994088 -23.875 18.9375 C-12.28803937 25.65793717 -8.21838466 40.79067083 -4.875 52.9375 C-3.20057037 59.49461755 -2.32184171 65.99478475 -1.6640625 72.71875 C-1.17431663 77.32911627 -0.26872617 81.51241942 1.125 85.9375 C1.36038486 78.66334859 0.43075867 71.9679417 -0.8125 64.8125 C-2.40825567 55.13814521 -3.30797006 45.6754477 -3.57958984 35.87963867 C-3.77390702 29.17922896 -4.47679059 22.75572986 -5.453125 16.12109375 C-7.00277766 4.42695563 -7.00277766 4.42695563 -4.53515625 1.16796875 C-2.875 -0.0625 -2.875 -0.0625 0 0 Z " fill="#090503" transform="translate(503.875,229.0625)"/>
<path d="M0 0 C1.77927972 3.9547856 2.53821022 7.64834613 3.125 11.9375 C3.29257812 13.12214844 3.46015625 14.30679688 3.6328125 15.52734375 C3.97031967 18.71929984 4.06852819 21.79385952 4 25 C1.22554751 22.22554751 0.47877328 19.07179435 -0.8046875 15.41015625 C-2.18590007 12.62516227 -3.30502428 11.52175314 -6 10 C-10.4952064 9.10739193 -14.05468867 9.47911417 -18.0625 11.6875 C-20.23947269 13.85398506 -20.23947269 13.85398506 -20.3125 16.75 C-20.209375 17.4925 -20.10625 18.235 -20 19 C-19.13375 18.01 -18.2675 17.02 -17.375 16 C-15.04811581 13.68954087 -14.25363349 13.05176194 -10.9375 12.375 C-5.0184649 13.63436917 -1.74045733 18.16213413 1.5 23 C7.8844703 33.17988942 8.92968472 45.30699345 10.5703125 56.98657227 C11.00001312 60.00009202 11.48872626 62.9993501 12 66 C-0.90070438 65.23335978 -9.31028085 61.18305583 -18.3125 51.75 C-26.72872732 41.28217156 -28.08717028 24.89073336 -27 12 C-25.79132985 6.28166981 -22.57590478 3.31022899 -18 0 C-12.83047166 -2.58476417 -5.51353963 -0.93847483 0 0 Z " fill="#F5C8A3" transform="translate(621,200)"/>
<path d="M0 0 C6.23129135 -0.41736064 9.8141022 0.98210397 14.8828125 4.56640625 C18.88638083 8.32837994 19.33119376 12.60106343 19.7265625 17.875 C19.60830598 30.72061408 16.81337764 45.98179773 7.6640625 55.421875 C7.014375 56.03160156 6.3646875 56.64132813 5.6953125 57.26953125 C5.025 57.91019531 4.3546875 58.55085938 3.6640625 59.2109375 C-3.23390573 65.19667442 -11.20304657 67.55188142 -20.3046875 67.26953125 C-20.03914062 65.97660156 -19.77359375 64.68367188 -19.5 63.3515625 C-19.33032715 62.5160083 -19.1606543 61.6804541 -18.98583984 60.81958008 C-18.61189146 58.97889386 -18.23455544 57.13889294 -17.85400391 55.29956055 C-16.85470277 50.38208344 -16.11371052 45.58606134 -15.6796875 40.58203125 C-14.44002438 31.75517069 -8.78039727 21.35392213 -2.16015625 15.3125 C0.74582868 13.67903058 2.40883919 13.68956537 5.6953125 14.26953125 C8.2569001 16.04769568 10.48645953 18.07374841 12.6953125 20.26953125 C12.2003125 16.80453125 12.2003125 16.80453125 11.6953125 13.26953125 C7.16515937 10.9313877 2.68642981 10.42404143 -2.3046875 11.26953125 C-7.63856955 14.82545261 -9.27724692 20.43639216 -11.3046875 26.26953125 C-12.25635213 23.19646572 -12.29831562 20.95757089 -11.78125 17.79296875 C-11.6471875 16.95765625 -11.513125 16.12234375 -11.375 15.26171875 C-11.22804688 14.39804688 -11.08109375 13.534375 -10.9296875 12.64453125 C-10.79046875 11.773125 -10.65125 10.90171875 -10.5078125 10.00390625 C-9.45071285 3.56158194 -9.45071285 3.56158194 -8.3046875 1.26953125 C-5.55143946 0.56357022 -2.81750514 0.32950484 0 0 Z " fill="#F5C7A3" transform="translate(861.3046875,198.73046875)"/>
<path d="M0 0 C0.99 1.485 0.99 1.485 2 3 C-4.28820133 9.05400389 -10.72002282 14.75185906 -17.75 19.9375 C-18.35078369 20.38520752 -18.95156738 20.83291504 -19.57055664 21.29418945 C-29.32087781 28.3564188 -39.06757505 32.28376639 -51.234375 30.53515625 C-69.00704287 27.25613783 -80.77447324 16.69373842 -93 4 C-92.67 3.34 -92.34 2.68 -92 2 C-90.69289063 2.50660156 -90.69289063 2.50660156 -89.359375 3.0234375 C-81.59834709 5.92962328 -74.28077053 8.08448624 -66 9 C-64.86949219 9.14566406 -63.73898437 9.29132813 -62.57421875 9.44140625 C-42.33047677 11.43845245 -18.73904726 8.13274651 0 0 Z " fill="#F9F9F9" transform="translate(782,278)"/>
<path d="M0 0 C0.66 0 1.32 0 2 0 C2.33 1.32 2.66 2.64 3 4 C3.58265625 3.96519531 4.1653125 3.93039063 4.765625 3.89453125 C17.98851492 3.45792639 29.52867205 7.60489112 39.7421875 15.87890625 C44.7607664 20.59359197 49.50212644 25.73616224 50.5625 32.6875 C47.09606847 40.03633485 40.39566058 44.32198122 33.04296875 47.30859375 C21.52719605 51.20590115 9.54599831 48.68237197 -1.3125 43.8125 C-7.20971367 40.66921864 -11.24532505 36.20418904 -14.4375 30.375 C-15.11300217 27.52287971 -15.13581885 24.92010529 -15 22 C-12.77605599 24.11274681 -11.01059267 26.30513909 -9.25 28.8125 C-3.84420784 36.03347237 2.12691169 40.76612826 11 43 C23.22843036 44.74226638 37.03305201 41.29973655 47 34 C46.92977627 31.05060345 46.66356797 28.816377 44.76171875 26.4765625 C39.79702668 21.99767562 33.92247948 19.02014324 28 16 C28.1546875 17.8253125 28.1546875 17.8253125 28.3125 19.6875 C28.32541001 23.32812344 28.0909207 23.88450614 25.6875 26.9375 C21.07458841 30.47764145 16.61564674 30.65319316 11 30 C6.85324317 28.68220508 3.85285827 26.98611737 1 23.6875 C-0.25938588 20.30290045 -0.27046812 17.58370253 0 14 C0.33 13.34 0.66 12.68 1 12 C-6.02673515 12.50343987 -13.01940909 13.04187968 -20 14 C-19.814375 13.2575 -19.62875 12.515 -19.4375 11.75 C-19.00796892 9.05009037 -19.14877026 7.55368923 -20 5 C-19.2575 5.350625 -18.515 5.70125 -17.75 6.0625 C-14.8677274 7.04509293 -13.78823655 7.0326802 -11 6 C-11.33 4.68 -11.66 3.36 -12 2 C-11.2265625 2.495 -11.2265625 2.495 -10.4375 3 C-7.21973488 4.32010877 -4.4429472 4.13242105 -1 4 C-0.67 2.68 -0.34 1.36 0 0 Z " fill="#070504" transform="translate(661,174)"/>
<path d="M0 0 C0.66 0.33 1.32 0.66 2 1 C2.495 2.485 2.495 2.485 3 4 C5.34533951 4.76956136 5.34533951 4.76956136 8 5 C9.7087646 3.62485459 9.7087646 3.62485459 11 2 C11.66 2 12.32 2 13 2 C12.67 3.98 12.34 5.96 12 8 C15.34373475 7.44271087 18.03312999 6.64826111 21 5 C20.835 5.928125 20.67 6.85625 20.5 7.8125 C19.92251612 10.95621353 19.92251612 10.95621353 20 14 C13.4 13.34 6.8 12.68 0 12 C0.495 12.99 0.495 12.99 1 14 C1.46581276 18.65812761 1.75049885 21.63818242 -1.25 25.375 C-6.50516252 30.3912915 -10.788813 30.50302075 -17.91796875 30.375 C-21 30 -21 30 -24.25 27.9375 C-26.29280557 24.50850494 -26.85003695 21.97402088 -27 18 C-26.67 17.34 -26.34 16.68 -26 16 C-29.69812132 17.94602767 -33.35998573 19.94728671 -37 22 C-38.08087891 22.60908203 -38.08087891 22.60908203 -39.18359375 23.23046875 C-44.21216911 26.39901194 -45.41878384 29.51224978 -47 35 C-46.30003906 35.27714844 -45.60007812 35.55429688 -44.87890625 35.83984375 C-40.84328756 37.46613785 -36.8441557 39.17719991 -32.83984375 40.87890625 C-27.40321611 43.02514027 -22.54237546 43.24556192 -16.75 43.3125 C-15.92886719 43.34150391 -15.10773437 43.37050781 -14.26171875 43.40039062 C-5.35277563 43.49216262 0.62312948 39.89703736 7.10546875 34.015625 C9.78171489 31.16831983 11.83409617 28.04734713 13.87109375 24.72265625 C14.24363281 24.15417969 14.61617187 23.58570313 15 23 C15.33 23 15.66 23 16 23 C15.96634915 30.26858432 14.15945119 34.84054881 9 40 C-0.13993955 47.8104938 -12.59307293 49.919975 -24.26953125 49.37109375 C-35.20147631 48.28362278 -41.43631907 42.56368093 -49 35 C-49 27.1350935 -44.36525125 22.47649923 -39.109375 17.046875 C-29.18807897 7.77086651 -17.85955301 5.22567745 -4.7578125 3.66015625 C-1.67774827 3.25334902 -1.67774827 3.25334902 0 0 Z " fill="#070504" transform="translate(808,177)"/>
<path d="M0 0 C6.88940671 0.43632909 13.35751464 1.08389845 20 3 C16.2670936 15.1544875 9.47156834 24.93303881 -1.70703125 31.1875 C-6.23727431 33.3700376 -10.27950774 33.61579275 -15.25 33.5 C-16.08192871 33.48864014 -16.91385742 33.47728027 -17.77099609 33.46557617 C-28.39469582 33.13287741 -37.02743581 29.52854965 -46 24 C-45.70670963 19.79617132 -44.97743879 17.23023815 -41.79296875 14.36328125 C-30.8556871 6.04713463 -30.8556871 6.04713463 -25 5 C-25.0928125 6.5778125 -25.0928125 6.5778125 -25.1875 8.1875 C-24.9909572 12.18387024 -24.39429484 13.86899906 -22 17 C-17.58764399 19.20617801 -11.80251802 18.43181815 -7 18 C-3.17858439 16.57840524 -1.26514571 14.39771856 1 11 C1.27785432 9.04620501 1.27785432 9.04620501 1.1875 7 C1.17783203 5.9790625 1.17783203 5.9790625 1.16796875 4.9375 C1.05697746 2.78241791 1.05697746 2.78241791 0 0 Z " fill="#FAFAFA" transform="translate(807,188)"/>
<path d="M0 0 C-0.33 0.99 -0.66 1.98 -1 3 C-1.23461661 7.3013046 -1.31839078 10.32796815 1 14 C5.52413114 17.51515225 10.32210748 18.54326963 15.953125 18.26171875 C18.60340824 17.92284666 20.67975854 17.3358966 23 16 C25.13586678 12.79619983 25.23132175 11.98060033 25.125 8.3125 C25.10695313 7.50425781 25.08890625 6.69601563 25.0703125 5.86328125 C25.04710937 5.24839844 25.02390625 4.63351563 25 4 C39.93281125 10.79442912 39.93281125 10.79442912 45 17 C46 20.4375 46 20.4375 46 23 C41.10631529 26.80123029 36.830372 29.14937429 30.875 30.8125 C29.76402954 31.12658813 29.76402954 31.12658813 28.63061523 31.44702148 C18.29679247 34.18097244 8.47136344 34.50736228 -1 29 C-8.361489 23.79823228 -16.72886309 15.00884307 -19 6 C-18.3515625 3.84375 -18.3515625 3.84375 -17 2 C-11.721967 -0.3214585 -5.65973011 -0.20580837 0 0 Z " fill="#FBFBFB" transform="translate(663,185)"/>
<path d="M0 0 C-11.26703357 14.99855916 -24.59918762 31.92048718 -44 36 C-62.77662342 36.98525168 -79.50899388 34.17089053 -93.9921875 21.3515625 C-108 6.49221125 -108 6.49221125 -108 0 C-106.86739746 0.21934204 -106.86739746 0.21934204 -105.71191406 0.44311523 C-102.22582349 1.11439803 -98.73795783 1.77599076 -95.25 2.4375 C-94.06277344 2.66759766 -92.87554688 2.89769531 -91.65234375 3.13476562 C-64.93676336 8.17130947 -39.66914112 6.14454885 -13.39282227 -0.14306641 C-12.23451904 -0.41038574 -11.07621582 -0.67770508 -9.8828125 -0.953125 C-8.84527832 -1.20223633 -7.80774414 -1.45134766 -6.73876953 -1.70800781 C-3.72605856 -2.02920609 -2.50047875 -1.63208036 0 0 Z M-8 2 C-8.99257813 2.32613281 -9.98515625 2.65226562 -11.0078125 2.98828125 C-40.30817858 12.48471321 -68.5611072 14.87028298 -98 5 C-98.99 4.67 -99.98 4.34 -101 4 C-96.11226956 15.85830055 -81.01902247 25.1814508 -69.796875 30 C-65.26467385 31.62045181 -60.77376486 32.46633257 -56 33 C-54.96939453 33.12568359 -54.96939453 33.12568359 -53.91796875 33.25390625 C-37.83577942 34.26927869 -23.48858425 20.41673108 -12.30859375 10.6484375 C-10.19540248 8.77665932 -8.09184344 6.89557171 -6 5 C-6.99 3.515 -6.99 3.515 -8 2 Z " fill="#0E0908" transform="translate(790,276)"/>
<path d="M0 0 C3.73998698 3.98712478 4.67379068 6.97573538 5.37890625 12.35546875 C5.52621437 13.40798576 5.52621437 13.40798576 5.67649841 14.48176575 C5.98709557 16.71524885 6.27623643 18.95077895 6.5625 21.1875 C6.94937031 24.11995769 7.34668517 27.05076869 7.75390625 29.98046875 C7.8506514 30.68449326 7.94739655 31.38851776 8.04707336 32.11387634 C8.74122836 36.90019358 9.81362492 41.3659451 11.45996094 45.90917969 C12.28960301 49.12122974 11.85333776 52.04785822 11.32421875 55.28515625 C10.41661477 62.88497267 11.31221995 69.53568936 13.265625 76.8984375 C13.5002948 77.81404449 13.7349646 78.72965149 13.97674561 79.67300415 C14.47268759 81.59876252 14.97384908 83.52318356 15.47998047 85.44628906 C16.24525233 88.35694259 16.9930866 91.27164925 17.73828125 94.1875 C20.96423369 106.77264498 20.96423369 106.77264498 25.42480469 118.96337891 C26.09925535 121.35143807 25.80390759 122.68335602 25 125 C22 124 22 124 20.94433594 122.26928711 C20.46915527 121.15952515 20.46915527 121.15952515 19.984375 120.02734375 C19.6239209 119.21402588 19.2634668 118.40070801 18.89208984 117.56274414 C18.5152002 116.69641357 18.13831055 115.83008301 17.75 114.9375 C14.98572591 108.82608231 12.43712807 103.68916941 7.70703125 98.859375 C2.21697914 92.879364 -1.42178668 86.43966414 -1.6875 78.25 C-1.3744578 72.81089181 -0.25012024 68.41320675 3 64 C3.54011719 63.60039062 4.08023437 63.20078125 4.63671875 62.7890625 C6.92529142 59.78572071 6.34996366 56.58003364 6 53 C5.40990533 48.76584576 4.70832821 44.55509169 3.97637939 40.34332275 C2.21089373 30.13957001 0.59724102 19.93972652 -0.375 9.625 C-0.50140869 8.31656128 -0.50140869 8.31656128 -0.63037109 6.98168945 C-0.80226815 4.99139922 -0.90909277 2.99563015 -1 1 C-0.67 0.67 -0.34 0.34 0 0 Z " fill="#070403" transform="translate(480,279)"/>
<path d="M0 0 C6.28790033 7.25526961 11.43281848 15.20322826 12 25 C11.45031303 27.95656875 10.96248443 30.30701121 8.4375 32.125 C4.93015719 33.38404614 1.63962615 33.71634789 -2 33 C-5.31177479 30.40817625 -7.43529918 27.88073376 -9 24 C-9.30078125 21.16015625 -9.30078125 21.16015625 -9.3125 18.0625 C-9.32925781 17.04285156 -9.34601562 16.02320313 -9.36328125 14.97265625 C-8.94874061 11.58055484 -8.05678203 9.70988343 -6 7 C-3.3125 6.1875 -3.3125 6.1875 -1 6 C-0.67 4.02 -0.34 2.04 0 0 Z " fill="#F3C7A3" transform="translate(617,217)"/>
<path d="M0 0 C0.66 0 1.32 0 2 0 C3.88843441 12.51087796 2.42330733 23.69594551 0 36 C-3.58677852 37.29522558 -5.53550702 36.70762204 -9 35.25 C-9.845625 34.90453125 -10.69125 34.5590625 -11.5625 34.203125 C-13.95884794 33.02031223 -15.92338891 31.6728256 -18 30 C-17.44112507 26.17689238 -16.4139138 23.71919599 -14.19921875 20.56640625 C-13.63396484 19.75236328 -13.06871094 18.93832031 -12.48632812 18.09960938 C-11.89271484 17.26236328 -11.29910156 16.42511719 -10.6875 15.5625 C-9.52454463 13.89727155 -8.36177985 12.23190998 -7.19921875 10.56640625 C-6.64669434 9.78410645 -6.09416992 9.00180664 -5.52490234 8.19580078 C-4.20214133 6.29107574 -2.94715737 4.36113359 -1.70703125 2.40234375 C-1.14371094 1.60957031 -0.58039062 0.81679688 0 0 Z " fill="#C9DA7E" transform="translate(601,568)"/>
<path d="M0 0 C9.68731905 9.13375796 9.68731905 9.13375796 10.375 15.4375 C7.72607673 22.30061937 1.73880255 26.43889386 -4.8125 29.4375 C-16.16981562 34.05076299 -27.49791453 32.20650081 -38.734375 27.96875 C-45.8577177 24.77403873 -50.68578456 20.22595863 -54.4375 13.375 C-55.11300217 10.52287971 -55.13581885 7.92010529 -55 5 C-52.77605599 7.11274681 -51.01059267 9.30513909 -49.25 11.8125 C-43.84420784 19.03347237 -37.87308831 23.76612826 -29 26 C-16.77156964 27.74226638 -2.96694799 24.29973655 7 17 C6.92456644 13.83179035 6.65278935 11.69871423 4.4453125 9.3359375 C2.66610309 7.83726733 0.84575866 6.41522373 -1 5 C-1.66 4.34 -2.32 3.68 -3 3 C-2.01 3 -1.02 3 0 3 C0 2.01 0 1.02 0 0 Z " fill="#100B09" transform="translate(701,191)"/>
<path d="M0 0 C0.33 0 0.66 0 1 0 C0.96634915 7.26858432 -0.84054881 11.84054881 -6 17 C-15.13993955 24.8104938 -27.59307293 26.919975 -39.26953125 26.37109375 C-50.20147631 25.28362278 -56.43631907 19.56368093 -64 12 C-63.71269945 9.66055264 -63.38063221 7.3260857 -63 5 C-62.01 5 -61.02 5 -60 5 C-60.66 7.31 -61.32 9.62 -62 12 C-61.30003906 12.27714844 -60.60007812 12.55429688 -59.87890625 12.83984375 C-55.84328756 14.46613785 -51.8441557 16.17719991 -47.83984375 17.87890625 C-42.40321611 20.02514027 -37.54237546 20.24556192 -31.75 20.3125 C-30.92886719 20.34150391 -30.10773437 20.37050781 -29.26171875 20.40039062 C-20.35277563 20.49216262 -14.37687052 16.89703736 -7.89453125 11.015625 C-5.21828511 8.16831983 -3.16590383 5.04734713 -1.12890625 1.72265625 C-0.75636719 1.15417969 -0.38382813 0.58570313 0 0 Z " fill="#100D0B" transform="translate(823,200)"/>
<path d="M0 0 C4.70228414 4.30208975 6.36258427 9.00945466 8 15 C5.14370404 13.69886735 3.07789787 12.28411995 0.8125 10.125 C-6.85162944 3.55574619 -14.2613335 2.18685151 -24.1953125 2.6171875 C-29.21668617 3.12241812 -32.73421929 4.38829752 -37 7 C-37.91136719 7.52851563 -38.82273437 8.05703125 -39.76171875 8.6015625 C-42.19688018 10.03480953 -44.60541094 11.50025737 -47 13 C-45.96866581 7.71441228 -43.57502483 4.90882649 -39.51953125 1.61328125 C-28.19466638 -5.63814385 -11.68791099 -7.13273655 0 0 Z " fill="#0E0705" transform="translate(817,147)"/>
<path d="M0 0 C1.48828125 1.11328125 1.48828125 1.11328125 3 3 C3.29296875 5.91796875 3.29296875 5.91796875 3.1875 9.1875 C3.16042969 10.27417969 3.13335938 11.36085937 3.10546875 12.48046875 C3.07066406 13.31191406 3.03585937 14.14335937 3 15 C1.730447 15.64834654 0.45930294 16.29357815 -0.8125 16.9375 C-1.52019531 17.29714844 -2.22789062 17.65679687 -2.95703125 18.02734375 C-5 19 -5 19 -8 20 C-8 20.99 -8 21.98 -8 23 C-9.65 23 -11.3 23 -13 23 C-13.08160748 21.10489301 -13.13946459 19.20875496 -13.1875 17.3125 C-13.22230469 16.25675781 -13.25710938 15.20101562 -13.29296875 14.11328125 C-12.95990665 10.57394133 -12.16384883 8.79765352 -10 6 C-7.69747517 4.93097061 -5.3627974 3.92824183 -3 3 C-1.11970761 1.46048953 -1.11970761 1.46048953 0 0 Z " fill="#F5C9A5" transform="translate(859,227)"/>
<path d="M0 0 C-3.91433164 5.07622259 -7.85915736 10.10627688 -12 15 C-12.99 14.67 -13.98 14.34 -15 14 C-13.4169423 9.7257442 -10.49431596 7.73468206 -7 5 C-7.33 4.34 -7.66 3.68 -8 3 C-9.01578125 3.33773438 -10.0315625 3.67546875 -11.078125 4.0234375 C-19.33220191 6.71546526 -27.35412993 8.90289149 -36 10 C-36 9.01 -36 8.02 -36 7 C-36.99 6.34 -37.98 5.68 -39 5 C-38.08186523 4.823479 -37.16373047 4.64695801 -36.21777344 4.46508789 C-32.8033774 3.80809103 -29.38917483 3.15010609 -25.97509766 2.49145508 C-24.49893679 2.20688029 -23.02270045 1.92269669 -21.54638672 1.63891602 C-19.42134845 1.23036489 -17.2965878 0.82039621 -15.171875 0.41015625 C-13.2552002 0.04096069 -13.2552002 0.04096069 -11.29980469 -0.33569336 C-9.41801075 -0.71453039 -7.54071488 -1.1287184 -5.69238281 -1.64672852 C-3.28930043 -2.1483529 -2.03935064 -1.23817717 0 0 Z " fill="#130E0B" transform="translate(790,276)"/>
<path d="M0 0 C3.90296884 0.69386113 5.20840109 2.71119602 7.67578125 5.67578125 C8.8125 7.5 8.8125 7.5 8.8125 10.5 C5.7293649 9.30100302 2.74970508 8.02299523 -0.1875 6.5 C-1.56976016 9.26452033 -1.28275387 11.5461363 -1.25 14.625 C-1.23646484 16.26855469 -1.23646484 16.26855469 -1.22265625 17.9453125 C-1.21105469 18.78835937 -1.19945312 19.63140625 -1.1875 20.5 C2.1125 21.49 5.4125 22.48 8.8125 23.5 C8.8125 24.82 8.8125 26.14 8.8125 27.5 C1.59414826 28.11172472 1.59414826 28.11172472 -2.0625 25.25 C-5.43119064 20.89051799 -6.47897755 18.11943468 -6.5 12.5625 C-6.51675781 11.54285156 -6.53351562 10.52320313 -6.55078125 9.47265625 C-6.03451294 5.24813811 -4.40956498 1.00790057 0 0 Z " fill="#110905" transform="translate(614.1875,222.5)"/>
<path d="M0 0 C3.24925566 3.71343504 4.15086703 8.15549212 4 13 C3.03730755 17.99119009 2.10298937 22.69932786 -2 26 C-5.47325181 27.1577506 -8.36067448 27.06866652 -12 27 C-12 25.68 -12 24.36 -12 23 C-8.7 21.68 -5.4 20.36 -2 19 C-1.94610913 17.04196493 -1.90725783 15.08351091 -1.875 13.125 C-1.85179687 12.03445312 -1.82859375 10.94390625 -1.8046875 9.8203125 C-1.69939466 6.8628949 -1.69939466 6.8628949 -4 5 C-4.94875 5.825 -5.8975 6.65 -6.875 7.5 C-9.75 10 -9.75 10 -12 10 C-11.42562214 6.12294944 -9.57271945 3.88456423 -7 1 C-4.39722303 -0.30138849 -2.88185107 -0.4217343 0 0 Z " fill="#100805" transform="translate(863,223)"/>
<path d="M0 0 C6.33131068 5.38834951 6.33131068 5.38834951 9.15234375 7.96875 C13.63994732 12.06989914 18.04730673 15.48146757 23.34765625 18.48046875 C25 20 25 20 25.24609375 22.67578125 C25.16488281 23.44277344 25.08367188 24.20976562 25 25 C13.92026957 19.43337215 5.07338252 11.33978989 -4 3 C-2.68 2.01 -1.36 1.02 0 0 Z " fill="#0B0903" transform="translate(698,465)"/>
<path d="M0 0 C3.03855354 1.29300151 4.4781857 2.26471622 6.375 4.9375 C7.11467689 7.37843373 6.69339458 8.59321738 6 11 C5.34644531 10.3503125 5.34644531 10.3503125 4.6796875 9.6875 C1.77288808 6.96945379 -0.17830537 5.18077282 -4.125 4.3125 C-8.02128413 5.24422012 -9.35221285 7.01669173 -12 10 C-13.34880809 12.22540291 -14.62078279 14.49916659 -15.8125 16.8125 C-16.41707031 17.97394531 -17.02164063 19.13539063 -17.64453125 20.33203125 C-18.09183594 21.21246094 -18.53914062 22.09289062 -19 23 C-19.33 23 -19.66 23 -20 23 C-20.57364991 17.26350087 -18.6648852 13.85493632 -16 9 C-15.505 7.906875 -15.01 6.81375 -14.5 5.6875 C-11.03667296 -0.51762762 -6.6677923 -0.88110113 0 0 Z " fill="#170D08" transform="translate(868,209)"/>
<path d="M0 0 C5.90106588 2.81641781 7.67232193 9.25509244 10 15 C10.33 15 10.66 15 11 15 C11.33 16.98 11.66 18.96 12 21 C11.34 21.33 10.68 21.66 10 22 C9.61328125 21.26394531 9.2265625 20.52789062 8.828125 19.76953125 C4.78340684 11.16508734 4.78340684 11.16508734 -2 5 C-5.22566084 4.47489242 -7.21205435 4.45838606 -9.94921875 6.33984375 C-11.69212427 7.84234851 -13.3682712 9.3779264 -15 11 C-15.375 8.3125 -15.375 8.3125 -15 5 C-10.65552879 -0.1242481 -6.59194864 -1.24745596 0 0 Z " fill="#100805" transform="translate(615,209)"/>
<path d="M0 0 C6.48466761 3.81796553 6.48466761 3.81796553 7.90625 8.01953125 C7.53125 10.26953125 7.53125 10.26953125 6.90625 12.01953125 C6.24238281 11.43042969 5.57851563 10.84132812 4.89453125 10.234375 C4.01152344 9.48285156 3.12851562 8.73132813 2.21875 7.95703125 C1.34863281 7.20292969 0.47851562 6.44882813 -0.41796875 5.671875 C-2.93436237 3.78164392 -2.93436237 3.78164392 -5.6640625 4.08203125 C-8.29580508 5.09749463 -10.10212914 6.29911418 -12.28125 8.08203125 C-15.89610294 11.01953125 -15.89610294 11.01953125 -18.09375 11.01953125 C-17.67818583 6.17128257 -15.71926755 4.13916263 -12.09375 1.01953125 C-8.19624607 -1.62071335 -4.32627926 -2.02592555 0 0 Z " fill="#110905" transform="translate(742.09375,238.98046875)"/>
<path d="M0 0 C0 1.65 0 3.3 0 5 C-9.5299065 7.58640469 -16.33212802 6.88956881 -25 2 C-25 1.67 -25 1.34 -25 1 C-23.85724609 1.01740234 -23.85724609 1.01740234 -22.69140625 1.03515625 C-17.03861203 1.08455645 -11.54197243 0.98299624 -5.9375 0.21875 C-4 0 -4 0 0 0 Z " fill="#170D08" transform="translate(750,330)"/>
<path d="M0 0 C0.33 0 0.66 0 1 0 C1.144375 1.051875 1.28875 2.10375 1.4375 3.1875 C1.87693058 6.83949755 1.87693058 6.83949755 2.8125 9.625 C3 12 3 12 1.25 14.75 C-1.78004976 17.78004976 -3.41638614 17.99010824 -7.6875 18.0625 C-8.780625 18.041875 -9.87375 18.02125 -11 18 C-11 16.68 -11 15.36 -11 14 C-7.7 12.68 -4.4 11.36 -1 10 C-0.67 6.7 -0.34 3.4 0 0 Z " fill="#1D110C" transform="translate(862,232)"/>
<path d="M0 0 C0.66 0.33 1.32 0.66 2 1 C2.25516845 8.22977273 1.89096073 15.31566621 1.125 22.5 C1.04652832 23.27714355 0.96805664 24.05428711 0.88720703 24.85498047 C0.46248362 28.59270957 0.0350466 31.78496839 -2 35 C-2.33 35 -2.66 35 -3 35 C-3.34296432 27.79774927 -2.4938616 21.27143602 -1.06713867 14.24243164 C-0.1178935 9.40483461 0.13300246 4.93217459 0 0 Z " fill="#150C09" transform="translate(531,242)"/>
<path d="M0 0 C0.66 0 1.32 0 2 0 C3.20869931 8.00763294 3.80594522 16.0452413 2 24 C1.67 23.34 1.34 22.68 1 22 C0.34 21.67 -0.32 21.34 -1 21 C-0.83628906 20.44828125 -0.67257812 19.8965625 -0.50390625 19.328125 C0.05760414 16.73385993 0.09739008 14.40164589 0.0625 11.75 C0.05347656 10.85796875 0.04445313 9.9659375 0.03515625 9.046875 C0.02355469 8.37140625 0.01195312 7.6959375 0 7 C-1.65 8.32 -3.3 9.64 -5 11 C-5 7.63596525 -4.38119947 6.59907083 -2.625 3.8125 C-2.18414063 3.09707031 -1.74328125 2.38164063 -1.2890625 1.64453125 C-0.65097656 0.83048828 -0.65097656 0.83048828 0 0 Z " fill="#C0CE87" transform="translate(601,568)"/>
<path d="M0 0 C0 0.33 0 0.66 0 1 C-0.90242432 1.02505615 -1.80484863 1.0501123 -2.73461914 1.07592773 C-6.10988834 1.17154627 -9.48501394 1.27074827 -12.86010742 1.37231445 C-14.3157953 1.41539933 -15.77152517 1.45709075 -17.22729492 1.49731445 C-19.33004361 1.55566411 -21.43258606 1.61916516 -23.53515625 1.68359375 C-24.797229 1.72025146 -26.05930176 1.75690918 -27.35961914 1.79467773 C-30.95606413 1.99752196 -34.44104739 2.45666511 -38 3 C-40.6793948 3.10751986 -43.31632049 3.0470821 -46 3 C-41.46706955 0.4727625 -37.09889884 0.26072593 -32 -0.1875 C-31.03626465 -0.27499512 -30.0725293 -0.36249023 -29.07958984 -0.45263672 C-19.32273625 -1.23082974 -9.74055937 -0.78178025 0 0 Z " fill="#573022" transform="translate(774,24)"/>
<path d="M0 0 C1.9375 1 1.9375 1 4 3 C4.66549451 5.69924572 4.81680763 8.20631637 5 11 C3.68 11 2.36 11 1 11 C0.67 12.65 0.34 14.3 0 16 C-0.66 15.67 -1.32 15.34 -2 15 C-2.22577402 9.5814234 -1.46670113 5.22512279 0 0 Z " fill="#0F0502" transform="translate(543,319)"/>
<path d="M0 0 C2.35800504 2.28431738 3.88720897 4.0081024 4.265625 7.3359375 C4.251535 9.56920205 4.17460201 11.77382441 4 14 C1 13 1 13 -1 11 C-1.99 11 -2.98 11 -4 11 C-3.5247412 9.35303396 -3.04468109 7.70745272 -2.5625 6.0625 C-2.29566406 5.14597656 -2.02882813 4.22945313 -1.75390625 3.28515625 C-1 1 -1 1 0 0 Z " fill="#E7C2A2" transform="translate(567,260)"/>
<path d="M0 0 C3.86695903 0.53707764 5.97060499 1.58554629 9 4 C-1.16402463 4.65049758 -11.31389087 5.11643619 -21.5 5.1875 C-22.40129639 5.20039063 -23.30259277 5.21328125 -24.23120117 5.2265625 C-25.07271729 5.22785156 -25.9142334 5.22914063 -26.78125 5.23046875 C-27.52439453 5.23457764 -28.26753906 5.23868652 -29.03320312 5.24291992 C-31 5 -31 5 -34 3 C-33.36610352 3.00523682 -32.73220703 3.01047363 -32.07910156 3.01586914 C-15.50967864 3.20993998 -15.50967864 3.20993998 1 2 C0.505 1.01 0.505 1.01 0 0 Z " fill="#5D3426" transform="translate(852,356)"/>
<path d="M0 0 C0.66 0 1.32 0 2 0 C1.67 1.65 1.34 3.3 1 5 C1.99 5.33 2.98 5.66 4 6 C0.97294744 14.42484982 -2.48829521 22.26343406 -7 30 C-7.33 29.34 -7.66 28.68 -8 28 C-7.07421875 25.609375 -7.07421875 25.609375 -5.6875 22.75 C-2.05958161 14.99168145 -0.57669337 8.52899144 0 0 Z " fill="#C4AA96" transform="translate(588,558)"/>
<path d="M0 0 C0.33 0 0.66 0 1 0 C1.33868777 2.20751848 1.67071689 4.41605911 2 6.625 C2.185625 7.85476562 2.37125 9.08453125 2.5625 10.3515625 C2.95402516 13.6166027 3.08080924 16.71712451 3 20 C0.76595074 17.76595074 0.07899714 16.0503577 -1.0625 13.125 C-1.40410156 12.26132813 -1.74570312 11.39765625 -2.09765625 10.5078125 C-2.87535983 8.34640255 -3.49511162 6.23816498 -4 4 C-3.01 4.33 -2.02 4.66 -1 5 C-0.67 3.35 -0.34 1.7 0 0 Z " fill="#DDBB9D" transform="translate(622,205)"/>
<path d="M0 0 C1.32 0.66 2.64 1.32 4 2 C4 2.99 4 3.98 4 5 C1.8828125 6.5703125 1.8828125 6.5703125 -0.875 8.125 C-2.23238281 8.90230469 -2.23238281 8.90230469 -3.6171875 9.6953125 C-5.06497926 10.48803783 -6.52364925 11.26182462 -8 12 C-6.64994369 6.32976351 -4.1842771 3.82042691 0 0 Z " fill="#1A0D09" transform="translate(778,148)"/>
<path d="M0 0 C2.475 0.495 2.475 0.495 5 1 C6.8125 4.5625 6.8125 4.5625 8 8 C7.21625 8.103125 6.4325 8.20625 5.625 8.3125 C2.66954819 8.77595022 2.66954819 8.77595022 1 12 C0.67 8.04 0.34 4.08 0 0 Z " fill="#EDC5A5" transform="translate(532,243)"/>
<path d="M0 0 C4.43601966 3.51822249 5.52033129 7.75390186 7 13 C3.07699728 11.17495091 0.26212728 8.81729174 -3 6 C-2.34 5.01 -1.68 4.02 -1 3 C-0.67 2.01 -0.34 1.02 0 0 Z " fill="#190F09" transform="translate(818,149)"/>
<path d="M0 0 C-0.99 0.33 -1.98 0.66 -3 1 C-3.33 2.32 -3.66 3.64 -4 5 C-7.3 5 -10.6 5 -14 5 C-13.67 3.68 -13.34 2.36 -13 1 C-11.58622218 0.63447197 -10.16879424 0.28304505 -8.75 -0.0625 C-7.96109375 -0.25972656 -7.1721875 -0.45695312 -6.359375 -0.66015625 C-3.89605178 -1.01497267 -2.34395868 -0.76877544 0 0 Z " fill="#160C08" transform="translate(854,265)"/>
<path d="M0 0 C1.98 1.65 3.96 3.3 6 5 C5.34 6.65 4.68 8.3 4 10 C2.85073734 9.04578192 1.70569459 8.08647955 0.5625 7.125 C-0.07558594 6.59132813 -0.71367188 6.05765625 -1.37109375 5.5078125 C-3 4 -3 4 -4 2 C-2.68 1.34 -1.36 0.68 0 0 Z " fill="#171509" transform="translate(698,465)"/>
<path d="M0 0 C0.66 0.33 1.32 0.66 2 1 C1.38511719 1.71285156 0.77023437 2.42570312 0.13671875 3.16015625 C-5.09791083 9.09787993 -5.09791083 9.09787993 -8.8125 16 C-10.07627189 19.19268688 -11.08071955 20.28869767 -14 22 C-12.66667669 17.39522363 -10.81071241 13.83769266 -8.125 9.875 C-7.44695313 8.86179687 -6.76890625 7.84859375 -6.0703125 6.8046875 C-4.205049 4.27778336 -2.28688828 2.14331682 0 0 Z " fill="#5B3124" transform="translate(621,57)"/>
<path d="M0 0 C0.33 0 0.66 0 1 0 C1 6.27 1 12.54 1 19 C1.66 19 2.32 19 3 19 C2.34 21.31 1.68 23.62 1 26 C0.67 26 0.34 26 0 26 C-1.05162306 17.34288873 -1.94047094 8.57811361 0 0 Z " fill="#E1BDA1" transform="translate(532,262)"/>
<path d="M0 0 C0.66 0.33 1.32 0.66 2 1 C-7.52887722 10.09672859 -7.52887722 10.09672859 -14 12 C-16.19921875 11.55859375 -16.19921875 11.55859375 -18 11 C-17.28714844 10.62488281 -16.57429687 10.24976563 -15.83984375 9.86328125 C-10.26424715 6.88412667 -5.04428098 3.81123452 0 0 Z " fill="#C1CF86" transform="translate(759,485)"/>
<path d="M0 0 C3.51098025 4.01254885 5.76537994 8.20983041 8 13 C4.58879537 12.37911693 3.8770177 11.88248358 1.1875 9.3125 C-1 6 -1 6 -0.8125 2.625 C-0.544375 1.75875 -0.27625 0.8925 0 0 Z " fill="#E6BFA3" transform="translate(617,217)"/>
<path d="M0 0 C3.9252025 3.70090521 6.94580156 7.54959656 10 12 C9.01 12.495 9.01 12.495 8 13 C8 12.34 8 11.68 8 11 C7.484375 10.773125 6.96875 10.54625 6.4375 10.3125 C3.07596873 8.5024447 0.07088856 6.26003596 -3 4 C-2.01 3.67 -1.02 3.34 0 3 C0 2.01 0 1.02 0 0 Z " fill="#1E1612" transform="translate(701,191)"/>
<path d="M0 0 C2.125 -0.4375 2.125 -0.4375 5 0 C7.276147 2.12689146 9.1458722 4.5023433 11 7 C9.906875 6.835 8.81375 6.67 7.6875 6.5 C4.12474127 5.93281816 4.12474127 5.93281816 1 6 C0.67 4.02 0.34 2.04 0 0 Z " fill="#EBC2A1" transform="translate(572,502)"/>
<path d="M0 0 C0.33 0 0.66 0 1 0 C1.53010201 2.60259124 2.04937795 5.206557 2.5625 7.8125 C2.78969727 8.91948242 2.78969727 8.91948242 3.02148438 10.04882812 C4.11328125 15.66015625 4.11328125 15.66015625 3 19 C0.00643134 15.82500293 -0.9849016 14.1570863 -1.04296875 9.70703125 C-0.77700397 6.45516853 -0.44123244 3.23250719 0 0 Z " fill="#CAB19B" transform="translate(486,351)"/>
<path d="M0 0 C0.33 0 0.66 0 1 0 C1 1.98 1 3.96 1 6 C1.99 6.33 2.98 6.66 4 7 C2.35 10.96 0.7 14.92 -1 19 C-2.06768288 14.72926847 -1.70948995 11.50164825 -1.0625 7.25 C-0.96259766 6.55261719 -0.86269531 5.85523438 -0.75976562 5.13671875 C-0.51334127 3.42348274 -0.25759045 1.71159275 0 0 Z " fill="#D9B99E" transform="translate(851,206)"/>
<path d="M0 0 C2.44989101 3.74235319 2.23086143 7.44225419 2.125 11.75 C2.11597656 12.44738281 2.10695313 13.14476562 2.09765625 13.86328125 C2.07419888 15.57566958 2.03833104 17.28788004 2 19 C0.29159719 17.36587557 -0.93453047 16.13093906 -2 14 C-1.75146137 11.61745728 -1.42836571 9.24236637 -1.0625 6.875 C-0.86785156 5.59367188 -0.67320312 4.31234375 -0.47265625 2.9921875 C-0.31667969 2.00476563 -0.16070313 1.01734375 0 0 Z " fill="#1C0F0A" transform="translate(586,550)"/>
<path d="M0 0 C-6.45791576 3.45423401 -12.76340555 3.68441919 -20 4 C-20.66 5.98 -21.32 7.96 -22 10 C-23 8 -23 8 -22.0625 4.875 C-21.711875 3.92625 -21.36125 2.9775 -21 2 C-20.03578125 1.86722656 -19.0715625 1.73445313 -18.078125 1.59765625 C-16.18320312 1.33275391 -16.18320312 1.33275391 -14.25 1.0625 C-12.99703125 0.88847656 -11.7440625 0.71445312 -10.453125 0.53515625 C-7.17391291 0.09575722 -7.17391291 0.09575722 -4.734375 -0.62890625 C-3 -1 -3 -1 0 0 Z " fill="#5A3324" transform="translate(861,268)"/>
<path d="M0 0 C2 2 2 2 2.23046875 4.42578125 C2.21628906 5.37839844 2.20210937 6.33101562 2.1875 7.3125 C2.18105469 8.25738281 2.17460938 9.20226562 2.16796875 10.17578125 C2.00747977 12.87423557 1.59933915 15.36770247 1 18 C0.67 17.34 0.34 16.68 0 16 C-0.66 15.67 -1.32 15.34 -2 15 C-1.34 10.05 -0.68 5.1 0 0 Z " fill="#B8C67C" transform="translate(602,574)"/>
<path d="M0 0 C2.01136276 2.55991624 3.62845496 5.04590299 5 8 C5.33 8 5.66 8 6 8 C6.33 9.98 6.66 11.96 7 14 C6.01 14.495 6.01 14.495 5 15 C3.96427104 13.25877451 2.9468748 11.50663405 1.9375 9.75 C1.08478516 8.28820312 1.08478516 8.28820312 0.21484375 6.796875 C-1 4 -1 4 -0.68359375 1.640625 C-0.45800781 1.09921875 -0.23242188 0.5578125 0 0 Z " fill="#20120D" transform="translate(620,216)"/>
<path d="M0 0 C0.66 0 1.32 0 2 0 C1.71653722 1.91789713 1.4228972 3.83429183 1.125 5.75 C0.88136719 7.35101562 0.88136719 7.35101562 0.6328125 8.984375 C0.06776118 11.67708871 -0.63422914 13.63572439 -2 16 C-2.05402274 13.89611431 -2.09280256 11.79183286 -2.125 9.6875 C-2.14820313 8.51574219 -2.17140625 7.34398437 -2.1953125 6.13671875 C-2 3 -2 3 0 0 Z " fill="#B9C58A" transform="translate(613,554)"/>
<path d="M0 0 C0 3 0 3 -2.625 5.91796875 C-3.74249406 7.01550756 -4.86785643 8.10507895 -6 9.1875 C-6.57234375 9.74630859 -7.1446875 10.30511719 -7.734375 10.88085938 C-9.14962788 12.26073093 -10.57397155 13.63126734 -12 15 C-12.33 14.01 -12.66 13.02 -13 12 C-12.31292969 11.38511719 -11.62585938 10.77023437 -10.91796875 10.13671875 C-10.01691406 9.32847656 -9.11585938 8.52023437 -8.1875 7.6875 C-7.29417969 6.88699219 -6.40085937 6.08648437 -5.48046875 5.26171875 C-3.60073214 3.54775419 -1.77407253 1.82122396 0 0 Z " fill="#EAC7AA" transform="translate(779,289)"/>
<path d="M0 0 C3.27642756 0.25866533 4.60820723 0.55416685 6.8125 3.0625 C7.204375 3.701875 7.59625 4.34125 8 5 C6.68 4.67 5.36 4.34 4 4 C3.67 4.99 3.34 5.98 3 7 C2.01 6.67 1.02 6.34 0 6 C-0.38218767 4.34385343 -0.71395102 2.67542976 -1 1 C-0.67 0.67 -0.34 0.34 0 0 Z " fill="#E2BDA2" transform="translate(473,250)"/>
<path d="M0 0 C0.33 0.66 0.66 1.32 1 2 C1.99 2.33 2.98 2.66 4 3 C3.34 3.66 2.68 4.32 2 5 C1.53513282 8.12196336 1.53513282 8.12196336 1.375 11.625 C1.30023437 12.81351562 1.22546875 14.00203125 1.1484375 15.2265625 C1.09945312 16.14179688 1.05046875 17.05703125 1 18 C0.01 18 -0.98 18 -2 18 C-1.34 12.06 -0.68 6.12 0 0 Z " fill="#D5B397" transform="translate(532,302)"/>
<path d="M0 0 C1.32 0.33 2.64 0.66 4 1 C3.59007812 1.54269531 3.18015625 2.08539063 2.7578125 2.64453125 C1.94957031 3.71767578 1.94957031 3.71767578 1.125 4.8125 C0.59132813 5.52019531 0.05765625 6.22789062 -0.4921875 6.95703125 C-1.70814781 8.60456297 -2.86416141 10.29624211 -4 12 C-4 8.13209997 -3.72629646 6.98680587 -2 3.75 C-1.62875 3.04359375 -1.2575 2.3371875 -0.875 1.609375 C-0.58625 1.07828125 -0.2975 0.5471875 0 0 Z " fill="#E0BFA2" transform="translate(852,224)"/>
<path d="M0 0 C-0.33 1.65 -0.66 3.3 -1 5 C-0.01 5 0.98 5 2 5 C1.67 5.99 1.34 6.98 1 8 C-0.32 7.67 -1.64 7.34 -3 7 C-2.67 5.02 -2.34 3.04 -2 1 C-3.98 1.99 -3.98 1.99 -6 3 C-6 2.01 -6 1.02 -6 0 C-3 -1 -3 -1 0 0 Z " fill="#ECC6A5" transform="translate(823,178)"/>
<path d="M0 0 C4 1.33333333 8 2.66666667 12 4 C12.33 3.01 12.66 2.02 13 1 C13.33 2.32 13.66 3.64 14 5 C10.30962722 6.37095624 8.29116165 5.60010967 4.75 4.0625 C3.85796875 3.68222656 2.9659375 3.30195312 2.046875 2.91015625 C1.37140625 2.60980469 0.6959375 2.30945313 0 2 C0 1.34 0 0.68 0 0 Z " fill="#B6C380" transform="translate(587,599)"/>
<path d="M0 0 C1.45742463 -0.08096803 2.91612807 -0.13917774 4.375 -0.1875 C5.18710937 -0.22230469 5.99921875 -0.25710938 6.8359375 -0.29296875 C7.55007813 -0.19628906 8.26421875 -0.09960938 9 0 C9.66 0.99 10.32 1.98 11 3 C6.71 3 2.42 3 -2 3 C-1.34 2.67 -0.68 2.34 0 2 C0 1.34 0 0.68 0 0 Z " fill="#301C13" transform="translate(733,360)"/>
<path d="M0 0 C0.66 0 1.32 0 2 0 C2.33 1.65 2.66 3.3 3 5 C-0.75 8 -0.75 8 -3 8 C-2.45276317 4.62537285 -1.9451 2.91765 0 0 Z " fill="#1B100A" transform="translate(727,242)"/>
<path d="M0 0 C0.66 0.99 1.32 1.98 2 3 C1.57847656 3.43570313 1.15695312 3.87140625 0.72265625 4.3203125 C-2.76365195 8.11013459 -4.73880963 10.64559734 -5 16 C-5.33 16 -5.66 16 -6 16 C-6.57934159 10.59281183 -6.34220083 7.89350344 -3 3.5 C-2.01808825 2.31806919 -1.02387802 1.14576826 0 0 Z " fill="#DFBA9D" transform="translate(634,172)"/>
<path d="M0 0 C0.66 1.32 1.32 2.64 2 4 C1.401875 4.28875 0.80375 4.5775 0.1875 4.875 C-2.19327792 6.04742026 -2.19327792 6.04742026 -5 8 C-4.74438677 5.6568787 -4.40729228 3.32156597 -4 1 C-2 0 -2 0 0 0 Z " fill="#D6B498" transform="translate(506,233)"/>
<path d="M0 0 C-1.578076 0.84324672 -3.1627042 1.67423918 -4.75 2.5 C-6.07257812 3.19609375 -6.07257812 3.19609375 -7.421875 3.90625 C-10 5 -10 5 -14 5 C-14 4.34 -14 3.68 -14 3 C-12.23358317 2.3012307 -10.46167336 1.61633417 -8.6875 0.9375 C-7.20830078 0.36322266 -7.20830078 0.36322266 -5.69921875 -0.22265625 C-3 -1 -3 -1 0 0 Z " fill="#5F3326" transform="translate(694,354)"/>
<path d="M0 0 C0.66 0 1.32 0 2 0 C2.33 0.33 2.66 0.66 3 1 C3.66 0.67 4.32 0.34 5 0 C5 0.66 5 1.32 5 2 C7.97 2 10.94 2 14 2 C14 2.66 14 3.32 14 4 C10.04 3.67 6.08 3.34 2 3 C1.67 3.66 1.34 4.32 1 5 C0.67 3.35 0.34 1.7 0 0 Z " fill="#E1B998" transform="translate(723,328)"/>
<path d="M0 0 C1.9375 1 1.9375 1 4 3 C4.66549451 5.69924572 4.81680763 8.20631637 5 11 C4.34 9.68 3.68 8.36 3 7 C1.68 7.33 0.36 7.66 -1 8 C-0.67 5.36 -0.34 2.72 0 0 Z " fill="#24150D" transform="translate(543,319)"/>
<path d="M0 0 C0.33 0 0.66 0 1 0 C1.3077917 3.13837611 1.27813784 4.59343628 -0.53125 7.23828125 C-1.1809375 7.92277344 -1.830625 8.60726563 -2.5 9.3125 C-3.1496875 10.00988281 -3.799375 10.70726562 -4.46875 11.42578125 C-4.9740625 11.94527344 -5.479375 12.46476562 -6 13 C-6.66 12.67 -7.32 12.34 -8 12 C-7.50628906 11.30132812 -7.01257813 10.60265625 -6.50390625 9.8828125 C-5.86324219 8.97273438 -5.22257813 8.06265625 -4.5625 7.125 C-3.92441406 6.22007812 -3.28632812 5.31515625 -2.62890625 4.3828125 C-1.00481862 2.12261419 -1.00481862 2.12261419 0 0 Z " fill="#582E22" transform="translate(826,303)"/>
<path d="M0 0 C2.475 0.495 2.475 0.495 5 1 C5 1.66 5 2.32 5 3 C3.68 3 2.36 3 1 3 C1 6.63 1 10.26 1 14 C0.67 14 0.34 14 0 14 C0 9.38 0 4.76 0 0 Z " fill="#C9D78D" transform="translate(790,422)"/>
<path d="M0 0 C1 2 1 2 0.4375 3.9375 C-1.56520684 6.81094894 -3.78625892 7.72789415 -7 9 C-7.66 8.67 -8.32 8.34 -9 8 C-6.03 5.36 -3.06 2.72 0 0 Z " fill="#5C2F22" transform="translate(801,333)"/>
<path d="M0 0 C1.32 0 2.64 0 4 0 C3.67 2.31 3.34 4.62 3 7 C2.01 6.67 1.02 6.34 0 6 C0 4.02 0 2.04 0 0 Z " fill="#32241E" transform="translate(502,330)"/>
<path d="M0 0 C-0.33 2.97 -0.66 5.94 -1 9 C-1.66 8.67 -2.32 8.34 -3 8 C-3 6.35 -3 4.7 -3 3 C-3.66 3 -4.32 3 -5 3 C-5 2.34 -5 1.68 -5 1 C-2 0 -2 0 0 0 Z " fill="#DBBDA0" transform="translate(562,416)"/>
<path d="M0 0 C0.66 0.66 1.32 1.32 2 2 C1.34 3.98 0.68 5.96 0 8 C0.66 8.33 1.32 8.66 2 9 C1.01 9 0.02 9 -1 9 C-1.33 8.67 -1.66 8.34 -2 8 C-1.28 1.28 -1.28 1.28 0 0 Z " fill="#1C130F" transform="translate(761,204)"/>
<path d="M0 0 C2.21399303 3.79541663 3.00980198 7.75629421 4 12 C1.4375 9.9375 1.4375 9.9375 -1 7 C-0.8125 3.1875 -0.8125 3.1875 0 0 Z " fill="#2A180F" transform="translate(575,515)"/>
<path d="M0 0 C0.33 0.66 0.66 1.32 1 2 C0.38325228 3.68577711 -0.28272222 5.35448038 -1 7 C-1 7.33 -1 7.66 -1 8 C-2.98 8 -4.96 8 -7 8 C-6.02133662 6.85373678 -5.04205413 5.70800212 -4.0625 4.5625 C-3.51722656 3.92441406 -2.97195313 3.28632813 -2.41015625 2.62890625 C-1.63204305 1.73008851 -0.84063472 0.84063472 0 0 Z " fill="#503024" transform="translate(654,357)"/>
<path d="M0 0 C-5.445 2.475 -5.445 2.475 -11 5 C-11.33 4.34 -11.66 3.68 -12 3 C-11.01 2.67 -10.02 2.34 -9 2 C-8.67 1.34 -8.34 0.68 -8 0 C-4.71272146 -1.24689876 -3.63194861 -0.90798715 0 0 Z " fill="#E6C2A2" transform="translate(785,185)"/>
<path d="M0 0 C0.66 0.66 1.32 1.32 2 2 C1.01 5.3 0.02 8.6 -1 12 C-1.66 11.01 -2.32 10.02 -3 9 C-2.5390625 6.73828125 -2.5390625 6.73828125 -1.625 4.3125 C-1.32851563 3.50425781 -1.03203125 2.69601562 -0.7265625 1.86328125 C-0.48679687 1.24839844 -0.24703125 0.63351562 0 0 Z " fill="#C6D588" transform="translate(823,656)"/>
<path d="M0 0 C0.33 0 0.66 0 1 0 C1 3.3 1 6.6 1 10 C0.01 10.495 0.01 10.495 -1 11 C-1.66 10.34 -2.32 9.68 -3 9 C-2.01 6.03 -1.02 3.06 0 0 Z " fill="#EECCB1" transform="translate(592,553)"/>
<path d="M0 0 C-1.37154504 2.95409701 -2.98863724 5.44008376 -5 8 C-5.33 6.02 -5.66 4.04 -6 2 C-2.25 0 -2.25 0 0 0 Z " fill="#EBC5A7" transform="translate(679,410)"/>
<path d="M0 0 C0.99 0 1.98 0 3 0 C2.6875 2.375 2.6875 2.375 2 5 C1.01 5.66 0.02 6.32 -1 7 C-0.67 4.69 -0.34 2.38 0 0 Z " fill="#D6BBA1" transform="translate(560,403)"/>
<path d="M0 0 C0.99 0.33 1.98 0.66 3 1 C1.68 3.64 0.36 6.28 -1 9 C-1.33 9 -1.66 9 -2 9 C-2.25 3.375 -2.25 3.375 0 0 Z " fill="#33231B" transform="translate(850,223)"/>
<path d="M0 0 C2.64 0.33 5.28 0.66 8 1 C7.01 2.485 7.01 2.485 6 4 C3.03 3.505 3.03 3.505 0 3 C0 2.01 0 1.02 0 0 Z " fill="#0D0300" transform="translate(859,209)"/>
<path d="M0 0 C3.465 1.98 3.465 1.98 7 4 C7 4.33 7 4.66 7 5 C4.69 4.67 2.38 4.34 0 4 C0 2.68 0 1.36 0 0 Z " fill="#BED186" transform="translate(710,482)"/>
<path d="M0 0 C0.66 0 1.32 0 2 0 C1.25 4.75 1.25 4.75 -1 7 C-1.99 6.67 -2.98 6.34 -4 6 C-2.7260411 3.96166576 -1.38938077 1.96147874 0 0 Z " fill="#C3D285" transform="translate(781,459)"/>
<path d="M0 0 C0 3.57575896 -1.08840607 5.05295935 -3 8 C-4.32 7.67 -5.64 7.34 -7 7 C-4.69 4.69 -2.38 2.38 0 0 Z " fill="#5A2F22" transform="translate(602,279)"/>
<path d="M0 0 C0 0.33 0 0.66 0 1 C-1.670625 1.12375 -1.670625 1.12375 -3.375 1.25 C-7.05753944 1.57873787 -7.05753944 1.57873787 -8.4375 4.0625 C-8.623125 4.701875 -8.80875 5.34125 -9 6 C-9.66 6 -10.32 6 -11 6 C-8.60159776 0.46522561 -5.82500047 -0.25888891 0 0 Z " fill="#DCBBA0" transform="translate(867,213)"/>
<path d="M0 0 C1.5625 1.5 1.5625 1.5 3 4 C2.96823234 6.77437543 2.50364148 9.25286467 2 12 C1.67 12 1.34 12 1 12 C0.01751476 7.9472484 -0.08159574 4.16138263 0 0 Z " fill="#C8D98B" transform="translate(633,499)"/>
<path d="M0 0 C0.99 0.33 1.98 0.66 3 1 C2.67 4.63 2.34 8.26 2 12 C1.67 12 1.34 12 1 12 C0.67 8.04 0.34 4.08 0 0 Z " fill="#F1CBAD" transform="translate(532,243)"/>
<path d="M0 0 C0 0.33 0 0.66 0 1 C-1.65 1 -3.3 1 -5 1 C-5 1.66 -5 2.32 -5 3 C-7.64 2.67 -10.28 2.34 -13 2 C-13 1.67 -13 1.34 -13 1 C-8.59085217 -0.10228696 -4.51617599 -0.07654536 0 0 Z " fill="#150300" transform="translate(876,197)"/>
<path d="M0 0 C0 0.99 0 1.98 0 3 C0.66 3.33 1.32 3.66 2 4 C0.02 4 -1.96 4 -4 4 C-4 3.01 -4 2.02 -4 1 C-2 0 -2 0 0 0 Z " fill="#170C08" transform="translate(747,358)"/>
<path d="M0 0 C0.33 0.66 0.66 1.32 1 2 C0.01 2.66 -0.98 3.32 -2 4 C-3.19232613 6.05003955 -3.19232613 6.05003955 -4 8 C-4.66 6.68 -5.32 5.36 -6 4 C-4.02 2.68 -2.04 1.36 0 0 Z " fill="#523125" transform="translate(783,347)"/>
<path d="M0 0 C2.875 0.3125 2.875 0.3125 6 1 C6.66 1.99 7.32 2.98 8 4 C5.36 3.67 2.72 3.34 0 3 C0 2.01 0 1.02 0 0 Z " fill="#D3B39A" transform="translate(735,242)"/>
<path d="M0 0 C1.5 1.3125 1.5 1.3125 3 3 C3 3.99 3 4.98 3 6 C-1.875 4.25 -1.875 4.25 -3 2 C-2.34 2 -1.68 2 -1 2 C-0.67 1.34 -0.34 0.68 0 0 Z " fill="#25130C" transform="translate(620,227)"/>
<path d="M0 0 C2.50037734 2.17424117 3.43628586 3.73045798 4 7 C2.02 6.01 0.04 5.02 -2 4 C-1.34 2.68 -0.68 1.36 0 0 Z " fill="#25150C" transform="translate(692,144)"/>
</svg>
